<?xml version="1.0" encoding="utf-8"?>
<!-- Generator: Adobe Illustrator 25.0.0, SVG Export Plug-In . SVG Version: 6.00 Build 0)  -->
<svg version="1.1" id="Livello_1" xmlns="http://www.w3.org/2000/svg" xmlns:xlink="http://www.w3.org/1999/xlink" x="0px" y="0px"
	 viewBox="0 0 200 200" style="enable-background:new 0 0 200 200;" xml:space="preserve">
<style type="text/css">
	.st0{display:none;}
	.st1{fill:#FFFFFF;}
	.st2{display:inline;}
	.st3{display:none;fill:#FFFFFF;}
</style>
<g class="st0">
	<path class="st1" d="M200,200c-66.35,0-132.68,0-199,0C1,133.65,1,67.32,1,1c66.35,0,132.68,0,199,0C200,67.35,200,133.68,200,200z
		 M32.09,86.77c0.18,0.06,0.36,0.12,0.54,0.18c0,5.85,2.8,11.03,7.93,13.97c3.91,2.24,5.95,5.21,6.07,9.87
		c0.26,10.07,6.47,16.36,16.56,16.82c4.54,0.2,7.64,2,10,5.9c4.95,8.17,14.47,10.55,22.74,5.82c3.74-2.14,7.31-2.21,11.04-0.02
		c3.52,2.07,7.32,2.94,11.42,2.14c5.18-1.01,9.09-3.83,11.68-8.39c1.97-3.47,4.82-5.31,8.84-5.36c1.38-0.02,2.79-0.1,4.13-0.4
		c8.04-1.81,12.9-7.69,13.3-16.08c0.12-2.6,0.12-5.25,2.11-7.22c1.2-1.19,2.65-2.17,4.08-3.1c3.27-2.14,5.64-4.96,6.89-8.68
		c1.63-4.85,1.07-9.52-1.45-13.92c-1.22-2.13-2.15-4.35-1.61-6.77c0.4-1.77,1.28-3.44,2.08-5.09c3.95-8.16,1.6-17.12-6.13-21.77
		c-4.04-2.43-5.92-5.49-6.05-10.27c-0.27-9.47-6.85-16.19-16.19-16.44c-4.85-0.13-8.11-1.88-10.45-6.08
		c-3.08-5.52-8.4-7.87-14.31-8.13c-2.81-0.12-5.9,1.34-8.53,2.72c-3.71,1.95-7.02,2.07-10.64-0.07c-3.76-2.23-7.77-3.19-12.23-2.11
		c-5.09,1.24-8.74,4.15-11.28,8.61c-1.95,3.43-4.87,5.02-8.82,4.99c-1.63-0.01-3.32,0.21-4.89,0.64
		c-7.47,2.04-12.18,7.93-12.27,15.86c-0.05,4.67-1.85,7.78-5.87,10.17c-8.07,4.8-10.55,14.19-5.98,22.35
		c2.22,3.96,2.35,7.55,0.15,11.58C33.58,81.01,33.02,83.99,32.09,86.77z M109.24,149.55c-2.26-1.01-4.36-1.83-6.33-2.87
		c-1.08-0.58-1.88-0.55-2.91,0.06c-3.66,2.14-7.65,3.26-11.88,3.34c-9.88,0.2-17.25-4.16-22.33-12.52
		c-0.61-1.01-1.27-1.44-2.49-1.52c-2.35-0.15-4.74-0.4-7.01-1c-1.48-0.39-1.96,0.03-2.5,1.24c-2.27,5.07-4.62,10.1-6.95,15.14
		c-3.18,6.91-6.39,13.8-9.53,20.72c-1.55,3.41,0.2,6.05,3.97,6.15c0.53,0.01,1.06,0,1.59,0c7.54,0,15.08,0.03,22.62-0.03
		c1.26-0.01,2.04,0.4,2.81,1.39c4.36,5.57,8.77,11.1,13.22,16.6c2.82,3.48,5.91,3.03,7.72-1.06c3.7-8.4,7.37-16.81,11.05-25.22
		C103.26,163.22,106.23,156.45,109.24,149.55z M148.72,134.83c-2.91,0.43-5.56,1.06-8.22,1.14c-1.93,0.06-2.89,0.82-3.86,2.36
		c-3.96,6.32-9.59,10.23-17.04,11.43c-0.68,0.11-1.54,0.79-1.82,1.42c-3.74,8.37-7.41,16.78-11.03,25.2
		c-0.27,0.63-0.26,1.57,0.01,2.21c2.42,5.71,4.89,11.4,7.41,17.07c1.55,3.5,4.95,3.86,7.35,0.84c4.41-5.53,8.83-11.05,13.2-16.61
		c0.89-1.13,1.81-1.65,3.32-1.64c7.74,0.08,15.48,0.05,23.22,0.04c4.71-0.01,6.33-2.54,4.37-6.8c-4.25-9.25-8.49-18.51-12.74-27.75
		C151.48,140.7,150.04,137.66,148.72,134.83z"/>
	<path class="st2" d="M35.09,86.16c0.93-2.79,1.5-5.78,2.88-8.33c2.2-4.05,2.08-7.66-0.15-11.64c-4.59-8.19-2.1-17.63,6.01-22.45
		c4.04-2.4,5.84-5.53,5.9-10.22c0.09-7.96,4.82-13.88,12.33-15.93c1.58-0.43,3.28-0.66,4.92-0.65c3.97,0.03,6.9-1.57,8.86-5.01
		c2.55-4.48,6.22-7.41,11.33-8.65c4.48-1.09,8.52-0.12,12.29,2.12c3.63,2.16,6.96,2.03,10.69,0.07c2.64-1.39,5.74-2.86,8.57-2.73
		C124.65,3,130,5.36,133.09,10.91c2.35,4.22,5.62,5.97,10.5,6.11c9.38,0.26,15.99,7.01,16.26,16.52c0.14,4.8,2.02,7.87,6.08,10.32
		c7.76,4.67,10.12,13.67,6.15,21.87c-0.8,1.66-1.69,3.34-2.09,5.12c-0.55,2.43,0.39,4.66,1.61,6.8c2.53,4.42,3.1,9.11,1.46,13.98
		c-1.26,3.73-3.64,6.57-6.92,8.72c-1.44,0.94-2.89,1.92-4.1,3.12c-2,1.98-1.99,4.64-2.12,7.25c-0.4,8.43-5.29,14.33-13.36,16.15
		c-1.35,0.3-2.76,0.39-4.15,0.4c-4.04,0.05-6.9,1.9-8.88,5.38c-2.61,4.58-6.53,7.41-11.74,8.43c-4.12,0.81-7.93-0.07-11.47-2.15
		c-3.74-2.2-7.33-2.13-11.09,0.02c-8.31,4.75-17.88,2.37-22.85-5.84c-2.37-3.92-5.48-5.72-10.05-5.93
		c-10.13-0.46-16.37-6.78-16.63-16.9c-0.12-4.68-2.17-7.67-6.1-9.91c-5.16-2.95-7.97-8.15-7.97-14.03
		C35.46,86.28,35.27,86.22,35.09,86.16z M102.63,109.22c13.1-20.49,26-40.66,38.98-60.98c-2.47-1.57-4.7-2.98-7.11-4.51
		c-11.25,17.55-22.41,34.95-33.63,52.45c-9.15-8.21-18.02-16.19-27.03-24.27c-1.95,2.21-3.73,4.23-5.63,6.38
		C79.73,88.63,91.08,98.84,102.63,109.22z"/>
	<path class="st2" d="M112.6,149.23c-3.03,6.93-6.01,13.73-8.99,20.53c-3.7,8.45-7.39,16.9-11.11,25.34
		c-1.81,4.11-4.92,4.56-7.75,1.06c-4.47-5.52-8.9-11.08-13.28-16.67c-0.78-1-1.56-1.41-2.83-1.4c-7.58,0.05-15.15,0.03-22.73,0.03
		c-0.53,0-1.06,0.01-1.6,0c-3.79-0.11-5.55-2.75-3.99-6.18c3.15-6.96,6.38-13.88,9.58-20.82c2.33-5.07,4.7-10.12,6.98-15.21
		c0.55-1.22,1.03-1.64,2.52-1.25c2.28,0.6,4.68,0.85,7.05,1c1.23,0.08,1.89,0.51,2.5,1.52c5.1,8.4,12.51,12.78,22.43,12.58
		c4.25-0.09,8.26-1.21,11.94-3.36c1.03-0.6,1.84-0.63,2.92-0.06C108.22,147.39,110.33,148.21,112.6,149.23z"/>
	<path class="st2" d="M152.26,134.44c1.33,2.84,2.77,5.89,4.18,8.96c4.27,9.29,8.54,18.59,12.8,27.88c1.97,4.28,0.34,6.83-4.39,6.84
		c-7.78,0.01-15.55,0.05-23.33-0.04c-1.51-0.02-2.44,0.51-3.33,1.65c-4.39,5.59-8.83,11.13-13.26,16.69
		c-2.41,3.03-5.82,2.67-7.39-0.84c-2.53-5.7-5.02-11.41-7.44-17.15c-0.27-0.64-0.28-1.59-0.01-2.22
		c3.64-8.46,7.32-16.91,11.08-25.32c0.28-0.64,1.15-1.32,1.83-1.43c7.49-1.21,13.15-5.13,17.12-11.49c0.97-1.55,1.93-2.31,3.87-2.37
		C146.68,135.51,149.34,134.88,152.26,134.44z"/>
	<path class="st1" d="M99.31,109.73c-11.5-10.33-22.79-20.49-34.25-30.8c1.88-2.14,3.66-4.15,5.6-6.35
		c8.96,8.05,17.8,15.98,26.9,24.16c11.16-17.41,22.27-34.74,33.47-52.2c2.4,1.52,4.62,2.93,7.08,4.49
		C125.19,69.25,112.35,89.34,99.31,109.73z"/>
</g>
<g>
	<path class="st3" d="M215,205.89c-76.33,0-152.67,0-229,0C-14,134.59-14,63.3-14-8c76.33,0,152.67,0,229,0
		C215,63.3,215,134.59,215,205.89z M191.74,99.31c0-6.55,0.01-13.1-0.01-19.65c-0.01-3.77-2.17-5.9-5.95-5.93
		c-2.36-0.02-4.73-0.14-7.08,0.04c-1.92,0.14-2.71-0.59-3.44-2.36c-12.32-30.04-34.45-47.73-66.81-51.52
		c-22.97-2.69-43.3,4.32-60.76,19.41c-10.28,8.89-17.66,19.86-22.33,32.63c-0.5,1.38-1.18,1.91-2.64,1.84
		c-2.2-0.11-4.43,0.12-6.62-0.06c-5.33-0.44-7.21,3.12-7.17,7.22c0.12,11.35,0.04,22.69,0.05,34.04c0,1.52-0.08,3.06,0.08,4.56
		c0.36,3.39,2.52,5.35,5.92,5.44c2.21,0.06,4.44,0.19,6.62-0.03c2.37-0.24,3.37,0.63,4.23,2.86
		c17.61,45.85,71.45,65.24,114.01,41.01c16.76-9.54,28.54-23.5,35.38-41.54c0.7-1.84,1.56-2.45,3.44-2.33
		c2.43,0.15,4.87,0.1,7.31,0.01c3.6-0.13,5.75-2.39,5.76-5.99C191.75,112.41,191.73,105.86,191.74,99.31z"/>
	<path d="M191.74,99.31c0,6.55,0.01,13.1-0.01,19.65c-0.01,3.59-2.16,5.86-5.76,5.99c-2.43,0.09-4.88,0.14-7.31-0.01
		c-1.88-0.12-2.75,0.49-3.44,2.33c-6.84,18.04-18.62,32-35.38,41.54c-42.56,24.23-96.4,4.84-114.01-41.01
		c-0.86-2.23-1.86-3.11-4.23-2.86c-2.19,0.22-4.41,0.09-6.62,0.03c-3.4-0.09-5.56-2.05-5.92-5.44c-0.16-1.51-0.08-3.04-0.08-4.56
		c-0.01-11.35,0.07-22.7-0.05-34.04c-0.04-4.1,1.84-7.66,7.17-7.22c2.19,0.18,4.42-0.05,6.62,0.06c1.46,0.08,2.14-0.46,2.64-1.84
		c4.66-12.77,12.04-23.74,22.33-32.63c17.46-15.09,37.79-22.1,60.76-19.41c32.36,3.8,54.49,21.48,66.81,51.52
		c0.73,1.77,1.52,2.5,3.44,2.36c2.35-0.18,4.72-0.06,7.08-0.04c3.79,0.03,5.94,2.16,5.95,5.93
		C191.75,86.21,191.74,92.76,191.74,99.31z M27.92,73.55c10.21,0,20.17,0.03,30.14-0.07c0.75-0.01,1.69-0.87,2.19-1.59
		c19.89-28.34,60.57-28.34,80.31,0.07c0.85,1.23,1.73,1.63,3.17,1.62c8.99-0.06,17.97-0.03,26.96-0.04c0.71,0,1.43-0.09,2.21-0.14
		c-7.97-24.68-34.62-51.64-73.21-51.29C61.28,22.48,35.51,49.71,27.92,73.55z M27.95,125.04c7.86,24.77,35.37,53.02,75.69,51.35
		c19.52-0.81,36.35-8.21,50.44-21.72c8.63-8.28,14.89-18.1,19.06-29.63c-9.94,0-19.45,0.04-28.97-0.04
		c-1.77-0.01-2.84,0.49-3.91,1.99c-9.21,12.86-21.71,20.13-37.55,20.79c-17.88,0.75-32.01-6.63-42.4-21.14
		c-0.86-1.2-1.71-1.68-3.17-1.64c-3.88,0.1-7.77,0.03-11.65,0.03C39.72,125.04,33.94,125.04,27.95,125.04z M62.63,125.13
		c10.45,13.81,23.77,20.71,40.61,19.76c14.56-0.82,26.02-7.65,34.92-19.76C112.81,125.13,88.04,125.13,62.63,125.13z M138.23,73.42
		c-10.4-13.68-23.59-20.57-40.31-19.73c-14.74,0.74-26.26,7.62-35.24,19.73C87.98,73.42,112.82,73.42,138.23,73.42z M121.23,107.14
		c0-3.86,0-7.46,0-11.05c1.86,2.72,3.24,5.55,4.72,8.34c0.31,0.58,1.01,1.34,1.51,1.33c0.52-0.02,1.18-0.78,1.5-1.37
		c1.48-2.78,2.86-5.62,4.28-8.43c0.17,0.04,0.34,0.07,0.51,0.11c0,3.66,0,7.33,0,11c1.07,0,1.84,0,2.61,0c0-5.33,0-10.48,0-15.6
		c-3.91-0.58-3.9-0.58-5.47,2.67c-1.08,2.25-2.17,4.49-3.43,7.09c-1.26-2.61-2.35-4.85-3.43-7.11c-1.55-3.23-1.55-3.23-5.49-2.65
		c0,5.18,0,10.38,0,15.69C119.41,107.14,120.14,107.14,121.23,107.14z M143.92,98.01c0-1.56,0-2.8,0-4.27c2.88,0,5.59,0,8.46,0
		c-0.07-0.96-0.12-1.67-0.17-2.36c-3.82,0-7.43,0-11.04,0c0,5.36,0,10.56,0,15.72c3.88,0,7.58,0,11.41,0
		c-0.05-0.82-0.09-1.47-0.15-2.37c-2.93,0-5.71,0-8.55,0c0-1.52,0-2.77,0-4.33c2.58,0,5.04,0,7.66,0c-0.1-0.97-0.17-1.61-0.25-2.38
		C148.77,98.01,146.43,98.01,143.92,98.01z M93.47,91.34c-3.84,0-7.38,0-11.01,0c0,5.33,0,10.53,0,15.77c3.85,0,7.54,0,11.4,0
		c-0.05-0.86-0.09-1.56-0.13-2.43c-2.96,0-5.68,0-8.53,0c0-1.44,0-2.7,0-4.22c2.48,0,4.88,0,7.5,0c-0.05-0.96-0.08-1.66-0.13-2.52
		c-2.58,0-4.91,0-7.36,0c0-1.42,0-2.66,0-4.2c2.82,0,5.51,0,8.27,0C93.47,92.8,93.47,92.14,93.47,91.34z M78.87,91.38
		c-3.56,0-7.01,0-10.49,0c0,5.32,0,10.48,0,15.74c0.89,0,1.67,0,2.68,0c0-2.14,0-4.17,0-6.45c2.46,0,4.69,0,7.13,0
		c-0.07-1-0.12-1.71-0.19-2.6c-2.4,0-4.58,0-6.79,0c0-1.52,0-2.83,0-4.38c2.65,0,5.12,0,7.66,0C78.87,92.77,78.87,92.11,78.87,91.38
		z M108.16,91.33c-4.2,0-8.2,0-12.38,0c0.04,0.84,0.07,1.54,0.1,2.34c1.67,0.08,3.15,0.14,4.81,0.22c0,4.53,0,8.83,0,13.21
		c0.98,0,1.76,0,2.82,0c0-4.5,0-8.86,0-13.4c1.69,0,3.11,0,4.65,0C108.16,92.84,108.16,92.19,108.16,91.33z M58.1,104.58
		c-2.52,0-4.86,0-7.39,0c0-4.69,0-8.97,0-13.38c-0.96,0.05-1.69,0.08-2.47,0.12c0,5.36,0,10.55,0,15.77c3.37,0,6.58,0,9.86,0
		C58.1,106.33,58.1,105.73,58.1,104.58z M61.41,91.32c0,5.35,0,10.59,0,15.96c0.95-0.07,1.67-0.12,2.38-0.17c0-5.39,0-10.57,0-15.79
		C62.88,91.32,62.14,91.32,61.41,91.32z M113.73,107.15c0-5.3,0-10.55,0-15.81c-0.9,0-1.63,0-2.46,0c0,5.32,0,10.51,0,15.81
		C112.13,107.15,112.86,107.15,113.73,107.15z"/>
	<path class="st3" d="M27.92,73.55c7.59-23.84,33.37-51.07,71.77-51.43c38.59-0.36,65.23,26.61,73.21,51.29
		c-0.78,0.05-1.49,0.14-2.21,0.14c-8.99,0.01-17.97-0.02-26.96,0.04c-1.45,0.01-2.32-0.4-3.17-1.62
		c-19.74-28.41-60.43-28.42-80.31-0.07c-0.5,0.71-1.45,1.58-2.19,1.59C48.09,73.59,38.12,73.55,27.92,73.55z M90.66,44.66
		c1.2-0.33,2.04-0.56,3.07-0.84c-1.23-4.91-2.41-9.6-3.57-14.26c-3.42,0.49-3.43,0.49-3.78,3.51c-0.24,2.11-0.48,4.21-0.78,6.85
		c-1.56-2.28-2.92-3.94-3.91-5.81c-1.23-2.32-2.75-2.47-4.98-1.06c1.14,4.61,2.3,9.3,3.51,14.19c1.07-0.28,1.92-0.5,3.02-0.78
		c-0.77-2.99-1.51-5.81-2.39-9.21c1.56,2.21,2.73,3.97,4.02,5.63c0.45,0.58,1.2,0.93,1.82,1.39c0.28-0.66,0.7-1.29,0.82-1.97
		c0.35-2.08,0.58-4.18,0.86-6.27c0.09,0,0.17,0.01,0.26,0.01C89.29,38.8,89.94,41.58,90.66,44.66z M138.4,39.81
		c-3.07,4.05-5.99,7.92-9.06,11.98c3.19,2.14,5.75,5.61,10.14,3.99c3.21-1.19,5.26-3.8,5.53-7.23
		C145.38,43.9,141.34,42.37,138.4,39.81z M127.95,43.98c0.39-0.96,0.69-1.7,1.02-2.53c-1.58-0.74-3-1.41-4.53-2.13
		c0.42-0.93,0.76-1.67,1.17-2.58c1.85,0.76,3.57,1.47,5.44,2.24c0.38-0.96,0.68-1.7,1.05-2.64c-2.93-1.24-5.68-2.4-8.56-3.62
		c-1.99,4.72-3.84,9.12-5.8,13.77c2.99,1.26,5.81,2.46,8.79,3.71c0.41-0.97,0.72-1.71,1.1-2.61c-1.94-0.85-3.71-1.63-5.63-2.47
		c0.49-1.12,0.87-2,1.32-3.04C124.87,42.72,126.26,43.29,127.95,43.98z M111.21,44.96c0.71-4.15,1.36-7.94,2.03-11.81
		c1.44,0.16,2.62,0.29,3.98,0.44c0.16-0.91,0.3-1.69,0.48-2.7c-3.91-0.65-7.6-1.27-11.39-1.9c-0.16,1.1-0.27,1.83-0.4,2.68
		c1.34,0.33,2.55,0.63,3.9,0.96c-0.64,3.94-1.26,7.74-1.9,11.7C109.08,44.56,110.02,44.74,111.21,44.96z M54.71,45.72
		c3.08,4.08,5.99,7.92,9.01,11.91c2.58-1.96,4.96-3.76,7.43-5.63c-0.74-0.88-1.25-1.5-1.83-2.19c-1.59,1.19-3.03,2.27-4.63,3.46
		c-2.45-3.22-4.82-6.33-7.28-9.56C56.48,44.39,55.71,44.97,54.71,45.72z M100.73,43.86c0-5.05,0-9.86,0-14.7c-1.22,0-2.16,0-3.05,0
		c0,4.99,0,9.8,0,14.7C98.85,43.86,99.74,43.86,100.73,43.86z M70.13,35.83c-1.04,0.55-1.97,1.04-2.99,1.57
		c2.3,4.53,4.48,8.83,6.73,13.26c1.12-0.61,2.01-1.09,2.98-1.61C74.58,44.58,72.42,40.34,70.13,35.83z M151.87,57.43
		c-0.61,2.81-2.38,3.64-5.1,3.7c2.86,1.27,2.73,3.38,2.1,5.84c2.08-2.1,4.03-1.57,6.21-0.1c-1.38-2.66-0.37-4.33,1.76-5.83
		C154.21,61.11,152.5,60.21,151.87,57.43z M49.01,57.41c-0.71,2.66-2.28,3.76-5.03,3.63c2.41,1.44,2.83,3.36,1.94,5.87
		c2.11-1.83,4-1.76,6.09-0.01c-0.83-2.47-0.53-4.44,1.97-5.83C51.38,61.05,49.55,60.31,49.01,57.41z"/>
	<path class="st3" d="M27.95,125.04c5.99,0,11.77,0,17.55,0c3.88,0,7.77,0.07,11.65-0.03c1.46-0.04,2.31,0.44,3.17,1.64
		c10.4,14.5,24.53,21.88,42.4,21.14c15.84-0.66,28.35-7.93,37.55-20.79c1.07-1.49,2.14-2,3.91-1.99c9.51,0.08,19.02,0.04,28.97,0.04
		c-4.17,11.53-10.44,21.35-19.06,29.63c-14.09,13.51-30.92,20.91-50.44,21.72C63.32,178.06,35.81,149.81,27.95,125.04z
		 M54.29,146.22c-0.07-0.07-0.14-0.13-0.21-0.2c2.04-2.86,4.07-5.73,6.04-8.5c-0.93-2.02-1.99-2.43-3.8-1.24
		c-2.3,1.51-4.79,2.74-7.2,4.09c-0.06-0.08-0.12-0.16-0.18-0.24c2.21-2.66,4.41-5.31,6.66-8.01c-0.82-0.9-1.47-1.62-2.31-2.54
		c-3.12,4.04-6.11,7.93-9.14,11.86c1.02,1.13,1.86,2.08,2.75,3.08c2.7-1.56,5.24-3.03,7.78-4.49c0.06,0.11,0.12,0.22,0.18,0.33
		c-1.73,2.39-3.46,4.77-5.23,7.21c1,1.11,1.86,2.06,2.82,3.12c4.27-2.65,8.43-5.23,12.74-7.9c-0.88-0.94-1.53-1.63-2.21-2.35
		C59.94,142.47,57.11,144.35,54.29,146.22z M133.64,160.98c-1.93-4.42-3.86-8.82-5.81-13.31c-1.13,0.55-1.93,0.94-2.86,1.39
		c1.25,2.82,2.45,5.51,3.87,8.7c-2.53-2.05-4.73-3.58-6.62-5.43c-1.88-1.83-3.26-1.01-4.86,0.25c1.95,4.46,3.85,8.82,5.8,13.28
		c1.11-0.52,1.92-0.9,2.91-1.36c-1.34-2.94-2.6-5.73-4.03-8.87c2.37,1.93,4.53,3.49,6.43,5.32
		C130.14,162.58,131.66,162.71,133.64,160.98z M77.92,150.11c-1.59,4.73-3.12,9.28-4.69,13.95c1.21,0.41,2.1,0.72,3.09,1.06
		c0.66-1.76,1.24-3.3,1.84-4.89c2.58,0.53,2,2.65,2.15,4.07c0.26,2.46,1.62,3.09,3.89,3.19c-0.36-2.17-0.69-4.16-1.01-6.07
		c2.91-1.39,4.08-2.95,3.96-5.23c-0.15-2.69-2.14-3.65-4.3-4.41C81.28,151.22,79.71,150.71,77.92,150.11z M98.93,163.77
		c0.58-0.5,1.14-0.89,1.6-1.38c2.12-2.31,1.5-6.32-1.37-7.2c-2.53-0.77-5.27-0.83-8.08-1.22c-0.37,5.27-0.69,9.99-1.03,14.83
		c1.27,0.06,2.15,0.1,3.2,0.15c0.19-1.79,0.37-3.41,0.54-5.04c2.61-0.31,2.61,1.84,3.02,3.09c0.8,2.45,2.38,2.75,4.77,2.46
		C100.65,167.47,99.79,165.63,98.93,163.77z M68.85,161.9c1.19-4.78,2.41-9.39,3.42-14.05c0.11-0.5-0.87-1.41-1.54-1.84
		c-0.59-0.39-1.77-0.77-2.12-0.48c-3.71,3.08-7.3,6.3-11.11,9.64c1.14,0.69,1.97,1.19,2.9,1.76c0.64-0.61,1.16-1.46,1.87-1.67
		c0.75-0.22,1.83-0.08,2.5,0.34c0.74,0.47,1.83,1.72,1.65,2.12C65.34,160.11,66.62,161.04,68.85,161.9z M118.16,167.17
		c-2.15-4.28-4.25-8.57-6.51-12.77c-0.24-0.44-1.45-0.59-2.15-0.48c-0.79,0.13-2.07,0.61-2.15,1.11c-0.81,4.69-1.42,9.41-2.09,14.15
		c2.23,0.33,3.62-0.02,3.52-2.4c-0.08-1.92,1.51-1.68,2.58-1.74c0.79-0.05,2.17,0.28,2.33,0.76
		C114.52,168.33,116.1,168.04,118.16,167.17z M139.5,139.31c2.56,0.66,5.05,1.08,7.35,1.97c2.34,0.9,4.49,2.26,6.88,3.51
		c0.44-0.53,1.05-1.28,1.9-2.32c-5.25-2.56-5.95-8.16-8.64-12.35c-2.22,1.42-2.3,2.96-0.91,4.84c0.74,0.99,1.21,2.18,2.05,3.72
		c-1.69-0.56-2.96-0.82-4.07-1.38C141.89,136.21,140.5,136.85,139.5,139.31z M134.68,146.41c2.45,3.15,4.83,6.23,7.28,9.37
		c1-0.79,1.76-1.39,2.63-2.08c-2.45-3.19-4.79-6.23-7.18-9.34c1.09-0.95,2.04-1.77,3.06-2.66c-0.65-0.76-1.17-1.37-1.76-2.07
		c-3.07,2.37-5.98,4.63-8.98,6.95c0.69,0.85,1.2,1.49,1.75,2.16C132.57,147.95,133.54,147.24,134.68,146.41z"/>
	<path class="st3" d="M62.63,125.13c25.41,0,50.18,0,75.52,0c-8.9,12.11-20.35,18.93-34.92,19.76
		C86.4,145.84,73.08,138.95,62.63,125.13z M96.39,140.63c2.72-2.99,5.32-2.13,8.22-0.15c-2.03-3.52-0.43-5.68,2.32-7.65
		c-3.72,0.45-5.63-1.25-6.52-4.7c-0.81,3.51-2.81,5.09-6.47,4.76C96.82,134.8,97.97,137.04,96.39,140.63z M80.55,137.55
		c0.93-0.47,1.87-1.31,2.8-1.31c0.98,0.01,1.95,0.82,2.37,1.02c0.62-1.89,1.21-3.7,1.83-5.6c-2.13,0.61-3.36-1.04-4.29-3.55
		c-0.34,3.07-2.34,3.56-4.82,3.77C80.68,133.28,81.39,135.03,80.55,137.55z M122.38,131.78c-2.82,0.32-4.1-1.25-5.04-3.58
		c-0.42,2.92-2.34,3.56-3.98,3.51c0.59,1.92,1.14,3.74,1.71,5.6c1.44-1.51,3.39-1.3,5.6,0.37
		C119.23,135,120.36,133.36,122.38,131.78z"/>
	<path class="st3" d="M138.23,73.42c-25.41,0-50.25,0-75.55,0c8.98-12.11,20.5-19,35.24-19.73
		C114.64,52.85,127.83,59.75,138.23,73.42z M96.43,69.79c2.73-2.47,5.27-2.39,8.01-0.02c-1.42-3.32-0.65-5.75,2.49-7.75
		c-3.95,0.71-5.51-1.46-6.56-4.65c-0.77,3.51-2.78,5.07-6.46,4.76C97.13,63.99,97.69,66.5,96.43,69.79z M86.41,69.72
		c-1.17-2.63-0.07-4.33,1.91-6.04c-3.15,0.88-3.93-1.35-5.23-3.89c-0.36,3.33-2.1,4.16-4.74,4.15c2.55,1.39,2.81,3.3,1.95,5.81
		C82.37,68.17,84.26,67.73,86.41,69.72z M122.34,63.8c-2.86,0.47-4.03-1.24-4.98-3.51c-0.52,2.76-2.19,3.69-4.88,3.64
		c2.57,1.37,2.63,3.41,2.06,5.85c2.05-2.14,3.94-1.48,6.14-0.05C119.11,67.03,120.57,65.49,122.34,63.8z"/>
	<path class="st1" d="M121.23,107.14c-1.09,0-1.83,0-2.69,0c0-5.31,0-10.51,0-15.69c3.94-0.58,3.94-0.58,5.49,2.65
		c1.08,2.25,2.17,4.5,3.43,7.11c1.25-2.59,2.35-4.84,3.43-7.09c1.56-3.25,1.56-3.25,5.47-2.67c0,5.12,0,10.27,0,15.6
		c-0.76,0-1.54,0-2.61,0c0-3.67,0-7.34,0-11c-0.17-0.04-0.34-0.07-0.51-0.11c-1.42,2.82-2.8,5.65-4.28,8.43
		c-0.31,0.59-0.98,1.36-1.5,1.37c-0.5,0.02-1.2-0.75-1.51-1.33c-1.48-2.78-2.86-5.62-4.72-8.34
		C121.23,99.69,121.23,103.28,121.23,107.14z"/>
	<path class="st1" d="M143.92,98.01c2.51,0,4.85,0,7.35,0c0.08,0.77,0.15,1.41,0.25,2.38c-2.61,0-5.07,0-7.66,0
		c0,1.57,0,2.82,0,4.33c2.84,0,5.62,0,8.55,0c0.06,0.9,0.1,1.54,0.15,2.37c-3.83,0-7.53,0-11.41,0c0-5.15,0-10.35,0-15.72
		c3.61,0,7.22,0,11.04,0c0.05,0.69,0.1,1.4,0.17,2.36c-2.87,0-5.58,0-8.46,0C143.92,95.21,143.92,96.45,143.92,98.01z"/>
	<path class="st1" d="M93.47,91.34c0,0.79,0,1.46,0,2.41c-2.75,0-5.44,0-8.27,0c0,1.53,0,2.77,0,4.2c2.45,0,4.79,0,7.36,0
		c0.04,0.86,0.08,1.55,0.13,2.52c-2.62,0-5.02,0-7.5,0c0,1.52,0,2.77,0,4.22c2.85,0,5.57,0,8.53,0c0.05,0.87,0.09,1.57,0.13,2.43
		c-3.86,0-7.55,0-11.4,0c0-5.24,0-10.44,0-15.77C86.08,91.34,89.63,91.34,93.47,91.34z"/>
	<path class="st1" d="M78.87,91.38c0,0.73,0,1.39,0,2.3c-2.54,0-5.01,0-7.66,0c0,1.56,0,2.86,0,4.38c2.21,0,4.39,0,6.79,0
		c0.06,0.89,0.11,1.6,0.19,2.6c-2.43,0-4.67,0-7.13,0c0,2.29,0,4.31,0,6.45c-1.01,0-1.79,0-2.68,0c0-5.26,0-10.41,0-15.74
		C71.86,91.38,75.31,91.38,78.87,91.38z"/>
	<path class="st1" d="M108.16,91.33c0,0.86,0,1.51,0,2.36c-1.54,0-2.95,0-4.65,0c0,4.54,0,8.9,0,13.4c-1.05,0-1.83,0-2.82,0
		c0-4.37,0-8.67,0-13.21c-1.66-0.08-3.14-0.14-4.81-0.22c-0.04-0.8-0.07-1.5-0.1-2.34C99.97,91.33,103.96,91.33,108.16,91.33z"/>
	<path class="st1" d="M58.1,104.58c0,1.15,0,1.75,0,2.51c-3.28,0-6.49,0-9.86,0c0-5.22,0-10.41,0-15.77
		c0.78-0.04,1.5-0.07,2.47-0.12c0,4.41,0,8.7,0,13.38C53.24,104.58,55.58,104.58,58.1,104.58z"/>
	<path class="st1" d="M61.41,91.32c0.73,0,1.47,0,2.38,0c0,5.22,0,10.41,0,15.79c-0.71,0.05-1.42,0.1-2.38,0.17
		C61.41,101.91,61.41,96.67,61.41,91.32z"/>
	<path class="st1" d="M113.73,107.15c-0.87,0-1.6,0-2.46,0c0-5.3,0-10.49,0-15.81c0.83,0,1.56,0,2.46,0
		C113.73,96.59,113.73,101.84,113.73,107.15z"/>
	<path d="M90.66,44.66c-0.72-3.08-1.37-5.86-2.02-8.63c-0.09,0-0.17-0.01-0.26-0.01c-0.28,2.09-0.51,4.19-0.86,6.27
		c-0.12,0.68-0.54,1.32-0.82,1.97c-0.61-0.46-1.37-0.81-1.82-1.39c-1.29-1.66-2.46-3.42-4.02-5.63c0.88,3.4,1.61,6.22,2.39,9.21
		c-1.09,0.28-1.94,0.5-3.02,0.78c-1.21-4.89-2.37-9.58-3.51-14.19c2.23-1.41,3.75-1.26,4.98,1.06c0.99,1.86,2.35,3.52,3.91,5.81
		c0.3-2.64,0.53-4.74,0.78-6.85c0.35-3.02,0.35-3.02,3.78-3.51c1.17,4.66,2.34,9.35,3.57,14.26C92.7,44.1,91.86,44.33,90.66,44.66z"
		/>
	<path d="M138.4,39.81c2.93,2.56,6.97,4.09,6.61,8.73c-0.27,3.43-2.31,6.04-5.53,7.23c-4.39,1.62-6.95-1.84-10.14-3.99
		C132.42,47.73,135.34,43.87,138.4,39.81z M133.96,51.33c-0.01,0.32-0.01,0.64-0.02,0.96c1.38,0.15,2.91,0.76,4.1,0.36
		c2.11-0.7,3.38-2.57,3.68-4.8c0.23-1.68-0.8-2.79-2.41-3.6C137.5,46.64,135.73,48.99,133.96,51.33z"/>
	<path d="M127.95,43.98c-1.69-0.69-3.08-1.26-4.63-1.89c-0.45,1.04-0.83,1.92-1.32,3.04c1.91,0.84,3.69,1.62,5.63,2.47
		c-0.38,0.9-0.69,1.64-1.1,2.61c-2.98-1.26-5.81-2.45-8.79-3.71c1.96-4.65,3.81-9.05,5.8-13.77c2.88,1.22,5.63,2.38,8.56,3.62
		c-0.37,0.94-0.67,1.68-1.05,2.64c-1.87-0.77-3.59-1.48-5.44-2.24c-0.41,0.91-0.75,1.65-1.17,2.58c1.53,0.72,2.95,1.39,4.53,2.13
		C128.63,42.28,128.34,43.01,127.95,43.98z"/>
	<path d="M111.21,44.96c-1.19-0.22-2.13-0.4-3.3-0.62c0.64-3.96,1.26-7.75,1.9-11.7c-1.35-0.33-2.57-0.63-3.9-0.96
		c0.13-0.85,0.24-1.58,0.4-2.68c3.8,0.63,7.49,1.25,11.39,1.9c-0.18,1.01-0.32,1.79-0.48,2.7c-1.35-0.15-2.54-0.28-3.98-0.44
		C112.57,37.02,111.92,40.82,111.21,44.96z"/>
	<path d="M54.71,45.72c1.01-0.75,1.78-1.32,2.71-2.02c2.46,3.23,4.83,6.35,7.28,9.56c1.59-1.19,3.04-2.27,4.63-3.46
		c0.58,0.7,1.09,1.31,1.83,2.19c-2.48,1.88-4.85,3.67-7.43,5.63C60.7,53.64,57.79,49.79,54.71,45.72z"/>
	<path d="M100.73,43.86c-0.99,0-1.89,0-3.05,0c0-4.9,0-9.71,0-14.7c0.89,0,1.83,0,3.05,0C100.73,34,100.73,38.81,100.73,43.86z"/>
	<path d="M70.13,35.83c2.29,4.51,4.45,8.75,6.73,13.22c-0.97,0.53-1.87,1.01-2.98,1.61c-2.25-4.43-4.43-8.73-6.73-13.26
		C68.16,36.87,69.09,36.38,70.13,35.83z"/>
	<path d="M151.87,57.43c0.63,2.78,2.34,3.68,4.97,3.61c-2.13,1.5-3.14,3.17-1.76,5.83c-2.18-1.47-4.14-2-6.21,0.1
		c0.63-2.46,0.76-4.57-2.1-5.84C149.5,61.06,151.27,60.24,151.87,57.43z"/>
	<path d="M49.01,57.41c0.54,2.9,2.37,3.63,4.98,3.65c-2.51,1.39-2.81,3.36-1.97,5.83c-2.1-1.75-3.99-1.82-6.09,0.01
		c0.89-2.51,0.46-4.43-1.94-5.87C46.73,61.17,48.3,60.07,49.01,57.41z"/>
	<path d="M54.29,146.22c2.83-1.87,5.66-3.75,8.69-5.76c0.67,0.72,1.32,1.41,2.21,2.35c-4.31,2.67-8.47,5.25-12.74,7.9
		c-0.96-1.06-1.82-2.01-2.82-3.12c1.77-2.44,3.5-4.83,5.23-7.21c-0.06-0.11-0.12-0.22-0.18-0.33c-2.54,1.47-5.08,2.93-7.78,4.49
		c-0.89-0.99-1.74-1.94-2.75-3.08c3.03-3.94,6.02-7.82,9.14-11.86c0.84,0.92,1.49,1.64,2.31,2.54c-2.25,2.7-4.45,5.36-6.66,8.01
		c0.06,0.08,0.12,0.16,0.18,0.24c2.41-1.35,4.89-2.58,7.2-4.09c1.81-1.19,2.88-0.78,3.8,1.24c-1.96,2.77-4,5.63-6.04,8.5
		C54.14,146.09,54.21,146.16,54.29,146.22z"/>
	<path d="M133.64,160.98c-1.98,1.72-3.49,1.59-5.18-0.03c-1.9-1.83-4.06-3.38-6.43-5.32c1.43,3.14,2.69,5.93,4.03,8.87
		c-0.99,0.46-1.8,0.84-2.91,1.36c-1.95-4.46-3.85-8.82-5.8-13.28c1.6-1.26,2.98-2.09,4.86-0.25c1.89,1.85,4.09,3.38,6.62,5.43
		c-1.41-3.18-2.61-5.87-3.87-8.7c0.94-0.46,1.74-0.85,2.86-1.39C129.78,152.16,131.71,156.57,133.64,160.98z"/>
	<path d="M77.92,150.11c1.79,0.6,3.36,1.11,4.92,1.66c2.15,0.76,4.15,1.72,4.3,4.41c0.12,2.28-1.05,3.83-3.96,5.23
		c0.32,1.91,0.65,3.89,1.01,6.07c-2.28-0.1-3.63-0.72-3.89-3.19c-0.15-1.42,0.43-3.54-2.15-4.07c-0.6,1.6-1.18,3.13-1.84,4.89
		c-0.98-0.34-1.88-0.64-3.09-1.06C74.8,159.39,76.33,154.83,77.92,150.11z M80.29,153.6c-0.48,1.49-0.86,2.66-1.24,3.81
		c2.76,1.31,4.17,1.21,4.61-0.38C84.4,154.35,81.99,154.57,80.29,153.6z"/>
	<path d="M98.93,163.77c0.87,1.87,1.72,3.7,2.65,5.7c-2.39,0.29-3.97-0.02-4.77-2.46c-0.41-1.25-0.41-3.4-3.02-3.09
		c-0.18,1.63-0.35,3.25-0.54,5.04c-1.05-0.05-1.93-0.09-3.2-0.15c0.34-4.85,0.67-9.57,1.03-14.83c2.81,0.39,5.55,0.45,8.08,1.22
		c2.87,0.87,3.5,4.89,1.37,7.2C100.07,162.88,99.51,163.27,98.93,163.77z M93.86,161.62c1.77-0.55,3.05-0.79,4.13-1.39
		c0.34-0.19,0.43-1.8,0.14-1.99c-1.06-0.67-2.32-1.01-3.82-1.6C94.16,158.4,94.05,159.58,93.86,161.62z"/>
	<path d="M68.85,161.9c-2.23-0.86-3.51-1.79-2.43-4.18c0.18-0.4-0.9-1.65-1.65-2.12c-0.66-0.42-1.75-0.56-2.5-0.34
		c-0.71,0.21-1.22,1.06-1.87,1.67c-0.94-0.57-1.76-1.07-2.9-1.76c3.81-3.34,7.4-6.56,11.11-9.64c0.35-0.29,1.53,0.09,2.12,0.48
		c0.66,0.43,1.65,1.35,1.54,1.84C71.26,152.51,70.04,157.12,68.85,161.9z M67.6,154.12c0.6-1.94,1.09-3.54,1.69-5.5
		c-1.54,1.53-2.75,2.73-4.05,4.04C65.93,153.09,66.61,153.5,67.6,154.12z"/>
	<path d="M118.16,167.17c-2.06,0.87-3.63,1.16-4.47-1.37c-0.16-0.48-1.54-0.81-2.33-0.76c-1.08,0.07-2.67-0.17-2.58,1.74
		c0.1,2.39-1.29,2.73-3.52,2.4c0.67-4.75,1.27-9.47,2.09-14.15c0.09-0.5,1.37-0.99,2.15-1.11c0.7-0.11,1.91,0.04,2.15,0.48
		C113.91,158.6,116.01,162.89,118.16,167.17z M112.24,162.17c-0.88-1.91-1.56-3.39-2.24-4.88c-0.14,0.06-0.28,0.12-0.42,0.17
		c-0.1,1.63-0.2,3.27-0.31,5.12C110.28,162.45,111.07,162.34,112.24,162.17z"/>
	<path d="M139.5,139.31c1-2.46,2.39-3.1,4.56-2.02c1.12,0.56,2.38,0.82,4.07,1.38c-0.83-1.54-1.31-2.73-2.05-3.72
		c-1.4-1.88-1.31-3.41,0.91-4.84c2.69,4.19,3.4,9.79,8.64,12.35c-0.85,1.03-1.46,1.78-1.9,2.32c-2.39-1.24-4.55-2.61-6.88-3.51
		C144.55,140.39,142.06,139.97,139.5,139.31z"/>
	<path d="M134.68,146.41c-1.14,0.83-2.11,1.54-3.2,2.34c-0.54-0.67-1.06-1.3-1.75-2.16c3-2.32,5.91-4.58,8.98-6.95
		c0.59,0.7,1.11,1.31,1.76,2.07c-1.03,0.89-1.97,1.71-3.06,2.66c2.39,3.1,4.73,6.15,7.18,9.34c-0.88,0.69-1.63,1.29-2.63,2.08
		C139.51,152.64,137.13,149.56,134.68,146.41z"/>
	<path d="M96.39,140.63c1.58-3.59,0.44-5.83-2.46-7.75c3.66,0.33,5.67-1.25,6.47-4.76c0.89,3.45,2.8,5.15,6.52,4.7
		c-2.74,1.97-4.35,4.14-2.32,7.65C101.71,138.5,99.11,137.65,96.39,140.63z"/>
	<path class="st0" d="M80.55,137.55c0.85-2.51,0.13-4.27-2.12-5.67c2.48-0.22,4.48-0.71,4.82-3.77c0.93,2.51,2.16,4.16,4.29,3.55
		c-0.62,1.9-1.21,3.71-1.83,5.6c-0.41-0.2-1.39-1.01-2.37-1.02C82.41,136.24,81.48,137.08,80.55,137.55z"/>
	<path class="st0" d="M122.38,131.78c-2.03,1.59-3.15,3.23-1.7,5.9c-2.22-1.67-4.16-1.89-5.6-0.37c-0.57-1.86-1.13-3.68-1.71-5.6
		c1.64,0.06,3.56-0.58,3.98-3.51C118.28,130.52,119.56,132.1,122.38,131.78z"/>
	<path d="M96.43,69.79c1.25-3.29,0.7-5.8-2.52-7.67c3.68,0.31,5.69-1.25,6.46-4.76c1.05,3.2,2.61,5.36,6.56,4.65
		c-3.15,2-3.92,4.44-2.49,7.75C101.7,67.4,99.16,67.32,96.43,69.79z"/>
	<path d="M86.41,69.72c-2.15-1.99-4.04-1.55-6.1,0.03c0.85-2.51,0.59-4.42-1.95-5.81c2.64,0.01,4.38-0.82,4.74-4.15
		c1.29,2.54,2.07,4.77,5.23,3.89C86.34,65.39,85.23,67.09,86.41,69.72z"/>
	<path d="M122.34,63.8c-1.77,1.69-3.23,3.23-1.65,5.93c-2.2-1.43-4.09-2.09-6.14,0.05c0.57-2.44,0.51-4.48-2.06-5.85
		c2.69,0.05,4.35-0.88,4.88-3.64C118.31,62.56,119.48,64.27,122.34,63.8z"/>
	<path d="M122.34,131.8c-1.77,1.69-3.23,3.23-1.65,5.93c-2.2-1.43-4.09-2.09-6.14,0.05c0.57-2.44,0.51-4.48-2.06-5.85
		c2.69,0.05,4.35-0.88,4.88-3.64C118.31,130.56,119.48,132.27,122.34,131.8z"/>
	<path d="M88.34,131.8c-1.77,1.69-3.23,3.23-1.65,5.93c-2.2-1.43-4.09-2.09-6.14,0.05c0.57-2.44,0.51-4.48-2.06-5.85
		c2.69,0.05,4.35-0.88,4.88-3.64C84.31,130.56,85.48,132.27,88.34,131.8z"/>
	<path class="st3" d="M133.96,51.33c1.77-2.34,3.54-4.68,5.34-7.08c1.61,0.8,2.64,1.92,2.41,3.6c-0.3,2.23-1.57,4.1-3.68,4.8
		c-1.19,0.4-2.72-0.21-4.1-0.36C133.95,51.97,133.95,51.65,133.96,51.33z"/>
	<path class="st3" d="M80.29,153.6c1.69,0.97,4.11,0.75,3.37,3.42c-0.44,1.6-1.85,1.69-4.61,0.38
		C79.43,156.26,79.81,155.09,80.29,153.6z"/>
	<path class="st3" d="M93.86,161.62c0.19-2.04,0.3-3.22,0.46-4.98c1.49,0.59,2.76,0.93,3.82,1.6c0.29,0.18,0.2,1.8-0.14,1.99
		C96.91,160.83,95.63,161.07,93.86,161.62z"/>
	<path class="st3" d="M67.6,154.12c-1-0.62-1.67-1.04-2.36-1.47c1.31-1.3,2.51-2.5,4.05-4.04C68.69,150.58,68.2,152.18,67.6,154.12z
		"/>
	<path class="st3" d="M112.24,162.17c-1.17,0.16-1.96,0.27-2.97,0.41c0.11-1.85,0.21-3.48,0.31-5.12c0.14-0.06,0.28-0.12,0.42-0.17
		C110.68,158.78,111.36,160.27,112.24,162.17z"/>
</g>
</svg>
