<?xml version="1.0" encoding="UTF-8"?>
<svg id="Livello_2" data-name="Livello 2" xmlns="http://www.w3.org/2000/svg" viewBox="0 0 20 20">
  <defs>
    <style>
      .cls-1 {
        fill: #ed1c24;
        stroke-width: 0px;
      }
    </style>
  </defs>
  <g id="Livello_1-2" data-name="Livello 1">
    <path class="cls-1" d="M4.22,2c.1,0,.23.02.35.11.33.42,1.46,1.89,1.46,1.89l.06.08.07.08c.21.22.22.59,0,.81l-.06.07-.06.07-.97,1.22-.75.95.49,1.11c1.41,3.21,3.71,5.5,6.82,6.82l1.1.47.93-.75,1.22-.97.07-.06.07-.06c.14-.14.31-.16.39-.16s.25.02.39.16l.08.08.09.07s1.46,1.12,1.89,1.45c.11.14.12.28.12.36,0,.08-.02.24-.13.36l-.05.05-.05.05-.78.9c-.58.56-1.34.85-2.19.85-5.26,0-12.8-7.53-12.8-12.8,0-.87.32-1.66.93-2.26l.02-.02.76-.66.05-.05.05-.05c.14-.14.3-.17.41-.17M4.22,0c-.66,0-1.32.25-1.82.76l-.87.76h0c-1,1-1.52,2.3-1.52,3.69,0,6.36,8.43,14.8,14.8,14.8,1.4,0,2.69-.52,3.65-1.48l.83-.96c.97-.97.97-2.6-.04-3.61-.02-.02-2.03-1.57-2.03-1.57-.5-.48-1.14-.72-1.78-.72s-1.29.24-1.78.72l-1.22.97c-2.67-1.13-4.56-3.03-5.77-5.79l.97-1.22c.95-.99.95-2.57,0-3.57,0,0-1.54-2.01-1.57-2.03-.5-.5-1.16-.76-1.82-.76h0Z"/>
  </g>
</svg>