<?xml version="1.0" standalone="no"?>
<!DOCTYPE svg PUBLIC "-//W3C//DTD SVG 20010904//EN"
 "http://www.w3.org/TR/2001/REC-SVG-20010904/DTD/svg10.dtd">
<svg version="1.0" xmlns="http://www.w3.org/2000/svg"
 width="100.000000pt" height="100.000000pt" viewBox="0 0 100.000000 100.000000"
 preserveAspectRatio="xMidYMid meet">

<g transform="translate(0.000000,100.000000) scale(0.100000,-0.100000)"
fill="#000000" stroke="none">
<path d="M126 951 l-49 -50 22 -50 c34 -80 36 -124 10 -231 -28 -112 -32 -264
-10 -320 44 -108 129 -181 295 -253 l106 -47 106 47 c163 71 247 142 293 248
22 50 25 171 6 255 -41 187 -41 191 -12 277 l26 78 -48 48 -48 48 -44 -23
c-62 -32 -176 -33 -237 -1 l-42 23 -43 -23 c-60 -31 -174 -31 -235 1 -23 12
-44 22 -45 22 -2 0 -25 -22 -51 -49z m97 -18 c45 -24 188 -24 238 0 33 17 37
17 75 0 57 -24 187 -24 242 1 l43 20 26 -26 26 -26 -23 -73 c-22 -67 -23 -78
-12 -148 7 -42 19 -105 27 -141 32 -143 13 -238 -67 -325 -43 -48 -72 -67
-175 -116 -93 -45 -127 -57 -140 -50 -10 5 -66 32 -124 60 -215 101 -275 227
-219 459 34 142 36 183 10 262 l-23 71 23 24 c28 30 32 30 73 8z"/>
<path d="M455 686 c-37 -78 -48 -86 -129 -86 -43 0 -76 -10 -76 -23 0 -6 27
-36 60 -67 l60 -55 -15 -65 c-26 -116 -20 -121 76 -65 33 19 64 35 69 35 5 0
36 -16 69 -35 64 -37 91 -44 91 -21 0 8 -7 45 -16 83 l-16 68 64 58 c60 55 62
59 44 73 -11 7 -36 14 -57 14 -87 0 -98 7 -134 86 -19 41 -39 74 -45 74 -6 0
-27 -33 -45 -74z m74 -60 l22 -54 65 -7 65 -7 -47 -41 c-44 -39 -46 -43 -40
-81 3 -23 9 -52 12 -65 7 -24 7 -24 -49 8 l-57 32 -56 -32 c-57 -32 -57 -32
-51 -8 3 13 9 43 13 65 6 40 4 43 -41 80 l-46 39 63 10 63 10 24 53 c14 28 27
52 31 52 3 0 16 -24 29 -54z"/>
</g>
</svg>
