<?xml version="1.0" encoding="utf-8"?>
<!-- Generator: Adobe Illustrator 25.0.0, SVG Export Plug-In . SVG Version: 6.00 Build 0)  -->
<svg version="1.1" id="Livello_1" xmlns="http://www.w3.org/2000/svg" xmlns:xlink="http://www.w3.org/1999/xlink" x="0px" y="0px"
	 viewBox="0 0 200 200" style="enable-background:new 0 0 200 200;" xml:space="preserve">
<style type="text/css">
	.st0{display:none;fill:#FFFFFF;}
</style>
<g>
	<path class="st0" d="M198,198c-65.01,0-130.01,0-195,0C3,132.99,3,67.99,3,3c65.01,0,130.01,0,195,0C198,68.01,198,133.01,198,198z
		 M118.73,91.26c-0.66-2.52-1.15-4.38-1.64-6.24c-1.31-4.97-5.34-7.26-10.25-5.83c-5.65,1.64-11.32,3.2-16.93,4.96
		c-1.58,0.5-2.45,0.07-3.51-0.99C62.9,59.6,39.37,36.07,15.84,12.53c-0.69-0.69-1.34-1.43-2.12-2c-1.29-0.95-3.3-0.73-4.49,0.37
		c-1.22,1.14-1.48,3.01-0.47,4.43c0.63,0.89,1.45,1.66,2.22,2.44C22.83,29.6,34.68,41.41,46.52,53.24
		c22.07,22.05,44.14,44.11,66.21,66.17c20.27,20.28,40.53,40.56,60.8,60.85c4.17,4.18,8.34,8.36,12.52,12.52
		c1.75,1.74,3.82,1.85,5.33,0.36c1.6-1.59,1.51-3.37-0.28-5.3c-0.66-0.71-1.37-1.38-2.06-2.07c-20.46-20.46-40.9-40.93-61.4-61.35
		c-1.2-1.2-1.3-1.97-0.35-3.4c13.61-20.45,27.15-40.94,40.71-61.43c1.67-2.52,3.31-5.05,5.03-7.67c-5.13-2.64-10.07-5.07-14.9-7.71
		c-1.57-0.86-2.36-0.74-3.46,0.69c-10.17,13.27-20.42,26.49-30.66,39.72C122.41,86.68,120.75,88.72,118.73,91.26z M112.82,129.97
		c-0.44-0.51-0.67-0.81-0.94-1.08c-7.24-7.25-14.58-14.41-21.66-21.81c-2.07-2.16-3.93-2.98-6.64-1.67c-1.43,0.7-1.97,0.07-2.38-1.4
		c-1.23-4.39-2.27-8.76-6.09-12.04c-3.67-3.15-3.66-3.48-8.1-1.38c-7.71,3.65-9.91,12.28-4.91,19.24c0.41,0.57,0.77,1.17,1.19,1.8
		c-0.56,0.62-1.02,1.15-1.51,1.66c-15.16,15.83-30.36,31.63-45.45,47.53c-1.65,1.74-3.05,3.89-4,6.1c-1.28,3,0.06,6.13,2.97,8.3
		c2.07,1.54,5.18,1.55,7.62-0.26c1.92-1.42,3.73-3.02,5.42-4.71c9.03-9.03,18.01-18.13,27.03-27.17c0.51-0.52,1.24-0.97,1.94-1.13
		c10.81-2.36,21.63-4.67,32.44-6.99C97.33,133.33,104.9,131.69,112.82,129.97z M23.14,109.35c-0.44,7.44,6.05,14.6,14.43,14.68
		c7.89,0.08,14.5-6.42,14.6-14.38c0.1-8.03-6.4-14.73-14.4-14.81C30.31,94.76,22.84,101.04,23.14,109.35z M177.31,45.41
		c4.95-8.35,9.87-16.65,14.77-24.95c0.83-1.4,0.62-3.01-0.48-3.94c-0.97-0.83-2.66-1.6-3.78-1.33c-5.35,1.3-10.91,2.6-14.83,6.74
		c-4.37,4.62-8.22,9.73-12.47,14.83C166.38,39.78,171.77,42.56,177.31,45.41z"/>
	<path d="M118.73,91.26c2.02-2.54,3.68-4.58,5.29-6.65c10.24-13.23,20.48-26.44,30.66-39.72c1.1-1.44,1.89-1.55,3.46-0.69
		c4.83,2.64,9.76,5.08,14.9,7.71c-1.72,2.62-3.37,5.15-5.03,7.67c-13.56,20.49-27.1,40.98-40.71,61.43c-0.95,1.43-0.85,2.2,0.35,3.4
		c20.49,20.42,40.94,40.89,61.4,61.35c0.69,0.69,1.39,1.36,2.06,2.07c1.79,1.93,1.88,3.72,0.28,5.3c-1.51,1.5-3.58,1.39-5.33-0.36
		c-4.19-4.16-8.35-8.34-12.52-12.52c-20.27-20.28-40.52-40.57-60.8-60.85C90.67,97.35,68.59,75.29,46.52,53.24
		C34.68,41.41,22.83,29.6,10.99,17.77c-0.78-0.78-1.59-1.55-2.22-2.44c-1.01-1.42-0.75-3.29,0.47-4.43c1.18-1.11,3.2-1.33,4.49-0.37
		c0.77,0.57,1.43,1.31,2.12,2C39.37,36.07,62.9,59.6,86.4,83.17c1.06,1.06,1.93,1.49,3.51,0.99c5.61-1.77,11.28-3.32,16.93-4.96
		c4.91-1.43,8.94,0.85,10.25,5.83C117.58,86.88,118.07,88.74,118.73,91.26z M93.91,90.11c0.24,0.44,0.32,0.7,0.49,0.87
		c2.76,2.82,5.53,5.64,8.33,8.42c0.29,0.28,0.83,0.59,1.16,0.5c3.14-0.8,6.27-1.69,9.48-2.58c-1.05-3.73-1.99-7.2-3.06-10.63
		c-0.12-0.38-1.05-0.87-1.46-0.76C103.93,87.25,99.05,88.66,93.91,90.11z"/>
	<path d="M112.82,129.97c-7.93,1.72-15.49,3.36-23.07,4.99c-10.82,2.33-21.64,4.63-32.44,6.99c-0.7,0.15-1.43,0.61-1.94,1.13
		c-9.02,9.04-18,18.14-27.03,27.17c-1.69,1.69-3.5,3.29-5.42,4.71c-2.44,1.81-5.55,1.8-7.62,0.26c-2.91-2.17-4.25-5.3-2.97-8.3
		c0.94-2.21,2.34-4.36,4-6.1c15.09-15.9,30.29-31.7,45.45-47.53c0.49-0.51,0.95-1.04,1.51-1.66c-0.41-0.63-0.78-1.23-1.19-1.8
		c-5-6.96-2.8-15.59,4.91-19.24c4.43-2.1,4.42-1.76,8.1,1.38c3.82,3.27,4.87,7.65,6.09,12.04c0.41,1.48,0.95,2.1,2.38,1.4
		c2.71-1.32,4.57-0.49,6.64,1.67c7.09,7.4,14.43,14.56,21.66,21.81C112.15,129.16,112.38,129.46,112.82,129.97z M71.64,96.1
		c-4.43,1.6-6.26,4.82-4.84,8.21c1.32,3.15,5.1,4.72,8.11,3.22C73.82,103.74,72.73,99.93,71.64,96.1z"/>
	<path d="M23.14,109.35c-0.3-8.31,7.17-14.59,14.63-14.51c7.99,0.08,14.5,6.78,14.4,14.81c-0.1,7.96-6.71,14.46-14.6,14.38
		C29.18,123.95,22.7,116.79,23.14,109.35z"/>
	<path d="M177.31,45.41c-5.54-2.86-10.92-5.63-16.78-8.65c4.25-5.1,8.1-10.21,12.47-14.83c3.92-4.14,9.48-5.44,14.83-6.74
		c1.11-0.27,2.8,0.51,3.78,1.33c1.1,0.93,1.31,2.54,0.48,3.94C187.18,28.77,182.26,37.06,177.31,45.41z"/>
	<path class="st0" d="M93.91,90.11c5.14-1.45,10.02-2.86,14.94-4.17c0.41-0.11,1.34,0.37,1.46,0.76c1.07,3.43,2.01,6.9,3.06,10.63
		c-3.21,0.88-6.33,1.77-9.48,2.58c-0.33,0.08-0.88-0.22-1.16-0.5c-2.8-2.79-5.56-5.6-8.33-8.42C94.23,90.81,94.15,90.55,93.91,90.11
		z"/>
	<path class="st0" d="M71.64,96.1c1.1,3.83,2.19,7.64,3.27,11.42c-3.01,1.5-6.79-0.06-8.11-3.22C65.38,100.92,67.21,97.7,71.64,96.1
		z"/>
</g>
</svg>
