<?xml version="1.0" standalone="no"?>
<!DOCTYPE svg PUBLIC "-//W3C//DTD SVG 20010904//EN"
 "http://www.w3.org/TR/2001/REC-SVG-20010904/DTD/svg10.dtd">
<svg version="1.0" xmlns="http://www.w3.org/2000/svg"
 width="100.000000pt" height="100.000000pt" viewBox="0 0 100.000000 100.000000"
 preserveAspectRatio="xMidYMid meet">

<g transform="translate(0.000000,100.000000) scale(0.100000,-0.100000)"
fill="#000000" stroke="none">
<path d="M17 822 c-15 -16 -17 -52 -17 -300 0 -269 1 -283 20 -302 15 -15 33
-20 70 -20 43 0 52 -3 59 -23 18 -45 59 -72 111 -72 52 0 93 27 111 73 8 21
12 22 159 22 147 0 151 -1 159 -22 18 -46 59 -73 111 -73 52 0 93 27 111 73 5
13 17 22 29 22 11 0 29 9 41 21 19 19 20 30 17 149 l-3 128 -40 58 c-22 32
-58 78 -81 101 l-41 43 -106 0 -107 0 0 50 c0 37 -5 55 -20 70 -19 19 -33 20
-293 20 -253 0 -275 -1 -290 -18z m561 -304 l2 -278 -100 0 c-95 0 -101 1
-109 23 -18 45 -59 72 -111 72 -52 0 -93 -27 -111 -73 -8 -20 -15 -23 -56 -20
l-48 3 -3 278 -2 277 267 -2 268 -3 3 -277z m142 42 c0 -136 4 -140 140 -140
l101 0 -3 -87 c-3 -74 -6 -88 -20 -91 -11 -2 -21 5 -27 20 -18 46 -59 73 -111
73 -52 0 -93 -27 -111 -72 -6 -17 -17 -23 -39 -23 l-30 0 0 203 c0 112 3 207
7 210 3 4 26 7 50 7 l43 0 0 -100z m126 68 c48 -52 92 -113 104 -142 l10 -27
-98 3 -97 3 -3 98 -3 97 29 0 c19 0 38 -11 58 -32z m-531 -353 c50 -49 15
-135 -55 -135 -41 0 -80 39 -80 80 0 19 9 40 25 55 15 16 36 25 55 25 19 0 40
-9 55 -25z m540 0 c50 -49 15 -135 -55 -135 -41 0 -80 39 -80 80 0 41 39 80
80 80 19 0 40 -9 55 -25z"/>
<path d="M232 749 c-48 -14 -109 -80 -123 -131 -23 -89 12 -182 88 -229 57
-36 154 -34 210 3 62 41 88 90 88 168 0 77 -26 127 -85 166 -43 29 -125 39
-178 23z m164 -64 c113 -86 64 -266 -78 -282 -58 -7 -108 15 -144 63 -24 31
-29 47 -29 94 0 46 5 63 27 92 56 74 152 88 224 33z"/>
<path d="M280 626 c0 -51 -3 -57 -34 -81 -21 -16 -33 -32 -29 -41 8 -21 21
-17 64 17 38 30 39 32 39 95 0 57 -2 64 -20 64 -18 0 -20 -7 -20 -54z"/>
</g>
</svg>
