<?xml version="1.0" standalone="no"?>
<!DOCTYPE svg PUBLIC "-//W3C//DTD SVG 20010904//EN"
 "http://www.w3.org/TR/2001/REC-SVG-20010904/DTD/svg10.dtd">
<svg version="1.0" xmlns="http://www.w3.org/2000/svg"
 width="100.000000pt" height="100.000000pt" viewBox="0 0 100.000000 100.000000"
 preserveAspectRatio="xMidYMid meet">

<g transform="translate(0.000000,100.000000) scale(0.100000,-0.100000)"
fill="#000000" stroke="none">
<path d="M462 959 c-11 -17 -19 -19 -58 -13 -49 7 -70 -4 -85 -43 -6 -17 -16
-23 -37 -23 -35 0 -62 -27 -62 -64 0 -18 -7 -29 -23 -35 -38 -15 -50 -36 -42
-80 5 -32 3 -43 -14 -60 -26 -26 -27 -48 -4 -74 12 -13 18 -36 18 -71 0 -48 2
-52 32 -66 28 -13 33 -20 33 -52 0 -27 7 -42 26 -57 l26 -21 -36 -85 c-20 -46
-39 -92 -43 -101 -5 -15 1 -16 65 -9 l71 7 37 -56 c20 -31 39 -54 43 -52 4 3
24 48 46 100 22 53 43 96 46 96 3 0 23 -43 44 -96 21 -52 42 -97 45 -99 4 -3
24 21 45 51 l39 56 68 -7 c37 -4 68 -4 68 -1 0 3 -20 51 -45 107 l-45 101 30
28 c17 16 30 39 30 52 0 16 10 27 33 38 30 14 32 18 32 66 0 35 6 58 18 71 23
26 22 48 -4 74 -17 17 -19 28 -14 60 8 44 -4 65 -42 80 -17 6 -23 16 -23 37 0
35 -27 62 -64 62 -18 0 -29 7 -35 23 -15 39 -37 50 -84 43 -36 -6 -46 -3 -62
14 -23 26 -57 26 -73 -1z m74 -34 c20 -19 31 -22 45 -15 35 19 59 11 76 -24
13 -29 22 -35 52 -38 33 -3 36 -6 39 -39 3 -30 9 -39 38 -52 36 -17 40 -30 25
-70 -7 -19 -4 -30 15 -52 13 -15 24 -31 24 -34 0 -2 -12 -17 -26 -32 -21 -22
-24 -30 -15 -47 20 -38 13 -61 -24 -76 -28 -12 -35 -20 -35 -43 0 -37 -16 -53
-53 -53 -23 0 -31 -7 -43 -35 -15 -37 -28 -42 -69 -23 -22 10 -29 8 -55 -17
l-30 -29 -30 29 c-26 25 -33 27 -55 17 -39 -18 -53 -15 -70 17 -12 24 -23 30
-52 33 -37 3 -38 4 -41 46 -3 39 -7 45 -38 58 -36 15 -43 38 -23 76 9 17 6 25
-15 47 -14 15 -26 30 -26 32 0 3 11 19 24 34 19 22 22 33 15 52 -15 40 -11 53
25 70 29 13 35 22 38 52 3 33 6 36 39 39 30 3 39 9 52 38 17 35 41 43 76 24
14 -7 25 -4 45 15 15 14 31 25 36 25 5 0 21 -11 36 -25z m193 -702 c17 -40 31
-76 31 -82 0 -6 -19 -8 -48 -4 -48 5 -49 5 -78 -36 -16 -22 -32 -41 -35 -41
-6 0 -69 150 -69 166 0 6 9 19 19 28 15 14 24 15 40 7 35 -19 61 -13 79 19 9
16 20 26 24 22 4 -4 21 -39 37 -79z m-395 52 c18 -27 45 -32 77 -14 16 8 25 7
40 -7 10 -9 19 -22 19 -28 0 -16 -63 -166 -69 -166 -3 0 -19 19 -35 41 -29 41
-30 41 -78 36 -28 -4 -48 -2 -48 4 0 17 63 159 70 159 4 0 15 -11 24 -25z"/>
<path d="M440 850 c0 -5 5 -10 10 -10 6 0 10 5 10 10 0 6 -4 10 -10 10 -5 0
-10 -4 -10 -10z"/>
<path d="M505 850 c3 -5 10 -10 16 -10 5 0 9 5 9 10 0 6 -7 10 -16 10 -8 0
-12 -4 -9 -10z"/>
<path d="M570 840 c0 -5 5 -10 10 -10 6 0 10 5 10 10 0 6 -4 10 -10 10 -5 0
-10 -4 -10 -10z"/>
<path d="M380 830 c0 -5 5 -10 10 -10 6 0 10 5 10 10 0 6 -4 10 -10 10 -5 0
-10 -4 -10 -10z"/>
<path d="M625 810 c4 -6 11 -8 16 -5 14 9 11 15 -7 15 -8 0 -12 -5 -9 -10z"/>
<path d="M330 795 c0 -8 5 -15 10 -15 6 0 10 7 10 15 0 8 -4 15 -10 15 -5 0
-10 -7 -10 -15z"/>
<path d="M670 770 c0 -5 5 -10 10 -10 6 0 10 5 10 10 0 6 -4 10 -10 10 -5 0
-10 -4 -10 -10z"/>
<path d="M290 750 c0 -5 5 -10 10 -10 6 0 10 5 10 10 0 6 -4 10 -10 10 -5 0
-10 -4 -10 -10z"/>
<path d="M710 720 c0 -5 5 -10 10 -10 6 0 10 5 10 10 0 6 -4 10 -10 10 -5 0
-10 -4 -10 -10z"/>
<path d="M260 694 c0 -8 5 -12 10 -9 6 4 8 11 5 16 -9 14 -15 11 -15 -7z"/>
<path d="M548 623 l-88 -88 -44 44 c-29 28 -50 42 -60 38 -25 -10 -20 -19 44
-82 l60 -59 100 99 c92 92 112 123 85 132 -6 2 -49 -36 -97 -84z"/>
<path d="M735 671 c-3 -5 -1 -12 5 -16 5 -3 10 1 10 9 0 18 -6 21 -15 7z"/>
<path d="M240 630 c0 -5 5 -10 10 -10 6 0 10 5 10 10 0 6 -4 10 -10 10 -5 0
-10 -4 -10 -10z"/>
<path d="M740 600 c0 -5 5 -10 10 -10 6 0 10 5 10 10 0 6 -4 10 -10 10 -5 0
-10 -4 -10 -10z"/>
<path d="M240 570 c0 -5 5 -10 10 -10 6 0 10 5 10 10 0 6 -4 10 -10 10 -5 0
-10 -4 -10 -10z"/>
<path d="M730 540 c0 -5 5 -10 10 -10 6 0 10 5 10 10 0 6 -4 10 -10 10 -5 0
-10 -4 -10 -10z"/>
<path d="M260 510 c0 -5 5 -10 10 -10 6 0 10 5 10 10 0 6 -4 10 -10 10 -5 0
-10 -4 -10 -10z"/>
<path d="M710 480 c0 -5 5 -10 10 -10 6 0 10 5 10 10 0 6 -4 10 -10 10 -5 0
-10 -4 -10 -10z"/>
<path d="M290 454 c0 -8 5 -12 10 -9 6 4 8 11 5 16 -9 14 -15 11 -15 -7z"/>
<path d="M670 430 c0 -5 5 -10 10 -10 6 0 10 5 10 10 0 6 -4 10 -10 10 -5 0
-10 -4 -10 -10z"/>
<path d="M330 410 c0 -5 5 -10 10 -10 6 0 10 5 10 10 0 6 -4 10 -10 10 -5 0
-10 -4 -10 -10z"/>
<path d="M620 390 c0 -5 5 -10 10 -10 6 0 10 5 10 10 0 6 -4 10 -10 10 -5 0
-10 -4 -10 -10z"/>
<path d="M385 381 c-3 -5 -1 -12 5 -16 5 -3 10 1 10 9 0 18 -6 21 -15 7z"/>
<path d="M570 366 c0 -9 5 -16 10 -16 6 0 10 4 10 9 0 6 -4 13 -10 16 -5 3
-10 -1 -10 -9z"/>
<path d="M445 361 c-3 -5 -1 -12 5 -16 5 -3 10 1 10 9 0 18 -6 21 -15 7z"/>
<path d="M505 350 c3 -5 10 -10 16 -10 5 0 9 5 9 10 0 6 -7 10 -16 10 -8 0
-12 -4 -9 -10z"/>
</g>
</svg>
