<?xml version="1.0" encoding="UTF-8"?>
<svg id="Livello_2" data-name="Livello 2" xmlns="http://www.w3.org/2000/svg" viewBox="0 0 20 20">
  <defs>
    <style>
      .cls-1 {
        fill: #25d266;
        fill-rule: evenodd;
        stroke-width: 0px;
      }
    </style>
  </defs>
  <g id="Livello_1-2" data-name="Livello 1">
    <path class="cls-1" d="M20,9.74c0,5.38-4.4,9.74-9.82,9.74-1.72,0-3.34-.44-4.75-1.21l-5.44,1.73,1.77-5.23c-.89-1.47-1.41-3.19-1.41-5.03C.36,4.36,4.76,0,10.18,0s9.82,4.36,9.82,9.74h0ZM10.18,1.55C5.63,1.55,1.93,5.23,1.93,9.74c0,1.79.58,3.45,1.57,4.8l-1.03,3.04,3.17-1.01c1.3.85,2.86,1.35,4.54,1.35,4.55,0,8.25-3.67,8.25-8.19S14.73,1.55,10.18,1.55h0ZM15.14,11.99c-.06-.1-.22-.16-.46-.28-.24-.12-1.42-.7-1.64-.78-.22-.08-.38-.12-.54.12-.16.24-.62.78-.76.94-.14.16-.28.18-.52.06-.24-.12-1.02-.37-1.94-1.18-.71-.63-1.2-1.42-1.34-1.65-.14-.24-.01-.37.11-.49.11-.11.24-.28.36-.42.12-.14.16-.24.24-.4.08-.16.04-.3-.02-.42-.06-.12-.54-1.29-.74-1.77-.2-.48-.4-.46-.54-.46s-.4.04-.4.04c0,0-.48.06-.7.3-.22.24-.84.82-.84,1.99s.86,2.31.98,2.47c.12.16,1.66,2.65,4.11,3.61,2.45.96,2.45.64,2.89.6.44-.04,1.42-.58,1.62-1.13.2-.56.2-1.04.14-1.14h0Z"/>
  </g>
</svg>