<?xml version="1.0" encoding="utf-8"?>
<!-- Generator: Adobe Illustrator 25.0.0, SVG Export Plug-In . SVG Version: 6.00 Build 0)  -->
<svg version="1.1" id="Livello_1" xmlns="http://www.w3.org/2000/svg" xmlns:xlink="http://www.w3.org/1999/xlink" x="0px" y="0px"
	 viewBox="0 0 200 200" style="enable-background:new 0 0 200 200;" xml:space="preserve">
<style type="text/css">
	.st0{fill:none;}
	.st1{display:none;}
	.st2{fill:#FFFFFF;}
	.st3{display:inline;}
	.st4{display:none;fill:#FFFFFF;}
</style>
<symbol  id="Freccia_25" viewBox="-22.9 -13.1 45.7 26.3">
	<rect x="-22.9" y="-13.1" class="st0" width="45.7" height="26.3"/>
	<g>
		<polygon points="-22.9,-3.2 0.1,-3.2 0.1,-13.1 22.9,0 0.1,13.1 0.1,3.2 -22.9,3.2 		"/>
	</g>
</symbol>
<g class="st1">
	<path class="st2" d="M198,198c-65,0-130,0-195,0C3,133,3,68,3,3c65,0,130,0,195,0C198,68,198,133,198,198z M118.7,91.3
		c-0.7-2.5-1.2-4.4-1.6-6.2c-1.3-5-5.3-7.3-10.2-5.8c-5.7,1.6-11.3,3.2-16.9,5c-1.6,0.5-2.4,0.1-3.5-1c-23.5-23.6-47-47.1-70.6-70.6
		c-0.7-0.7-1.3-1.4-2.1-2c-1.3-0.9-3.3-0.7-4.5,0.4c-1.2,1.1-1.5,3-0.5,4.4c0.6,0.9,1.4,1.7,2.2,2.4c11.8,11.8,23.7,23.6,35.5,35.5
		c22.1,22.1,44.1,44.1,66.2,66.2c20.3,20.3,40.5,40.6,60.8,60.8c4.2,4.2,8.3,8.4,12.5,12.5c1.8,1.7,3.8,1.9,5.3,0.4
		c1.6-1.6,1.5-3.4-0.3-5.3c-0.7-0.7-1.4-1.4-2.1-2.1c-20.5-20.5-40.9-40.9-61.4-61.3c-1.2-1.2-1.3-2-0.3-3.4
		c13.6-20.4,27.1-40.9,40.7-61.4c1.7-2.5,3.3-5,5-7.7c-5.1-2.6-10.1-5.1-14.9-7.7c-1.6-0.9-2.4-0.7-3.5,0.7
		c-10.2,13.3-20.4,26.5-30.7,39.7C122.4,86.7,120.8,88.7,118.7,91.3z M112.8,130c-0.4-0.5-0.7-0.8-0.9-1.1
		c-7.2-7.2-14.6-14.4-21.7-21.8c-2.1-2.2-3.9-3-6.6-1.7c-1.4,0.7-2,0.1-2.4-1.4c-1.2-4.4-2.3-8.8-6.1-12c-3.7-3.2-3.7-3.5-8.1-1.4
		c-7.7,3.7-9.9,12.3-4.9,19.2c0.4,0.6,0.8,1.2,1.2,1.8c-0.6,0.6-1,1.2-1.5,1.7c-15.2,15.8-30.4,31.6-45.5,47.5
		c-1.6,1.7-3.1,3.9-4,6.1c-1.3,3,0.1,6.1,3,8.3c2.1,1.5,5.2,1.6,7.6-0.3c1.9-1.4,3.7-3,5.4-4.7c9-9,18-18.1,27-27.2
		c0.5-0.5,1.2-1,1.9-1.1c10.8-2.4,21.6-4.7,32.4-7C97.3,133.3,104.9,131.7,112.8,130z M23.1,109.4c-0.4,7.4,6,14.6,14.4,14.7
		c7.9,0.1,14.5-6.4,14.6-14.4c0.1-8-6.4-14.7-14.4-14.8C30.3,94.8,22.8,101,23.1,109.4z M177.3,45.4c4.9-8.4,9.9-16.6,14.8-25
		c0.8-1.4,0.6-3-0.5-3.9c-1-0.8-2.7-1.6-3.8-1.3c-5.4,1.3-10.9,2.6-14.8,6.7c-4.4,4.6-8.2,9.7-12.5,14.8
		C166.4,39.8,171.8,42.6,177.3,45.4z"/>
	<path class="st3" d="M118.7,91.3c2-2.5,3.7-4.6,5.3-6.7c10.2-13.2,20.5-26.4,30.7-39.7c1.1-1.4,1.9-1.5,3.5-0.7
		c4.8,2.6,9.8,5.1,14.9,7.7c-1.7,2.6-3.4,5.2-5,7.7c-13.6,20.5-27.1,41-40.7,61.4c-0.9,1.4-0.8,2.2,0.3,3.4
		c20.5,20.4,40.9,40.9,61.4,61.3c0.7,0.7,1.4,1.4,2.1,2.1c1.8,1.9,1.9,3.7,0.3,5.3c-1.5,1.5-3.6,1.4-5.3-0.4
		c-4.2-4.2-8.4-8.3-12.5-12.5c-20.3-20.3-40.5-40.6-60.8-60.8C90.7,97.4,68.6,75.3,46.5,53.2C34.7,41.4,22.8,29.6,11,17.8
		c-0.8-0.8-1.6-1.5-2.2-2.4c-1-1.4-0.8-3.3,0.5-4.4c1.2-1.1,3.2-1.3,4.5-0.4c0.8,0.6,1.4,1.3,2.1,2c23.5,23.5,47.1,47.1,70.6,70.6
		c1.1,1.1,1.9,1.5,3.5,1c5.6-1.8,11.3-3.3,16.9-5c4.9-1.4,8.9,0.8,10.2,5.8C117.6,86.9,118.1,88.7,118.7,91.3z M93.9,90.1
		c0.2,0.4,0.3,0.7,0.5,0.9c2.8,2.8,5.5,5.6,8.3,8.4c0.3,0.3,0.8,0.6,1.2,0.5c3.1-0.8,6.3-1.7,9.5-2.6c-1.1-3.7-2-7.2-3.1-10.6
		c-0.1-0.4-1.1-0.9-1.5-0.8C103.9,87.3,99.1,88.7,93.9,90.1z"/>
	<path class="st3" d="M112.8,130c-7.9,1.7-15.5,3.4-23.1,5c-10.8,2.3-21.6,4.6-32.4,7c-0.7,0.1-1.4,0.6-1.9,1.1
		c-9,9-18,18.1-27,27.2c-1.7,1.7-3.5,3.3-5.4,4.7c-2.4,1.8-5.5,1.8-7.6,0.3c-2.9-2.2-4.2-5.3-3-8.3c0.9-2.2,2.3-4.4,4-6.1
		c15.1-15.9,30.3-31.7,45.5-47.5c0.5-0.5,1-1,1.5-1.7c-0.4-0.6-0.8-1.2-1.2-1.8c-5-7-2.8-15.6,4.9-19.2c4.4-2.1,4.4-1.8,8.1,1.4
		c3.8,3.3,4.9,7.7,6.1,12c0.4,1.5,0.9,2.1,2.4,1.4c2.7-1.3,4.6-0.5,6.6,1.7c7.1,7.4,14.4,14.6,21.7,21.8
		C112.2,129.2,112.4,129.5,112.8,130z M71.6,96.1c-4.4,1.6-6.3,4.8-4.8,8.2c1.3,3.2,5.1,4.7,8.1,3.2C73.8,103.7,72.7,99.9,71.6,96.1
		z"/>
	<path class="st3" d="M23.1,109.4c-0.3-8.3,7.2-14.6,14.6-14.5c8,0.1,14.5,6.8,14.4,14.8c-0.1,8-6.7,14.5-14.6,14.4
		C29.2,124,22.7,116.8,23.1,109.4z"/>
	<path class="st3" d="M177.3,45.4c-5.5-2.9-10.9-5.6-16.8-8.6c4.2-5.1,8.1-10.2,12.5-14.8c3.9-4.1,9.5-5.4,14.8-6.7
		c1.1-0.3,2.8,0.5,3.8,1.3c1.1,0.9,1.3,2.5,0.5,3.9C187.2,28.8,182.3,37.1,177.3,45.4z"/>
	<path class="st2" d="M93.9,90.1c5.1-1.4,10-2.9,14.9-4.2c0.4-0.1,1.3,0.4,1.5,0.8c1.1,3.4,2,6.9,3.1,10.6c-3.2,0.9-6.3,1.8-9.5,2.6
		c-0.3,0.1-0.9-0.2-1.2-0.5c-2.8-2.8-5.6-5.6-8.3-8.4C94.2,90.8,94.2,90.6,93.9,90.1z"/>
	<path class="st2" d="M71.6,96.1c1.1,3.8,2.2,7.6,3.3,11.4c-3,1.5-6.8-0.1-8.1-3.2C65.4,100.9,67.2,97.7,71.6,96.1z"/>
</g>
<g>
	<path class="st4" d="M-6,198.7c0-54.6,0-109.2,0-163.9c54.6,0,109.2,0,163.9,0c0,54.6,0,109.2,0,163.9
		C103.3,198.7,48.7,198.7-6,198.7z M136.4,63c-8-3.6-15.4-7.5-23.3-10.3c-3.9-1.4-8.9-1.9-12.9-0.8c-5.6,1.6-10.7,5-16,7.7
		C79.2,62.2,74,63,68.6,60.4c-5.7-2.8-11.2-6.2-17.2-8.1c-4-1.2-9-1.4-12.9,0c-8.1,2.9-15.7,7.1-23.8,10.9c0,3.6,0,7.9,0,12.7
		c2.3-0.4,4.4-0.4,6.2-1.1c5-2,10-4.1,14.8-6.6c6.2-3.2,12.1-3.5,18.2-0.1c1.7,0.9,3.4,1.7,5,2.7c11.1,6.5,22.3,6.7,33.1-0.1
		c9.6-6.1,18.6-6.5,28,0.1c1.5,1.1,3.3,1.9,5.1,2.5c3.5,1.1,7.2,1.9,11.2,3C136.4,71.1,136.4,66.9,136.4,63z M14.6,177.4
		c6.5,0.7,12-2,16.9-5.1c9.2-5.9,18-6.1,26.9,0.2c0.6,0.4,1.2,0.6,1.8,1c10,5.6,20.5,6.3,30.1,0.1c10.9-7.1,20.9-7.3,31.7,0
		c4.1,2.7,9,4.9,14.4,3.8c0-4.6,0-8.8,0-12.3c-4.5-2.1-8.6-3.5-12.3-5.7c-12-7.1-24-7.4-35.7,0.1c-8.6,5.5-16.9,5.9-25.4,0
		c-0.8-0.5-1.7-0.9-2.5-1.3c-9.8-5.3-19.6-5.7-29.6-0.7c-5.3,2.6-10.7,5.1-16.2,7.8C14.6,168.8,14.6,173,14.6,177.4z M14.7,143.2
		c4.9,0.5,9.1-0.1,15.9-4.5c9.8-6.3,19.2-6.6,28.7,0.2c0.4,0.3,0.9,0.6,1.4,0.8c8,4,16.2,5.4,24.7,2c4-1.6,7.9-3.6,11.7-5.7
		c6-3.3,11.8-3.4,17.8-0.1c3.3,1.8,6.6,3.8,10.2,5.1c3.5,1.3,7.3,2,11.3,3c0-5.3,0-9.4,0-13c-4.4-2-8.7-3.5-12.5-5.7
		c-12-7.1-24-7.4-35.7,0.2c-8.7,5.5-16.9,5.9-25.4,0c-0.9-0.6-1.9-1-2.9-1.5c-9.5-5-19.1-5.4-28.9-0.6c-5.4,2.7-10.9,5.2-16.5,7.9
		C14.7,134.9,14.7,139,14.7,143.2z M136.5,97.1c-5.2-2.4-10-4.5-14.7-6.9c-8.2-4.3-16.6-6-25.5-2.6c-4,1.6-7.9,3.6-11.7,5.7
		c-6.1,3.4-12.1,3.5-18.2,0c-1.2-0.7-2.4-1.2-3.6-1.9c-11.9-7.2-23.8-7.2-35.8-0.1c-3.8,2.2-8,3.7-12.4,5.7c0,3.7,0,8,0,12.5
		c6,0.1,11.4-1.7,15.9-4.8c9.7-6.5,19.1-6.7,28.7,0.1c0.4,0.3,0.9,0.6,1.4,0.8c8,4,16.2,5.5,24.8,2.1c4-1.6,7.9-3.6,11.7-5.7
		c6-3.3,11.9-3.3,17.8,0c3.3,1.8,6.6,3.8,10.2,5.1c3.5,1.3,7.3,2,11.3,3C136.5,104.8,136.5,100.6,136.5,97.1z"/>
	<path d="M136.4,63c0,3.9,0,8.1,0,13.1c-4.1-1.1-7.7-1.9-11.2-3c-1.8-0.6-3.6-1.4-5.1-2.5c-9.3-6.5-18.4-6.2-28-0.1
		c-10.8,6.9-22,6.6-33.1,0.1c-1.6-1-3.4-1.7-5-2.7c-6.1-3.4-12-3.2-18.2,0.1c-4.8,2.5-9.8,4.6-14.8,6.6c-1.8,0.7-3.9,0.7-6.2,1.1
		c0-4.8,0-9,0-12.7c8.1-3.8,15.7-8,23.8-10.9c3.9-1.4,8.9-1.2,12.9,0c6,1.9,11.5,5.3,17.2,8.1c5.4,2.6,10.5,1.8,15.6-0.8
		c5.3-2.7,10.4-6.1,16-7.7c3.9-1.1,8.9-0.6,12.9,0.8C121,55.5,128.4,59.4,136.4,63z"/>
	<path class="st1" d="M14.6,177.4c0-4.4,0-8.5,0-12.3c5.5-2.6,10.9-5.1,16.2-7.8c10-5,19.9-4.6,29.6,0.7c0.8,0.5,1.7,0.8,2.5,1.3
		c8.5,5.9,16.7,5.5,25.4,0c11.8-7.5,23.7-7.2,35.7-0.1c3.7,2.2,7.8,3.7,12.3,5.7c0,3.5,0,7.7,0,12.3c-5.4,1.1-10.3-1-14.4-3.8
		c-10.8-7.3-20.7-7.1-31.7,0c-9.6,6.2-20.1,5.5-30.1-0.1c-0.6-0.3-1.2-0.6-1.8-1c-8.9-6.3-17.7-6.1-26.9-0.2
		C26.7,175.4,21.2,178.1,14.6,177.4z"/>
	<path d="M14.7,143.2c0-4.1,0-8.3,0-12.1c5.6-2.6,11.1-5.2,16.5-7.9c9.8-4.8,19.4-4.4,28.9,0.6c1,0.5,2,0.9,2.9,1.5
		c8.5,5.9,16.7,5.6,25.4,0c11.7-7.5,23.7-7.2,35.7-0.2c3.8,2.2,8.1,3.7,12.5,5.7c0,3.6,0,7.7,0,13c-4-1-7.8-1.7-11.3-3
		c-3.5-1.3-6.8-3.3-10.2-5.1c-6-3.3-11.9-3.2-17.8,0.1c-3.8,2.1-7.7,4.1-11.7,5.7c-8.5,3.4-16.8,1.9-24.7-2c-0.5-0.2-1-0.5-1.4-0.8
		c-9.5-6.8-18.9-6.5-28.7-0.2C23.8,143,19.6,143.7,14.7,143.2z"/>
	<path d="M136.5,97.1c0,3.5,0,7.6,0,12.9c-4-1-7.8-1.7-11.3-3c-3.5-1.3-6.8-3.3-10.2-5.1c-6-3.3-11.9-3.2-17.8,0
		c-3.8,2.1-7.7,4.1-11.7,5.7c-8.5,3.4-16.8,1.9-24.8-2.1c-0.5-0.2-1-0.5-1.4-0.8c-9.5-6.8-18.9-6.6-28.7-0.1
		c-4.6,3.1-9.9,4.8-15.9,4.8c0-4.6,0-8.8,0-12.5c4.4-2,8.6-3.5,12.4-5.7c12-7.1,23.9-7.1,35.8,0.1c1.2,0.7,2.4,1.3,3.6,1.9
		c6.1,3.5,12.1,3.4,18.2,0c3.8-2.1,7.7-4.1,11.7-5.7c8.9-3.5,17.3-1.7,25.5,2.6C126.5,92.6,131.3,94.7,136.5,97.1z"/>
</g>
<use xlink:href="#Freccia_25"  width="45.7" height="26.3" id="XMLID_1_" x="-22.9" y="-13.1" transform="matrix(0 1.8529 1.7064 0 184.6521 66.5322)" style="display:none;overflow:visible;"/>
<polygon points="176.3,60.5 163,60.5 163,118.2 146.6,118.2 169,146 190.4,119.1 176.3,119.1 "/>
</svg>
