<?xml version="1.0" standalone="no"?>
<!DOCTYPE svg PUBLIC "-//W3C//DTD SVG 20010904//EN"
 "http://www.w3.org/TR/2001/REC-SVG-20010904/DTD/svg10.dtd">
<svg version="1.0" xmlns="http://www.w3.org/2000/svg"
 width="100.000000pt" height="100.000000pt" viewBox="0 0 100.000000 100.000000"
 preserveAspectRatio="xMidYMid meet">

<g transform="translate(0.000000,100.000000) scale(0.100000,-0.100000)"
fill="#000000" stroke="none">
<path d="M466 968 c-3 -7 -7 -32 -10 -56 -8 -55 -38 -115 -127 -250 -155 -234
-176 -322 -113 -463 31 -68 93 -131 162 -162 36 -17 66 -22 127 -22 72 1 87 4
143 35 183 98 223 302 107 548 -19 41 -40 72 -46 70 -6 -2 -17 -21 -24 -42
-24 -69 -38 -69 -30 0 13 114 -36 238 -126 318 -41 38 -57 44 -63 24z m132
-158 c24 -50 27 -66 27 -165 0 -92 3 -109 15 -107 21 5 41 23 61 56 l18 30 20
-48 c60 -140 72 -272 32 -363 -23 -51 -84 -118 -132 -143 -23 -12 -23 -12 -8
6 32 37 49 84 49 134 0 27 -4 50 -8 50 -4 0 -6 -16 -4 -36 5 -42 -21 -114 -50
-140 -21 -19 -21 -19 -13 1 14 34 18 92 6 99 -7 5 -11 -8 -11 -39 0 -38 -5
-52 -29 -76 -78 -78 -202 10 -158 112 8 19 31 58 51 88 20 29 39 64 42 78 4
15 12 22 20 19 12 -4 12 -1 4 14 -14 27 -30 25 -30 -2 0 -21 -14 -47 -87 -167
-25 -39 -29 -90 -12 -124 11 -21 11 -21 -14 2 -15 13 -32 40 -38 59 -19 58 -6
105 60 207 61 94 91 159 91 198 0 20 0 20 21 1 12 -10 35 -38 51 -62 17 -24
32 -41 35 -38 7 7 -49 85 -85 119 l-30 28 -7 -48 c-8 -55 -40 -122 -101 -211
-73 -107 -78 -180 -17 -253 l27 -32 -32 17 c-44 23 -98 81 -124 135 -18 35
-23 63 -23 121 0 92 25 149 145 335 69 106 107 185 127 264 6 23 80 -57 111
-119z"/>
<path d="M615 420 c3 -5 8 -10 11 -10 2 0 4 5 4 10 0 6 -5 10 -11 10 -5 0 -7
-4 -4 -10z"/>
<path d="M630 383 c1 -13 29 -59 30 -48 0 21 -13 55 -21 55 -5 0 -9 -3 -9 -7z"/>
<path d="M550 325 c0 -18 19 -40 26 -32 4 4 0 15 -9 24 -9 10 -17 13 -17 8z"/>
<path d="M581 264 c0 -11 3 -14 6 -6 3 7 2 16 -1 19 -3 4 -6 -2 -5 -13z"/>
</g>
</svg>
