<?xml version="1.0" standalone="no"?>
<!DOCTYPE svg PUBLIC "-//W3C//DTD SVG 20010904//EN"
 "http://www.w3.org/TR/2001/REC-SVG-20010904/DTD/svg10.dtd">
<svg version="1.0" xmlns="http://www.w3.org/2000/svg"
 width="100.000000pt" height="100.000000pt" viewBox="0 0 100.000000 100.000000"
 preserveAspectRatio="xMidYMid meet">

<g transform="translate(0.000000,100.000000) scale(0.100000,-0.100000)"
fill="#000000" stroke="none">
<path d="M480 741 l0 -60 -47 -3 -48 -3 -3 -87 -3 -88 -29 0 c-26 0 -29 3 -32
38 l-3 37 -70 3 c-56 2 -72 0 -82 -14 -10 -13 -21 -15 -57 -10 -42 7 -46 5
-46 -13 0 -17 9 -21 50 -27 l50 -7 0 -63 0 -64 -75 0 c-60 0 -77 -3 -82 -16
-9 -24 21 -111 62 -178 19 -32 35 -60 35 -62 0 -2 -21 -4 -46 -4 -38 0 -45 -3
-42 -18 4 -24 58 -27 118 -8 43 14 52 14 84 1 45 -19 84 -19 139 0 40 13 49
13 80 0 20 -8 50 -15 66 -15 17 0 50 7 74 15 40 13 49 13 80 0 46 -19 85 -19
140 0 40 13 49 13 80 0 63 -26 137 -15 124 18 -4 12 -16 14 -48 10 l-42 -6 7
33 c3 19 22 70 42 114 51 115 52 110 -38 114 -69 2 -78 5 -78 22 0 14 15 24
63 39 78 27 89 34 82 53 -6 15 -14 14 -75 -7 -66 -22 -68 -23 -73 -4 -5 17
-15 19 -111 19 l-105 0 -3 88 -3 87 -47 3 -48 3 0 60 c0 52 -2 59 -20 59 -18
0 -20 -7 -20 -59z m100 -171 l0 -70 -80 0 -80 0 0 70 0 70 80 0 80 0 0 -70z
m-300 -50 c0 -17 -7 -20 -40 -20 -33 0 -40 3 -40 20 0 17 7 20 40 20 33 0 40
-3 40 -20z m520 -100 l0 -40 -300 0 -300 0 0 40 0 40 300 0 300 0 0 -40z m135
-97 c-5 -10 -22 -55 -39 -100 -28 -74 -33 -81 -54 -76 -12 3 -28 0 -36 -6 -26
-22 -102 -25 -155 -6 -38 14 -53 16 -64 7 -27 -23 -102 -26 -156 -7 -38 14
-53 16 -64 7 -26 -22 -104 -26 -151 -8 -25 10 -53 16 -62 14 -21 -3 -89 106
-100 160 l-6 32 447 0 c422 0 447 -1 440 -17z"/>
<path d="M143 59 c-6 -6 -38 -13 -72 -16 -50 -5 -61 -9 -59 -22 4 -23 60 -26
118 -7 43 14 52 14 84 1 45 -19 84 -19 139 0 40 13 49 13 80 0 46 -19 85 -19
140 0 40 13 49 13 80 0 20 -8 50 -15 66 -15 17 0 50 7 74 15 40 13 49 13 80 0
64 -26 137 -15 124 18 -4 12 -15 14 -41 10 -22 -3 -54 1 -85 13 -39 13 -53 15
-64 6 -27 -23 -102 -26 -156 -7 -38 14 -53 16 -64 7 -27 -23 -102 -26 -156 -7
-39 15 -53 16 -64 6 -26 -21 -108 -25 -151 -7 -45 19 -58 20 -73 5z"/>
</g>
</svg>
