<?xml version="1.0" encoding="utf-8"?>
<!-- Generator: Adobe Illustrator 25.0.0, SVG Export Plug-In . SVG Version: 6.00 Build 0)  -->
<svg version="1.1" id="Livello_1" xmlns="http://www.w3.org/2000/svg" xmlns:xlink="http://www.w3.org/1999/xlink" x="0px" y="0px"
	 viewBox="0 0 200 200" style="enable-background:new 0 0 200 200;" xml:space="preserve">
<style type="text/css">
	.st0{display:none;fill:#FFFFFF;}
</style>
<g>
	<path class="st0" d="M200,200c-66.35,0-132.68,0-199,0C1,133.65,1,67.32,1,1c66.35,0,132.68,0,199,0C200,67.35,200,133.68,200,200z
		 M32.09,86.77c0.18,0.06,0.36,0.12,0.54,0.18c0,5.85,2.8,11.03,7.93,13.97c3.91,2.24,5.95,5.21,6.07,9.87
		c0.26,10.07,6.47,16.36,16.56,16.82c4.54,0.2,7.64,2,10,5.9c4.95,8.17,14.47,10.55,22.74,5.82c3.74-2.14,7.31-2.21,11.04-0.02
		c3.52,2.07,7.32,2.94,11.42,2.14c5.18-1.01,9.09-3.83,11.68-8.39c1.97-3.47,4.82-5.31,8.84-5.36c1.38-0.02,2.79-0.1,4.13-0.4
		c8.04-1.81,12.9-7.69,13.3-16.08c0.12-2.6,0.12-5.25,2.11-7.22c1.2-1.19,2.65-2.17,4.08-3.1c3.27-2.14,5.64-4.96,6.89-8.68
		c1.63-4.85,1.07-9.52-1.45-13.92c-1.22-2.13-2.15-4.35-1.61-6.77c0.4-1.77,1.28-3.44,2.08-5.09c3.95-8.16,1.6-17.12-6.13-21.77
		c-4.04-2.43-5.92-5.49-6.05-10.27c-0.27-9.47-6.85-16.19-16.19-16.44c-4.85-0.13-8.11-1.88-10.45-6.08
		c-3.08-5.52-8.4-7.87-14.31-8.13c-2.81-0.12-5.9,1.34-8.53,2.72c-3.71,1.95-7.02,2.07-10.64-0.07c-3.76-2.23-7.77-3.19-12.23-2.11
		c-5.09,1.24-8.74,4.15-11.28,8.61c-1.95,3.43-4.87,5.02-8.82,4.99c-1.63-0.01-3.32,0.21-4.89,0.64
		c-7.47,2.04-12.18,7.93-12.27,15.86c-0.05,4.67-1.85,7.78-5.87,10.17c-8.07,4.8-10.55,14.19-5.98,22.35
		c2.22,3.96,2.35,7.55,0.15,11.58C33.58,81.01,33.02,83.99,32.09,86.77z M109.24,149.55c-2.26-1.01-4.36-1.83-6.33-2.87
		c-1.08-0.58-1.88-0.55-2.91,0.06c-3.66,2.14-7.65,3.26-11.88,3.34c-9.88,0.2-17.25-4.16-22.33-12.52
		c-0.61-1.01-1.27-1.44-2.49-1.52c-2.35-0.15-4.74-0.4-7.01-1c-1.48-0.39-1.96,0.03-2.5,1.24c-2.27,5.07-4.62,10.1-6.95,15.14
		c-3.18,6.91-6.39,13.8-9.53,20.72c-1.55,3.41,0.2,6.05,3.97,6.15c0.53,0.01,1.06,0,1.59,0c7.54,0,15.08,0.03,22.62-0.03
		c1.26-0.01,2.04,0.4,2.81,1.39c4.36,5.57,8.77,11.1,13.22,16.6c2.82,3.48,5.91,3.03,7.72-1.06c3.7-8.4,7.37-16.81,11.05-25.22
		C103.26,163.22,106.23,156.45,109.24,149.55z M148.72,134.83c-2.91,0.43-5.56,1.06-8.22,1.14c-1.93,0.06-2.89,0.82-3.86,2.36
		c-3.96,6.32-9.59,10.23-17.04,11.43c-0.68,0.11-1.54,0.79-1.82,1.42c-3.74,8.37-7.41,16.78-11.03,25.2
		c-0.27,0.63-0.26,1.57,0.01,2.21c2.42,5.71,4.89,11.4,7.41,17.07c1.55,3.5,4.95,3.86,7.35,0.84c4.41-5.53,8.83-11.05,13.2-16.61
		c0.89-1.13,1.81-1.65,3.32-1.64c7.74,0.08,15.48,0.05,23.22,0.04c4.71-0.01,6.33-2.54,4.37-6.8c-4.25-9.25-8.49-18.51-12.74-27.75
		C151.48,140.7,150.04,137.66,148.72,134.83z"/>
	<path d="M35.09,86.16c0.93-2.79,1.5-5.78,2.88-8.33c2.2-4.05,2.08-7.66-0.15-11.64c-4.59-8.19-2.1-17.63,6.01-22.45
		c4.04-2.4,5.84-5.53,5.9-10.22c0.09-7.96,4.82-13.88,12.33-15.93c1.58-0.43,3.28-0.66,4.92-0.65c3.97,0.03,6.9-1.57,8.86-5.01
		c2.55-4.48,6.22-7.41,11.33-8.65c4.48-1.09,8.52-0.12,12.29,2.12c3.63,2.16,6.96,2.03,10.69,0.07c2.64-1.39,5.74-2.86,8.57-2.73
		C124.65,3,130,5.36,133.09,10.91c2.35,4.22,5.62,5.97,10.5,6.11c9.38,0.26,15.99,7.01,16.26,16.52c0.14,4.8,2.02,7.87,6.08,10.32
		c7.76,4.67,10.12,13.67,6.15,21.87c-0.8,1.66-1.69,3.34-2.09,5.12c-0.55,2.43,0.39,4.66,1.61,6.8c2.53,4.42,3.1,9.11,1.46,13.98
		c-1.26,3.73-3.64,6.57-6.92,8.72c-1.44,0.94-2.89,1.92-4.1,3.12c-2,1.98-1.99,4.64-2.12,7.25c-0.4,8.43-5.29,14.33-13.36,16.15
		c-1.35,0.3-2.76,0.39-4.15,0.4c-4.04,0.05-6.9,1.9-8.88,5.38c-2.61,4.58-6.53,7.41-11.74,8.43c-4.12,0.81-7.93-0.07-11.47-2.15
		c-3.74-2.2-7.33-2.13-11.09,0.02c-8.31,4.75-17.88,2.37-22.85-5.84c-2.37-3.92-5.48-5.72-10.05-5.93
		c-10.13-0.46-16.37-6.78-16.63-16.9c-0.12-4.68-2.17-7.67-6.1-9.91c-5.16-2.95-7.97-8.15-7.97-14.03
		C35.46,86.28,35.27,86.22,35.09,86.16z M102.63,109.22c13.1-20.49,26-40.66,38.98-60.98c-2.47-1.57-4.7-2.98-7.11-4.51
		c-11.25,17.55-22.41,34.95-33.63,52.45c-9.15-8.21-18.02-16.19-27.03-24.27c-1.95,2.21-3.73,4.23-5.63,6.38
		C79.73,88.63,91.08,98.84,102.63,109.22z"/>
	<path d="M112.6,149.23c-3.03,6.93-6.01,13.73-8.99,20.53c-3.7,8.45-7.39,16.9-11.11,25.34c-1.81,4.11-4.92,4.56-7.75,1.06
		c-4.47-5.52-8.9-11.08-13.28-16.67c-0.78-1-1.56-1.41-2.83-1.4c-7.58,0.05-15.15,0.03-22.73,0.03c-0.53,0-1.06,0.01-1.6,0
		c-3.79-0.11-5.55-2.75-3.99-6.18c3.15-6.96,6.38-13.88,9.58-20.82c2.33-5.07,4.7-10.12,6.98-15.21c0.55-1.22,1.03-1.64,2.52-1.25
		c2.28,0.6,4.68,0.85,7.05,1c1.23,0.08,1.89,0.51,2.5,1.52c5.1,8.4,12.51,12.78,22.43,12.58c4.25-0.09,8.26-1.21,11.94-3.36
		c1.03-0.6,1.84-0.63,2.92-0.06C108.22,147.39,110.33,148.21,112.6,149.23z"/>
	<path d="M152.26,134.44c1.33,2.84,2.77,5.89,4.18,8.96c4.27,9.29,8.54,18.59,12.8,27.88c1.97,4.28,0.34,6.83-4.39,6.84
		c-7.78,0.01-15.55,0.05-23.33-0.04c-1.51-0.02-2.44,0.51-3.33,1.65c-4.39,5.59-8.83,11.13-13.26,16.69
		c-2.41,3.03-5.82,2.67-7.39-0.84c-2.53-5.7-5.02-11.41-7.44-17.15c-0.27-0.64-0.28-1.59-0.01-2.22
		c3.64-8.46,7.32-16.91,11.08-25.32c0.28-0.64,1.15-1.32,1.83-1.43c7.49-1.21,13.15-5.13,17.12-11.49c0.97-1.55,1.93-2.31,3.87-2.37
		C146.68,135.51,149.34,134.88,152.26,134.44z"/>
	<path class="st0" d="M99.31,109.73c-11.5-10.33-22.79-20.49-34.25-30.8c1.88-2.14,3.66-4.15,5.6-6.35
		c8.96,8.05,17.8,15.98,26.9,24.16c11.16-17.41,22.27-34.74,33.47-52.2c2.4,1.52,4.62,2.93,7.08,4.49
		C125.19,69.25,112.35,89.34,99.31,109.73z"/>
</g>
</svg>
