<?xml version="1.0" encoding="UTF-8"?>
<svg id="Livello_2" data-name="Livello 2" xmlns="http://www.w3.org/2000/svg" viewBox="0 0 20 20">
  <defs>
    <style>
      .cls-1 {
        fill: #00aeef;
        stroke-width: 0px;
      }
    </style>
  </defs>
  <g id="Livello_1-2" data-name="Livello 1">
    <path class="cls-1" d="M19.06,11.7c.1-.58.16-1.15.16-1.7C19.22,4.37,14.19-.13,8.3.94c-.89-.62-1.92-.94-3.01-.94C2.38,0,0,2.38,0,5.29c0,1.08.32,2.12.94,3.01-.1.58-.16,1.15-.16,1.7,0,5.63,5.02,10.13,10.91,9.06.89.62,1.92.94,3.01.94,2.92,0,5.29-2.38,5.29-5.29,0-1.08-.32-2.12-.94-3.01ZM14.71,18.82c-.91,0-1.78-.3-2.51-.86l-.21-.16-.26.06c-.59.12-1.16.18-1.72.18-4.43,0-8.04-3.61-8.04-8.04,0-.55.06-1.13.18-1.72l.05-.26-.16-.21c-.56-.73-.86-1.6-.86-2.51C1.18,3.02,3.02,1.18,5.29,1.18c.91,0,1.78.3,2.51.86l.21.16.26-.06c.59-.12,1.16-.18,1.72-.18,4.43,0,8.04,3.61,8.04,8.04,0,.55-.06,1.13-.18,1.72l-.05.26.16.21c.56.73.86,1.6.86,2.51,0,2.27-1.85,4.12-4.12,4.12h0ZM14.96,12.05c0,2.49-2.4,3.64-4.71,3.64-2.76,0-5.06-1.23-5.06-2.73,0-.67.38-1.29,1.24-1.29,1.31,0,1.43,1.89,3.7,1.89,1.08,0,1.78-.48,1.78-1.1,0-.78-.67-.91-1.76-1.18l-1.79-.44c-1.79-.43-3.16-1.16-3.16-3.22,0-2.49,2.46-3.41,4.58-3.41,2.32,0,4.66.92,4.66,2.33,0,.71-.48,1.34-1.27,1.34-1.19,0-1.23-1.41-3.15-1.41-1.08,0-1.76.29-1.76.94,0,.71.7.87,1.63,1.09l1.27.29c1.74.39,3.81,1.13,3.81,3.26h0Z"/>
  </g>
</svg>