<?xml version="1.0" encoding="utf-8"?>
<!-- Generator: Adobe Illustrator 25.0.0, SVG Export Plug-In . SVG Version: 6.00 Build 0)  -->
<svg version="1.1" id="Livello_1" xmlns="http://www.w3.org/2000/svg" xmlns:xlink="http://www.w3.org/1999/xlink" x="0px" y="0px"
	 viewBox="0 0 250 250" style="enable-background:new 0 0 250 250;" xml:space="preserve">
<style type="text/css">
	.st0{fill:#FFFFFF;}
</style>
<g>
	<g>
		<path class="st0" d="M250,250c-83.33,0-166.67,0-250,0C0,166.67,0,83.33,0,0c83.33,0,166.67,0,250,0C250,83.33,250,166.67,250,250
			z M61.06,24.99c-0.71-0.85-1.26-1.44-1.74-2.08c-3.23-4.3-9.11-5.35-11.48-1.14c-3.72,6.58-8.69,8.54-15.61,7.32
			c-0.39-0.07-0.82,0.09-1.23,0.16c-5.77,1.02-8.66,5.66-6.32,10.99c1.27,2.89,0.77,4.36-1.62,6.2c-4.08,3.13-4.06,5.89-1.15,10.09
			c1.14,1.65,2.31,4.12,1.9,5.85c-1.59,6.8-0.55,9.82,5.34,13.45c1.41,0.87,3.06,2.17,3.53,3.62c1.94,5.95,5.98,8.55,11.63,5.86
			c3.84-1.83,6.91-5.26,10.38-7.91c1.72-1.32,3.39-3.07,5.37-3.61c4.64-1.28,15.64,4.92,17.18,9.59c1.81,5.49,3.15,11.12,4.79,16.67
			c0.38,1.29,0.78,2.94,1.74,3.63c6.51,4.63,8.73,13.89,17.45,16.1c0.35,0.09,0.59,0.56,0.9,0.84c6.57,5.93,13.22,11.77,19.69,17.8
			c3.6,3.36,7.56,4.65,12.49,4.2c1.78-0.16,4.14,1.05,5.5,2.39c3.11,3.08,5.61,6.79,8.71,9.89c1.04,1.05,3.55,1.9,4.68,1.36
			c3.81-1.81,5.01,0.09,5.91,3.17c1.27,4.35,4.24,6.87,8.53,8.24c2.01,0.64,4.39,1.61,5.56,3.19c5.3,7.17,5.26,20.63,0.3,28.27
			c-3.11,4.8-2.66,9.43,1.23,12.58c4.39,3.55,9.78,3.6,13.4-0.65c3.73-4.38,6.7-9.4,10.14-14.03c1.43-1.92,3.33-3.47,4.83-5.34
			c1.58-1.97,4.09-4.07,4.18-6.2c0.3-6.8-0.09-13.75-7.36-17.57c-0.61-0.32-1.26-0.64-1.76-1.09c-2.81-2.55-1.53-5.35-0.18-7.91
			c1.4-2.66,3.27-1.31,5.56-0.78c5.51,1.28,8.54,5.03,11.66,9.13c2.33,3.08,5.7,3.35,8.99,1.7c4.97-2.5,7.05-10.19,3.37-14.5
			c-3.88-4.53-8.15-9.23-13.24-12.12c-7.62-4.32-16.07-7.2-24.23-10.54c-2.81-1.15-5.04-2.03-3.46-5.92
			c1.29-3.19-0.15-6.27-3.01-7.85c-2.05-1.14-4.71-1.39-7.14-1.6c-3.98-0.35-8.14,0.3-11.95-0.61c-9.74-2.34-15.07-9.47-17.51-18.68
			c-2.42-9.13-7.35-15.87-15.81-20.21c-2.78-1.42-5.39-3.44-7.59-5.67c-3.53-3.57-3.48-5.59-0.61-9.69c1.89-2.7,1.94-5.4,0.1-8.1
			c-1.21-1.77-0.99-3.06,1.08-3.91c3.79-1.57,7.5-3.39,11.39-4.68c3.79-1.26,6.4-4.77,6.23-8.72c-0.16-3.56-0.15-7.17,0.19-10.71
			c0.53-5.55-0.83-7.64-6.39-8.55c-4.23-0.69-8.56-0.91-12.71-1.89c-1.38-0.33-3.07-2.24-3.38-3.68c-1.09-5.21-4.2-7.35-9.23-5.8
			c-1.71,0.53-3.45,0.96-5.19,1.33c-6.07,1.27-12.17,2.4-18.21,3.82c-1.38,0.33-2.63,1.49-3.79,2.45c-2.63,2.18-5.17,4.47-7.98,6.92
			C68.26,17.35,68.26,17.35,61.06,24.99z M148.9,244.77c2.82-0.72,4.72-0.8,6.16-1.65c4.58-2.69,9.72-14.46,6.44-19.9
			c-3.2-5.31-1.26-9.83,1.38-14.36c1.43-2.45,2.24-4.76,0.27-7.27c-2.06-2.63-4.72-2.56-7.52-1.63c-3.41,1.13-6.71,2.78-10.19,3.44
			c-5.58,1.06-11.09,5.03-17.02,0.62c-4.04-3.01-15.33-2.38-19.24,0.74c-0.53,0.42-1.03,0.94-1.42,1.49
			c-5.75,8.23-2.9,15.43,6.23,19.42c9.02,3.94,17.41,9.31,26.06,14.08C143.19,241.48,146.29,243.29,148.9,244.77z M75.26,161.65
			c-0.16-0.03-0.31-0.07-0.47-0.1c-0.22-2.89-0.33-5.8-0.69-8.67c-0.34-2.74-0.83-5.47-1.47-8.15c-2.14-9.02-12.12-12.15-19-6.21
			c-1.53,1.32-3.83,2.07-5.89,2.4c-6.9,1.1-10.7,8.01-6.57,13.51c2.97,3.97,2.92,7.63,2.2,11.98c-1.19,7.11-1.88,14.22,1.24,21.18
			c3.15,7.01,9.44,8.66,15.44,4c1.53-1.19,3.53-2.03,5.44-2.44c3.42-0.72,5.61-2.82,6.23-5.92
			C73.15,176.09,74.11,168.85,75.26,161.65z"/>
		<path d="M61.06,24.99c7.2-7.64,7.2-7.64,14.05-4.93c2.81-2.45,5.35-4.74,7.98-6.92c1.16-0.96,2.4-2.13,3.79-2.45
			c6.04-1.42,12.14-2.55,18.21-3.82c1.75-0.37,3.49-0.8,5.19-1.33c5.02-1.55,8.13,0.59,9.23,5.8c0.3,1.45,2,3.36,3.38,3.68
			c4.15,0.98,8.48,1.2,12.71,1.89c5.56,0.91,6.91,3.01,6.39,8.55c-0.34,3.55-0.35,7.15-0.19,10.71c0.17,3.94-2.44,7.46-6.23,8.72
			c-3.89,1.29-7.59,3.12-11.39,4.68c-2.07,0.85-2.28,2.14-1.08,3.91c1.84,2.7,1.8,5.4-0.1,8.1c-2.87,4.09-2.92,6.12,0.61,9.69
			c2.2,2.23,4.81,4.25,7.59,5.67c8.46,4.33,13.39,11.08,15.81,20.21c2.44,9.21,7.77,16.35,17.51,18.68
			c3.81,0.91,7.97,0.26,11.95,0.61c2.43,0.21,5.09,0.46,7.14,1.6c2.86,1.59,4.3,4.66,3.01,7.85c-1.58,3.89,0.65,4.77,3.46,5.92
			c8.16,3.35,16.61,6.22,24.23,10.54c5.09,2.89,9.36,7.59,13.24,12.12c3.69,4.31,1.6,12-3.37,14.5c-3.29,1.66-6.66,1.38-8.99-1.7
			c-3.11-4.1-6.14-7.86-11.66-9.13c-2.3-0.53-4.17-1.88-5.56,0.78c-1.35,2.57-2.63,5.37,0.18,7.91c0.5,0.46,1.15,0.77,1.76,1.09
			c7.27,3.82,7.66,10.77,7.36,17.57c-0.09,2.13-2.6,4.23-4.18,6.2c-1.5,1.87-3.41,3.42-4.83,5.34c-3.45,4.63-6.41,9.65-10.14,14.03
			c-3.62,4.25-9.01,4.2-13.4,0.65c-3.89-3.15-4.35-7.78-1.23-12.58c4.95-7.63,4.99-21.1-0.3-28.27c-1.17-1.59-3.54-2.55-5.56-3.19
			c-4.29-1.37-7.26-3.89-8.53-8.24c-0.9-3.09-2.1-4.99-5.91-3.17c-1.13,0.54-3.64-0.31-4.68-1.36c-3.1-3.1-5.59-6.81-8.71-9.89
			c-1.35-1.34-3.72-2.55-5.5-2.39c-4.93,0.45-8.89-0.84-12.49-4.2c-6.47-6.04-13.12-11.88-19.69-17.8c-0.31-0.28-0.55-0.75-0.9-0.84
			c-8.72-2.21-10.94-11.47-17.45-16.1c-0.96-0.68-1.36-2.34-1.74-3.63c-1.63-5.55-2.98-11.18-4.79-16.67
			c-1.54-4.68-12.54-10.87-17.18-9.59c-1.97,0.54-3.65,2.3-5.37,3.61c-3.46,2.65-6.53,6.08-10.38,7.91
			c-5.65,2.69-9.69,0.09-11.63-5.86c-0.47-1.45-2.12-2.75-3.53-3.62c-5.89-3.64-6.93-6.65-5.34-13.45c0.4-1.73-0.76-4.21-1.9-5.85
			c-2.91-4.2-2.93-6.96,1.15-10.09c2.39-1.84,2.89-3.3,1.62-6.2c-2.34-5.34,0.55-9.97,6.32-10.99c0.41-0.07,0.84-0.23,1.23-0.16
			c6.93,1.21,11.89-0.74,15.61-7.32c2.37-4.2,8.25-3.16,11.48,1.14C59.8,23.55,60.35,24.14,61.06,24.99z M195.05,145.53
			c-0.39-0.36-0.8-0.98-1.38-1.23c-3.94-1.67-7.87-3.35-11.87-4.84c-4.74-1.77-8.81-3.89-9.3-9.83c-0.09-1.11-2.15-2.86-3.39-2.95
			c-16.64-1.22-26.72-10.78-31.42-25.86c-2.34-7.51-6.45-12.28-12.89-16.26c-4.34-2.68-8.42-6.39-11.35-10.54
			c-2.75-3.89-5.26-8.84-2.53-13.97c1.5-2.82,1.35-4.88-0.29-7.61c-3.01-5.02,0.05-11.26,5.39-12.39c3.82-0.8,7.55-2.08,11.26-3.32
			c2.89-0.96,3.55-2.97,2.69-5.93c-0.96-3.29-2.53-5.26-6.23-5.43c-5.49-0.25-10.12-2.25-13.4-7.06c-0.7-1.03-3.04-1.83-4.25-1.47
			c-3.62,1.05-6.97,3.05-10.6,4.09c-4.64,1.33-7.64,3.98-9.27,8.5c-1.1,3.05-3.36,4.8-6.79,3.99c-7.84-1.87-7.66-1.82-11.53,4.64
			c-1.07,1.78-3.49,3.91-5.22,3.85c-1.99-0.08-4.16-2.15-5.74-3.84c-1.32-1.41-1.9-3.51-2.81-5.31c-0.61-0.41-1.21-0.81-1.82-1.22
			c-0.47,1.18-0.72,2.53-1.46,3.51c-2.41,3.18-5.64,4.92-9.72,4.33c-3.9-0.56-4.75,0.92-3.53,4.43c0.39,1.12,0.76,2.91,0.18,3.61
			c-3.89,4.71-3.47,10.23-3.43,15.72c0,0.26-0.19,0.52-0.3,0.77c-0.94,2.11-0.01,2.92,2.03,3.47c2.19,0.59,4.69,1.17,6.29,2.61
			c2.51,2.25,3.98,2,6.08-0.42c4.7-5.41,10.72-7.31,17.6-5.16c10.5,3.29,19.58,8.11,22.43,20.24c1.79,7.63,4.13,15.23,10.85,20.41
			c3.12,2.41,6.15,4.95,9.07,7.59c6.36,5.74,12.49,11.74,19.03,17.28c1.76,1.49,4.64,2.33,7,2.33c4.75-0.02,9.25,1.02,11.86,4.75
			c3.3,4.72,8.12,6.3,12.88,8.17c4.27,1.68,7.48,4.06,8.58,8.74c0.72,3.03,2.59,4.71,5.84,4.9c4.24,0.25,6.68,2.89,8.21,6.61
			c0.73,1.79,1.42,3.62,2.33,5.31c3.83,7.11,4.38,14.43,1.78,22.06c-0.3,0.87-0.12,1.91-0.17,2.86c0.42,0.15,0.85,0.3,1.27,0.45
			c0.85-1.4,1.66-2.83,2.56-4.21c1.41-2.18,2.54-4.69,4.39-6.42c4.26-4,4.33-6.3-0.38-9.58c-7.5-5.22-9.31-12.38-4.89-20.56
			C190.48,151.96,192.83,148.9,195.05,145.53z"/>
		<path d="M148.9,244.77c-2.61-1.48-5.71-3.29-8.85-5.02c-8.65-4.77-17.04-10.14-26.06-14.08c-9.13-3.99-11.98-11.19-6.23-19.42
			c0.39-0.56,0.89-1.07,1.42-1.49c3.91-3.11,15.19-3.75,19.24-0.74c5.93,4.41,11.44,0.45,17.02-0.62c3.49-0.66,6.79-2.31,10.19-3.44
			c2.8-0.93,5.46-1,7.52,1.63c1.97,2.51,1.16,4.82-0.27,7.27c-2.64,4.53-4.59,9.05-1.38,14.36c3.28,5.43-1.86,17.2-6.44,19.9
			C153.62,243.96,151.72,244.04,148.9,244.77z M119.87,211.41c-1.31,0.78-2.72,1.63-4.14,2.48c1.21,0.89,2.35,1.91,3.65,2.64
			c1.91,1.08,3.97,1.88,5.91,2.92c3.88,2.08,7.74,4.19,11.57,6.37c2.74,1.56,5.35,3.34,8.11,4.84c1.54,0.84,3.29,1.3,4.95,1.94
			c0.63-2.26,1.71-4.51,1.74-6.78c0.03-1.79-1.38-3.56-1.87-5.41c-0.61-2.27-0.27-6-1.53-6.59c-1.82-0.86-4.71,0.5-7.13,0.95
			c-0.81,0.15-1.62,0.37-2.42,0.59c-5.33,1.45-10.37,1.18-14.96-2.34C122.82,212.31,121.52,212.07,119.87,211.41z"/>
		<path d="M75.26,161.65c-1.15,7.2-2.11,14.44-3.54,21.58c-0.62,3.1-2.81,5.19-6.23,5.92c-1.91,0.4-3.91,1.25-5.44,2.44
			c-6,4.67-12.3,3.01-15.44-4c-3.12-6.96-2.43-14.07-1.24-21.18c0.73-4.36,0.78-8.02-2.2-11.98c-4.13-5.5-0.33-12.41,6.57-13.51
			c2.06-0.33,4.36-1.08,5.89-2.4c6.88-5.94,16.87-2.81,19,6.21c0.64,2.68,1.12,5.42,1.47,8.15c0.36,2.87,0.47,5.78,0.69,8.67
			C74.95,161.59,75.11,161.62,75.26,161.65z M52.75,181.2c4.07-2.17,8.52-3.02,9.51-5.34c3.73-8.73,2.98-18.06,0.92-27.19
			c-0.17-0.76-2.5-1.73-3.52-1.46c-1.9,0.51-3.66,1.74-5.29,2.93c-0.74,0.54-1.66,1.98-1.41,2.53c2.8,6.17,0.29,12.2-0.17,18.29
			C52.57,173.87,52.75,176.82,52.75,181.2z"/>
		<path class="st0" d="M195.05,145.53c-2.22,3.37-4.57,6.43-6.38,9.78c-4.41,8.19-2.61,15.34,4.89,20.56
			c4.71,3.28,4.64,5.58,0.38,9.58c-1.85,1.73-2.98,4.24-4.39,6.42c-0.89,1.38-1.71,2.8-2.56,4.21c-0.42-0.15-0.85-0.3-1.27-0.45
			c0.04-0.96-0.13-1.99,0.17-2.86c2.6-7.63,2.05-14.95-1.78-22.06c-0.91-1.7-1.6-3.52-2.33-5.31c-1.53-3.72-3.97-6.36-8.21-6.61
			c-3.25-0.19-5.12-1.87-5.84-4.9c-1.11-4.67-4.31-7.06-8.58-8.74c-4.76-1.87-9.58-3.45-12.88-8.17c-2.6-3.72-7.11-4.76-11.86-4.75
			c-2.36,0.01-5.23-0.83-7-2.33c-6.54-5.53-12.67-11.54-19.03-17.28c-2.93-2.64-5.95-5.19-9.07-7.59
			c-6.72-5.18-9.06-12.78-10.85-20.41c-2.84-12.13-11.92-16.95-22.43-20.24c-6.87-2.15-12.9-0.25-17.6,5.16
			c-2.1,2.42-3.57,2.68-6.08,0.42c-1.6-1.43-4.1-2.01-6.29-2.61c-2.04-0.55-2.97-1.36-2.03-3.47c0.11-0.25,0.3-0.51,0.3-0.77
			c-0.04-5.49-0.46-11.01,3.43-15.72c0.57-0.7,0.21-2.48-0.18-3.61c-1.23-3.51-0.38-4.99,3.53-4.43c4.08,0.59,7.31-1.15,9.72-4.33
			c0.74-0.98,0.99-2.33,1.46-3.51c0.61,0.41,1.21,0.81,1.82,1.22c0.91,1.8,1.49,3.9,2.81,5.31c1.58,1.69,3.75,3.76,5.74,3.84
			c1.72,0.07,4.15-2.06,5.22-3.85c3.87-6.46,3.69-6.51,11.53-4.64c3.42,0.82,5.68-0.93,6.79-3.99c1.63-4.52,4.64-7.17,9.27-8.5
			c3.63-1.04,6.98-3.03,10.6-4.09c1.22-0.35,3.55,0.44,4.25,1.47c3.28,4.81,7.91,6.81,13.4,7.06c3.7,0.17,5.27,2.14,6.23,5.43
			c0.87,2.96,0.2,4.96-2.69,5.93c-3.71,1.24-7.44,2.52-11.26,3.32c-5.34,1.12-8.4,7.37-5.39,12.39c1.64,2.73,1.79,4.79,0.29,7.61
			c-2.73,5.13-0.22,10.08,2.53,13.97c2.93,4.15,7.01,7.86,11.35,10.54c6.45,3.98,10.55,8.76,12.89,16.26
			c4.71,15.08,14.78,24.65,31.42,25.86c1.25,0.09,3.3,1.84,3.39,2.95c0.48,5.95,4.56,8.07,9.3,9.83c4,1.49,7.94,3.18,11.87,4.84
			C194.25,144.54,194.66,145.17,195.05,145.53z"/>
		<path class="st0" d="M119.87,211.41c1.65,0.66,2.95,0.9,3.88,1.61c4.59,3.52,9.62,3.79,14.96,2.34c0.8-0.22,1.6-0.44,2.42-0.59
			c2.43-0.44,5.31-1.81,7.13-0.95c1.26,0.6,0.92,4.33,1.53,6.59c0.5,1.85,1.9,3.62,1.87,5.41c-0.04,2.27-1.11,4.52-1.74,6.78
			c-1.66-0.63-3.4-1.1-4.95-1.94c-2.77-1.5-5.38-3.28-8.11-4.84c-3.82-2.18-7.69-4.3-11.57-6.37c-1.93-1.04-4-1.84-5.91-2.92
			c-1.3-0.73-2.44-1.75-3.65-2.64C117.15,213.04,118.56,212.19,119.87,211.41z"/>
		<path class="st0" d="M52.75,181.2c0-4.39-0.18-7.33,0.04-10.25c0.46-6.09,2.98-12.12,0.17-18.29c-0.25-0.54,0.67-1.99,1.41-2.53
			c1.63-1.19,3.39-2.42,5.29-2.93c1.02-0.27,3.35,0.7,3.52,1.46c2.06,9.12,2.81,18.46-0.92,27.19
			C61.27,178.18,56.83,179.03,52.75,181.2z"/>
	</g>
</g>
</svg>
