<?xml version="1.0" encoding="utf-8"?>
<!-- Generator: Adobe Illustrator 25.0.0, SVG Export Plug-In . SVG Version: 6.00 Build 0)  -->
<svg version="1.1" id="Livello_1" xmlns="http://www.w3.org/2000/svg" xmlns:xlink="http://www.w3.org/1999/xlink" x="0px" y="0px"
	 viewBox="0 0 200 200" style="enable-background:new 0 0 200 200;" xml:space="preserve">
<style type="text/css">
	.st0{display:none;}
	.st1{display:inline;fill:#FFFFFF;}
	.st2{display:inline;}
	.st3{fill:#FFFFFF;}
</style>
<g class="st0">
	<path class="st1" d="M200,200c-66.4,0-132.7,0-199,0C1,133.6,1,67.3,1,1c66.3,0,132.7,0,199,0C200,67.4,200,133.7,200,200z
		 M32.1,86.8c0.2,0.1,0.4,0.1,0.5,0.2c0,5.8,2.8,11,7.9,14c3.9,2.2,6,5.2,6.1,9.9c0.3,10.1,6.5,16.4,16.6,16.8c4.5,0.2,7.6,2,10,5.9
		c4.9,8.2,14.5,10.6,22.7,5.8c3.7-2.1,7.3-2.2,11,0c3.5,2.1,7.3,2.9,11.4,2.1c5.2-1,9.1-3.8,11.7-8.4c2-3.5,4.8-5.3,8.8-5.4
		c1.4,0,2.8-0.1,4.1-0.4c8-1.8,12.9-7.7,13.3-16.1c0.1-2.6,0.1-5.2,2.1-7.2c1.2-1.2,2.6-2.2,4.1-3.1c3.3-2.1,5.6-5,6.9-8.7
		c1.6-4.8,1.1-9.5-1.4-13.9c-1.2-2.1-2.1-4.3-1.6-6.8c0.4-1.8,1.3-3.4,2.1-5.1c3.9-8.2,1.6-17.1-6.1-21.8c-4-2.4-5.9-5.5-6.1-10.3
		c-0.3-9.5-6.9-16.2-16.2-16.4c-4.9-0.1-8.1-1.9-10.4-6.1c-3.1-5.5-8.4-7.9-14.3-8.1c-2.8-0.1-5.9,1.3-8.5,2.7
		c-3.7,2-7,2.1-10.6-0.1c-3.8-2.2-7.8-3.2-12.2-2.1c-5.1,1.2-8.7,4.2-11.3,8.6c-1.9,3.4-4.9,5-8.8,5c-1.6,0-3.3,0.2-4.9,0.6
		c-7.5,2-12.2,7.9-12.3,15.9c0,4.7-1.8,7.8-5.9,10.2c-8.1,4.8-10.5,14.2-6,22.4c2.2,4,2.3,7.6,0.2,11.6C33.6,81,33,84,32.1,86.8z
		 M109.2,149.6c-2.3-1-4.4-1.8-6.3-2.9c-1.1-0.6-1.9-0.6-2.9,0.1c-3.7,2.1-7.7,3.3-11.9,3.3c-9.9,0.2-17.2-4.2-22.3-12.5
		c-0.6-1-1.3-1.4-2.5-1.5c-2.3-0.1-4.7-0.4-7-1c-1.5-0.4-2,0-2.5,1.2c-2.3,5.1-4.6,10.1-7,15.1c-3.2,6.9-6.4,13.8-9.5,20.7
		c-1.5,3.4,0.2,6.1,4,6.1c0.5,0,1.1,0,1.6,0c7.5,0,15.1,0,22.6,0c1.3,0,2,0.4,2.8,1.4c4.4,5.6,8.8,11.1,13.2,16.6
		c2.8,3.5,5.9,3,7.7-1.1c3.7-8.4,7.4-16.8,11.1-25.2C103.3,163.2,106.2,156.4,109.2,149.6z M148.7,134.8c-2.9,0.4-5.6,1.1-8.2,1.1
		c-1.9,0.1-2.9,0.8-3.9,2.4c-4,6.3-9.6,10.2-17,11.4c-0.7,0.1-1.5,0.8-1.8,1.4c-3.7,8.4-7.4,16.8-11,25.2c-0.3,0.6-0.3,1.6,0,2.2
		c2.4,5.7,4.9,11.4,7.4,17.1c1.6,3.5,4.9,3.9,7.3,0.8c4.4-5.5,8.8-11.1,13.2-16.6c0.9-1.1,1.8-1.6,3.3-1.6c7.7,0.1,15.5,0.1,23.2,0
		c4.7,0,6.3-2.5,4.4-6.8c-4.2-9.2-8.5-18.5-12.7-27.8C151.5,140.7,150,137.7,148.7,134.8z"/>
	<path class="st2" d="M35.1,86.2c0.9-2.8,1.5-5.8,2.9-8.3c2.2-4.1,2.1-7.7-0.2-11.6c-4.6-8.2-2.1-17.6,6-22.5
		c4-2.4,5.8-5.5,5.9-10.2c0.1-8,4.8-13.9,12.3-15.9c1.6-0.4,3.3-0.7,4.9-0.6c4,0,6.9-1.6,8.9-5c2.6-4.5,6.2-7.4,11.3-8.6
		c4.5-1.1,8.5-0.1,12.3,2.1c3.6,2.2,7,2,10.7,0.1c2.6-1.4,5.7-2.9,8.6-2.7c5.9,0.3,11.3,2.6,14.4,8.2c2.4,4.2,5.6,6,10.5,6.1
		c9.4,0.3,16,7,16.3,16.5c0.1,4.8,2,7.9,6.1,10.3c7.8,4.7,10.1,13.7,6.1,21.9c-0.8,1.7-1.7,3.3-2.1,5.1c-0.6,2.4,0.4,4.7,1.6,6.8
		c2.5,4.4,3.1,9.1,1.5,14c-1.3,3.7-3.6,6.6-6.9,8.7c-1.4,0.9-2.9,1.9-4.1,3.1c-2,2-2,4.6-2.1,7.2c-0.4,8.4-5.3,14.3-13.4,16.2
		c-1.4,0.3-2.8,0.4-4.1,0.4c-4,0.1-6.9,1.9-8.9,5.4c-2.6,4.6-6.5,7.4-11.7,8.4c-4.1,0.8-7.9-0.1-11.5-2.1c-3.7-2.2-7.3-2.1-11.1,0
		c-8.3,4.8-17.9,2.4-22.8-5.8c-2.4-3.9-5.5-5.7-10.1-5.9c-10.1-0.5-16.4-6.8-16.6-16.9c-0.1-4.7-2.2-7.7-6.1-9.9
		c-5.2-2.9-8-8.2-8-14C35.5,86.3,35.3,86.2,35.1,86.2z M102.6,109.2c13.1-20.5,26-40.7,39-61c-2.5-1.6-4.7-3-7.1-4.5
		c-11.2,17.5-22.4,35-33.6,52.5c-9.2-8.2-18-16.2-27-24.3c-1.9,2.2-3.7,4.2-5.6,6.4C79.7,88.6,91.1,98.8,102.6,109.2z"/>
	<path class="st2" d="M112.6,149.2c-3,6.9-6,13.7-9,20.5c-3.7,8.4-7.4,16.9-11.1,25.3c-1.8,4.1-4.9,4.6-7.8,1.1
		c-4.5-5.5-8.9-11.1-13.3-16.7c-0.8-1-1.6-1.4-2.8-1.4c-7.6,0.1-15.2,0-22.7,0c-0.5,0-1.1,0-1.6,0c-3.8-0.1-5.5-2.8-4-6.2
		c3.2-7,6.4-13.9,9.6-20.8c2.3-5.1,4.7-10.1,7-15.2c0.5-1.2,1-1.6,2.5-1.2c2.3,0.6,4.7,0.9,7.1,1c1.2,0.1,1.9,0.5,2.5,1.5
		c5.1,8.4,12.5,12.8,22.4,12.6c4.2-0.1,8.3-1.2,11.9-3.4c1-0.6,1.8-0.6,2.9-0.1C108.2,147.4,110.3,148.2,112.6,149.2z"/>
	<path class="st2" d="M152.3,134.4c1.3,2.8,2.8,5.9,4.2,9c4.3,9.3,8.5,18.6,12.8,27.9c2,4.3,0.3,6.8-4.4,6.8c-7.8,0-15.6,0.1-23.3,0
		c-1.5,0-2.4,0.5-3.3,1.6c-4.4,5.6-8.8,11.1-13.3,16.7c-2.4,3-5.8,2.7-7.4-0.8c-2.5-5.7-5-11.4-7.4-17.1c-0.3-0.6-0.3-1.6,0-2.2
		c3.6-8.5,7.3-16.9,11.1-25.3c0.3-0.6,1.2-1.3,1.8-1.4c7.5-1.2,13.1-5.1,17.1-11.5c1-1.6,1.9-2.3,3.9-2.4
		C146.7,135.5,149.3,134.9,152.3,134.4z"/>
	<path class="st1" d="M99.3,109.7C87.8,99.4,76.5,89.2,65.1,78.9c1.9-2.1,3.7-4.2,5.6-6.3c9,8.1,17.8,16,26.9,24.2
		C108.7,79.3,119.8,62,131,44.5c2.4,1.5,4.6,2.9,7.1,4.5C125.2,69.3,112.3,89.3,99.3,109.7z"/>
</g>
<g class="st0">
	<path class="st1" d="M215,205.9c-76.3,0-152.7,0-229,0c0-71.3,0-142.6,0-213.9c76.3,0,152.7,0,229,0C215,63.3,215,134.6,215,205.9z
		 M191.7,99.3c0-6.6,0-13.1,0-19.7c0-3.8-2.2-5.9-5.9-5.9c-2.4,0-4.7-0.1-7.1,0c-1.9,0.1-2.7-0.6-3.4-2.4
		c-12.3-30-34.4-47.7-66.8-51.5c-23-2.7-43.3,4.3-60.8,19.4C37.4,48.2,30,59.2,25.4,71.9c-0.5,1.4-1.2,1.9-2.6,1.8
		c-2.2-0.1-4.4,0.1-6.6-0.1c-5.3-0.4-7.2,3.1-7.2,7.2c0.1,11.3,0,22.7,0.1,34c0,1.5-0.1,3.1,0.1,4.6c0.4,3.4,2.5,5.3,5.9,5.4
		c2.2,0.1,4.4,0.2,6.6,0c2.4-0.2,3.4,0.6,4.2,2.9c17.6,45.8,71.4,65.2,114,41c16.8-9.5,28.5-23.5,35.4-41.5c0.7-1.8,1.6-2.4,3.4-2.3
		c2.4,0.2,4.9,0.1,7.3,0c3.6-0.1,5.8-2.4,5.8-6C191.8,112.4,191.7,105.9,191.7,99.3z"/>
	<path class="st2" d="M191.7,99.3c0,6.6,0,13.1,0,19.7c0,3.6-2.2,5.9-5.8,6c-2.4,0.1-4.9,0.1-7.3,0c-1.9-0.1-2.8,0.5-3.4,2.3
		c-6.8,18-18.6,32-35.4,41.5c-42.6,24.2-96.4,4.8-114-41c-0.9-2.2-1.9-3.1-4.2-2.9c-2.2,0.2-4.4,0.1-6.6,0c-3.4-0.1-5.6-2.1-5.9-5.4
		C8.9,118,9,116.5,9,115c0-11.3,0.1-22.7-0.1-34c0-4.1,1.8-7.7,7.2-7.2c2.2,0.2,4.4-0.1,6.6,0.1c1.5,0.1,2.1-0.5,2.6-1.8
		c4.7-12.8,12-23.7,22.3-32.6c17.5-15.1,37.8-22.1,60.8-19.4c32.4,3.8,54.5,21.5,66.8,51.5c0.7,1.8,1.5,2.5,3.4,2.4
		c2.4-0.2,4.7-0.1,7.1,0c3.8,0,5.9,2.2,5.9,5.9C191.8,86.2,191.7,92.8,191.7,99.3z M27.9,73.6c10.2,0,20.2,0,30.1-0.1
		c0.8,0,1.7-0.9,2.2-1.6c19.9-28.3,60.6-28.3,80.3,0.1c0.9,1.2,1.7,1.6,3.2,1.6c9-0.1,18,0,27,0c0.7,0,1.4-0.1,2.2-0.1
		c-8-24.7-34.6-51.6-73.2-51.3C61.3,22.5,35.5,49.7,27.9,73.6z M28,125c7.9,24.8,35.4,53,75.7,51.3c19.5-0.8,36.3-8.2,50.4-21.7
		c8.6-8.3,14.9-18.1,19.1-29.6c-9.9,0-19.4,0-29,0c-1.8,0-2.8,0.5-3.9,2c-9.2,12.9-21.7,20.1-37.6,20.8c-17.9,0.8-32-6.6-42.4-21.1
		c-0.9-1.2-1.7-1.7-3.2-1.6c-3.9,0.1-7.8,0-11.7,0C39.7,125,33.9,125,28,125z M62.6,125.1c10.5,13.8,23.8,20.7,40.6,19.8
		c14.6-0.8,26-7.6,34.9-19.8C112.8,125.1,88,125.1,62.6,125.1z M138.2,73.4c-10.4-13.7-23.6-20.6-40.3-19.7
		c-14.7,0.7-26.3,7.6-35.2,19.7C88,73.4,112.8,73.4,138.2,73.4z M121.2,107.1c0-3.9,0-7.5,0-11.1c1.9,2.7,3.2,5.6,4.7,8.3
		c0.3,0.6,1,1.3,1.5,1.3c0.5,0,1.2-0.8,1.5-1.4c1.5-2.8,2.9-5.6,4.3-8.4c0.2,0,0.3,0.1,0.5,0.1c0,3.7,0,7.3,0,11c1.1,0,1.8,0,2.6,0
		c0-5.3,0-10.5,0-15.6c-3.9-0.6-3.9-0.6-5.5,2.7c-1.1,2.2-2.2,4.5-3.4,7.1c-1.3-2.6-2.3-4.8-3.4-7.1c-1.6-3.2-1.6-3.2-5.5-2.7
		c0,5.2,0,10.4,0,15.7C119.4,107.1,120.1,107.1,121.2,107.1z M143.9,98c0-1.6,0-2.8,0-4.3c2.9,0,5.6,0,8.5,0c-0.1-1-0.1-1.7-0.2-2.4
		c-3.8,0-7.4,0-11,0c0,5.4,0,10.6,0,15.7c3.9,0,7.6,0,11.4,0c-0.1-0.8-0.1-1.5-0.1-2.4c-2.9,0-5.7,0-8.6,0c0-1.5,0-2.8,0-4.3
		c2.6,0,5,0,7.7,0c-0.1-1-0.2-1.6-0.2-2.4C148.8,98,146.4,98,143.9,98z M93.5,91.3c-3.8,0-7.4,0-11,0c0,5.3,0,10.5,0,15.8
		c3.8,0,7.5,0,11.4,0c-0.1-0.9-0.1-1.6-0.1-2.4c-3,0-5.7,0-8.5,0c0-1.4,0-2.7,0-4.2c2.5,0,4.9,0,7.5,0c-0.1-1-0.1-1.7-0.1-2.5
		c-2.6,0-4.9,0-7.4,0c0-1.4,0-2.7,0-4.2c2.8,0,5.5,0,8.3,0C93.5,92.8,93.5,92.1,93.5,91.3z M78.9,91.4c-3.6,0-7,0-10.5,0
		c0,5.3,0,10.5,0,15.7c0.9,0,1.7,0,2.7,0c0-2.1,0-4.2,0-6.4c2.5,0,4.7,0,7.1,0c-0.1-1-0.1-1.7-0.2-2.6c-2.4,0-4.6,0-6.8,0
		c0-1.5,0-2.8,0-4.4c2.7,0,5.1,0,7.7,0C78.9,92.8,78.9,92.1,78.9,91.4z M108.2,91.3c-4.2,0-8.2,0-12.4,0c0,0.8,0.1,1.5,0.1,2.3
		c1.7,0.1,3.2,0.1,4.8,0.2c0,4.5,0,8.8,0,13.2c1,0,1.8,0,2.8,0c0-4.5,0-8.9,0-13.4c1.7,0,3.1,0,4.7,0
		C108.2,92.8,108.2,92.2,108.2,91.3z M58.1,104.6c-2.5,0-4.9,0-7.4,0c0-4.7,0-9,0-13.4c-1,0.1-1.7,0.1-2.5,0.1c0,5.4,0,10.6,0,15.8
		c3.4,0,6.6,0,9.9,0C58.1,106.3,58.1,105.7,58.1,104.6z M61.4,91.3c0,5.3,0,10.6,0,16c1-0.1,1.7-0.1,2.4-0.2c0-5.4,0-10.6,0-15.8
		C62.9,91.3,62.1,91.3,61.4,91.3z M113.7,107.2c0-5.3,0-10.6,0-15.8c-0.9,0-1.6,0-2.5,0c0,5.3,0,10.5,0,15.8
		C112.1,107.2,112.9,107.2,113.7,107.2z"/>
	<path class="st1" d="M27.9,73.6c7.6-23.8,33.4-51.1,71.8-51.4c38.6-0.4,65.2,26.6,73.2,51.3c-0.8,0.1-1.5,0.1-2.2,0.1
		c-9,0-18,0-27,0c-1.4,0-2.3-0.4-3.2-1.6c-19.7-28.4-60.4-28.4-80.3-0.1c-0.5,0.7-1.5,1.6-2.2,1.6C48.1,73.6,38.1,73.6,27.9,73.6z
		 M90.7,44.7c1.2-0.3,2-0.6,3.1-0.8c-1.2-4.9-2.4-9.6-3.6-14.3c-3.4,0.5-3.4,0.5-3.8,3.5c-0.2,2.1-0.5,4.2-0.8,6.8
		c-1.6-2.3-2.9-3.9-3.9-5.8c-1.2-2.3-2.8-2.5-5-1.1c1.1,4.6,2.3,9.3,3.5,14.2c1.1-0.3,1.9-0.5,3-0.8c-0.8-3-1.5-5.8-2.4-9.2
		c1.6,2.2,2.7,4,4,5.6c0.4,0.6,1.2,0.9,1.8,1.4c0.3-0.7,0.7-1.3,0.8-2c0.3-2.1,0.6-4.2,0.9-6.3c0.1,0,0.2,0,0.3,0
		C89.3,38.8,89.9,41.6,90.7,44.7z M138.4,39.8c-3.1,4-6,7.9-9.1,12c3.2,2.1,5.8,5.6,10.1,4c3.2-1.2,5.3-3.8,5.5-7.2
		C145.4,43.9,141.3,42.4,138.4,39.8z M127.9,44c0.4-1,0.7-1.7,1-2.5c-1.6-0.7-3-1.4-4.5-2.1c0.4-0.9,0.8-1.7,1.2-2.6
		c1.8,0.8,3.6,1.5,5.4,2.2c0.4-1,0.7-1.7,1.1-2.6c-2.9-1.2-5.7-2.4-8.6-3.6c-2,4.7-3.8,9.1-5.8,13.8c3,1.3,5.8,2.5,8.8,3.7
		c0.4-1,0.7-1.7,1.1-2.6c-1.9-0.8-3.7-1.6-5.6-2.5c0.5-1.1,0.9-2,1.3-3C124.9,42.7,126.3,43.3,127.9,44z M111.2,45
		c0.7-4.2,1.4-7.9,2-11.8c1.4,0.2,2.6,0.3,4,0.4c0.2-0.9,0.3-1.7,0.5-2.7c-3.9-0.6-7.6-1.3-11.4-1.9c-0.2,1.1-0.3,1.8-0.4,2.7
		c1.3,0.3,2.6,0.6,3.9,1c-0.6,3.9-1.3,7.7-1.9,11.7C109.1,44.6,110,44.7,111.2,45z M54.7,45.7c3.1,4.1,6,7.9,9,11.9
		c2.6-2,5-3.8,7.4-5.6c-0.7-0.9-1.2-1.5-1.8-2.2c-1.6,1.2-3,2.3-4.6,3.5c-2.5-3.2-4.8-6.3-7.3-9.6C56.5,44.4,55.7,45,54.7,45.7z
		 M100.7,43.9c0-5,0-9.9,0-14.7c-1.2,0-2.2,0-3.1,0c0,5,0,9.8,0,14.7C98.8,43.9,99.7,43.9,100.7,43.9z M70.1,35.8c-1,0.5-2,1-3,1.6
		c2.3,4.5,4.5,8.8,6.7,13.3c1.1-0.6,2-1.1,3-1.6C74.6,44.6,72.4,40.3,70.1,35.8z M151.9,57.4c-0.6,2.8-2.4,3.6-5.1,3.7
		c2.9,1.3,2.7,3.4,2.1,5.8c2.1-2.1,4-1.6,6.2-0.1c-1.4-2.7-0.4-4.3,1.8-5.8C154.2,61.1,152.5,60.2,151.9,57.4z M49,57.4
		c-0.7,2.7-2.3,3.8-5,3.6c2.4,1.4,2.8,3.4,1.9,5.9c2.1-1.8,4-1.8,6.1,0c-0.8-2.5-0.5-4.4,2-5.8C51.4,61.1,49.5,60.3,49,57.4z"/>
	<path class="st1" d="M28,125c6,0,11.8,0,17.5,0c3.9,0,7.8,0.1,11.7,0c1.5,0,2.3,0.4,3.2,1.6c10.4,14.5,24.5,21.9,42.4,21.1
		c15.8-0.7,28.4-7.9,37.6-20.8c1.1-1.5,2.1-2,3.9-2c9.5,0.1,19,0,29,0c-4.2,11.5-10.4,21.3-19.1,29.6
		c-14.1,13.5-30.9,20.9-50.4,21.7C63.3,178.1,35.8,149.8,28,125z M54.3,146.2c-0.1-0.1-0.1-0.1-0.2-0.2c2-2.9,4.1-5.7,6-8.5
		c-0.9-2-2-2.4-3.8-1.2c-2.3,1.5-4.8,2.7-7.2,4.1c-0.1-0.1-0.1-0.2-0.2-0.2c2.2-2.7,4.4-5.3,6.7-8c-0.8-0.9-1.5-1.6-2.3-2.5
		c-3.1,4-6.1,7.9-9.1,11.9c1,1.1,1.9,2.1,2.8,3.1c2.7-1.6,5.2-3,7.8-4.5c0.1,0.1,0.1,0.2,0.2,0.3c-1.7,2.4-3.5,4.8-5.2,7.2
		c1,1.1,1.9,2.1,2.8,3.1c4.3-2.6,8.4-5.2,12.7-7.9c-0.9-0.9-1.5-1.6-2.2-2.4C59.9,142.5,57.1,144.4,54.3,146.2z M133.6,161
		c-1.9-4.4-3.9-8.8-5.8-13.3c-1.1,0.6-1.9,0.9-2.9,1.4c1.2,2.8,2.4,5.5,3.9,8.7c-2.5-2.1-4.7-3.6-6.6-5.4c-1.9-1.8-3.3-1-4.9,0.2
		c1.9,4.5,3.8,8.8,5.8,13.3c1.1-0.5,1.9-0.9,2.9-1.4c-1.3-2.9-2.6-5.7-4-8.9c2.4,1.9,4.5,3.5,6.4,5.3
		C130.1,162.6,131.7,162.7,133.6,161z M77.9,150.1c-1.6,4.7-3.1,9.3-4.7,13.9c1.2,0.4,2.1,0.7,3.1,1.1c0.7-1.8,1.2-3.3,1.8-4.9
		c2.6,0.5,2,2.6,2.2,4.1c0.3,2.5,1.6,3.1,3.9,3.2c-0.4-2.2-0.7-4.2-1-6.1c2.9-1.4,4.1-2.9,4-5.2c-0.2-2.7-2.1-3.6-4.3-4.4
		C81.3,151.2,79.7,150.7,77.9,150.1z M98.9,163.8c0.6-0.5,1.1-0.9,1.6-1.4c2.1-2.3,1.5-6.3-1.4-7.2c-2.5-0.8-5.3-0.8-8.1-1.2
		c-0.4,5.3-0.7,10-1,14.8c1.3,0.1,2.2,0.1,3.2,0.1c0.2-1.8,0.4-3.4,0.5-5c2.6-0.3,2.6,1.8,3,3.1c0.8,2.4,2.4,2.8,4.8,2.5
		C100.7,167.5,99.8,165.6,98.9,163.8z M68.8,161.9c1.2-4.8,2.4-9.4,3.4-14.1c0.1-0.5-0.9-1.4-1.5-1.8c-0.6-0.4-1.8-0.8-2.1-0.5
		c-3.7,3.1-7.3,6.3-11.1,9.6c1.1,0.7,2,1.2,2.9,1.8c0.6-0.6,1.2-1.5,1.9-1.7c0.8-0.2,1.8-0.1,2.5,0.3c0.7,0.5,1.8,1.7,1.7,2.1
		C65.3,160.1,66.6,161,68.8,161.9z M118.2,167.2c-2.2-4.3-4.2-8.6-6.5-12.8c-0.2-0.4-1.4-0.6-2.2-0.5c-0.8,0.1-2.1,0.6-2.2,1.1
		c-0.8,4.7-1.4,9.4-2.1,14.1c2.2,0.3,3.6,0,3.5-2.4c-0.1-1.9,1.5-1.7,2.6-1.7c0.8-0.1,2.2,0.3,2.3,0.8
		C114.5,168.3,116.1,168,118.2,167.2z M139.5,139.3c2.6,0.7,5.1,1.1,7.4,2c2.3,0.9,4.5,2.3,6.9,3.5c0.4-0.5,1.1-1.3,1.9-2.3
		c-5.2-2.6-5.9-8.2-8.6-12.4c-2.2,1.4-2.3,3-0.9,4.8c0.7,1,1.2,2.2,2.1,3.7c-1.7-0.6-3-0.8-4.1-1.4
		C141.9,136.2,140.5,136.9,139.5,139.3z M134.7,146.4c2.4,3.1,4.8,6.2,7.3,9.4c1-0.8,1.8-1.4,2.6-2.1c-2.4-3.2-4.8-6.2-7.2-9.3
		c1.1-0.9,2-1.8,3.1-2.7c-0.6-0.8-1.2-1.4-1.8-2.1c-3.1,2.4-6,4.6-9,6.9c0.7,0.9,1.2,1.5,1.8,2.2
		C132.6,147.9,133.5,147.2,134.7,146.4z"/>
	<path class="st1" d="M62.6,125.1c25.4,0,50.2,0,75.5,0c-8.9,12.1-20.3,18.9-34.9,19.8C86.4,145.8,73.1,138.9,62.6,125.1z
		 M96.4,140.6c2.7-3,5.3-2.1,8.2-0.1c-2-3.5-0.4-5.7,2.3-7.6c-3.7,0.4-5.6-1.2-6.5-4.7c-0.8,3.5-2.8,5.1-6.5,4.8
		C96.8,134.8,98,137,96.4,140.6z M80.6,137.6c0.9-0.5,1.9-1.3,2.8-1.3c1,0,1.9,0.8,2.4,1c0.6-1.9,1.2-3.7,1.8-5.6
		c-2.1,0.6-3.4-1-4.3-3.6c-0.3,3.1-2.3,3.6-4.8,3.8C80.7,133.3,81.4,135,80.6,137.6z M122.4,131.8c-2.8,0.3-4.1-1.2-5-3.6
		c-0.4,2.9-2.3,3.6-4,3.5c0.6,1.9,1.1,3.7,1.7,5.6c1.4-1.5,3.4-1.3,5.6,0.4C119.2,135,120.4,133.4,122.4,131.8z"/>
	<path class="st1" d="M138.2,73.4c-25.4,0-50.2,0-75.6,0c9-12.1,20.5-19,35.2-19.7C114.6,52.9,127.8,59.8,138.2,73.4z M96.4,69.8
		c2.7-2.5,5.3-2.4,8,0c-1.4-3.3-0.7-5.8,2.5-7.8c-3.9,0.7-5.5-1.5-6.6-4.7c-0.8,3.5-2.8,5.1-6.5,4.8C97.1,64,97.7,66.5,96.4,69.8z
		 M86.4,69.7c-1.2-2.6-0.1-4.3,1.9-6c-3.2,0.9-3.9-1.3-5.2-3.9c-0.4,3.3-2.1,4.2-4.7,4.2c2.6,1.4,2.8,3.3,1.9,5.8
		C82.4,68.2,84.3,67.7,86.4,69.7z M122.3,63.8c-2.9,0.5-4-1.2-5-3.5c-0.5,2.8-2.2,3.7-4.9,3.6c2.6,1.4,2.6,3.4,2.1,5.9
		c2.1-2.1,3.9-1.5,6.1-0.1C119.1,67,120.6,65.5,122.3,63.8z"/>
	<path class="st1" d="M121.2,107.1c-1.1,0-1.8,0-2.7,0c0-5.3,0-10.5,0-15.7c3.9-0.6,3.9-0.6,5.5,2.7c1.1,2.2,2.2,4.5,3.4,7.1
		c1.2-2.6,2.3-4.8,3.4-7.1c1.6-3.2,1.6-3.2,5.5-2.7c0,5.1,0,10.3,0,15.6c-0.8,0-1.5,0-2.6,0c0-3.7,0-7.3,0-11
		c-0.2,0-0.3-0.1-0.5-0.1c-1.4,2.8-2.8,5.7-4.3,8.4c-0.3,0.6-1,1.4-1.5,1.4c-0.5,0-1.2-0.8-1.5-1.3c-1.5-2.8-2.9-5.6-4.7-8.3
		C121.2,99.7,121.2,103.3,121.2,107.1z"/>
	<path class="st1" d="M143.9,98c2.5,0,4.9,0,7.4,0c0.1,0.8,0.1,1.4,0.2,2.4c-2.6,0-5.1,0-7.7,0c0,1.6,0,2.8,0,4.3c2.8,0,5.6,0,8.6,0
		c0.1,0.9,0.1,1.5,0.1,2.4c-3.8,0-7.5,0-11.4,0c0-5.2,0-10.3,0-15.7c3.6,0,7.2,0,11,0c0.1,0.7,0.1,1.4,0.2,2.4c-2.9,0-5.6,0-8.5,0
		C143.9,95.2,143.9,96.5,143.9,98z"/>
	<path class="st1" d="M93.5,91.3c0,0.8,0,1.5,0,2.4c-2.8,0-5.4,0-8.3,0c0,1.5,0,2.8,0,4.2c2.4,0,4.8,0,7.4,0c0,0.9,0.1,1.6,0.1,2.5
		c-2.6,0-5,0-7.5,0c0,1.5,0,2.8,0,4.2c2.8,0,5.6,0,8.5,0c0.1,0.9,0.1,1.6,0.1,2.4c-3.9,0-7.6,0-11.4,0c0-5.2,0-10.4,0-15.8
		C86.1,91.3,89.6,91.3,93.5,91.3z"/>
	<path class="st1" d="M78.9,91.4c0,0.7,0,1.4,0,2.3c-2.5,0-5,0-7.7,0c0,1.6,0,2.9,0,4.4c2.2,0,4.4,0,6.8,0c0.1,0.9,0.1,1.6,0.2,2.6
		c-2.4,0-4.7,0-7.1,0c0,2.3,0,4.3,0,6.4c-1,0-1.8,0-2.7,0c0-5.3,0-10.4,0-15.7C71.9,91.4,75.3,91.4,78.9,91.4z"/>
	<path class="st1" d="M108.2,91.3c0,0.9,0,1.5,0,2.4c-1.5,0-2.9,0-4.7,0c0,4.5,0,8.9,0,13.4c-1.1,0-1.8,0-2.8,0c0-4.4,0-8.7,0-13.2
		c-1.7-0.1-3.1-0.1-4.8-0.2c0-0.8-0.1-1.5-0.1-2.3C100,91.3,104,91.3,108.2,91.3z"/>
	<path class="st1" d="M58.1,104.6c0,1.2,0,1.8,0,2.5c-3.3,0-6.5,0-9.9,0c0-5.2,0-10.4,0-15.8c0.8,0,1.5-0.1,2.5-0.1
		c0,4.4,0,8.7,0,13.4C53.2,104.6,55.6,104.6,58.1,104.6z"/>
	<path class="st1" d="M61.4,91.3c0.7,0,1.5,0,2.4,0c0,5.2,0,10.4,0,15.8c-0.7,0.1-1.4,0.1-2.4,0.2C61.4,101.9,61.4,96.7,61.4,91.3z"
		/>
	<path class="st1" d="M113.7,107.2c-0.9,0-1.6,0-2.5,0c0-5.3,0-10.5,0-15.8c0.8,0,1.6,0,2.5,0C113.7,96.6,113.7,101.8,113.7,107.2z"
		/>
	<path class="st2" d="M90.7,44.7c-0.7-3.1-1.4-5.9-2-8.6c-0.1,0-0.2,0-0.3,0c-0.3,2.1-0.5,4.2-0.9,6.3c-0.1,0.7-0.5,1.3-0.8,2
		c-0.6-0.5-1.4-0.8-1.8-1.4c-1.3-1.7-2.5-3.4-4-5.6c0.9,3.4,1.6,6.2,2.4,9.2c-1.1,0.3-1.9,0.5-3,0.8c-1.2-4.9-2.4-9.6-3.5-14.2
		c2.2-1.4,3.8-1.3,5,1.1c1,1.9,2.3,3.5,3.9,5.8c0.3-2.6,0.5-4.7,0.8-6.8c0.3-3,0.3-3,3.8-3.5c1.2,4.7,2.3,9.4,3.6,14.3
		C92.7,44.1,91.9,44.3,90.7,44.7z"/>
	<path class="st2" d="M138.4,39.8c2.9,2.6,7,4.1,6.6,8.7c-0.3,3.4-2.3,6-5.5,7.2c-4.4,1.6-6.9-1.8-10.1-4
		C132.4,47.7,135.3,43.9,138.4,39.8z M134,51.3c0,0.3,0,0.6,0,1c1.4,0.2,2.9,0.8,4.1,0.4c2.1-0.7,3.4-2.6,3.7-4.8
		c0.2-1.7-0.8-2.8-2.4-3.6C137.5,46.6,135.7,49,134,51.3z"/>
	<path class="st2" d="M127.9,44c-1.7-0.7-3.1-1.3-4.6-1.9c-0.4,1-0.8,1.9-1.3,3c1.9,0.8,3.7,1.6,5.6,2.5c-0.4,0.9-0.7,1.6-1.1,2.6
		c-3-1.3-5.8-2.5-8.8-3.7c2-4.7,3.8-9,5.8-13.8c2.9,1.2,5.6,2.4,8.6,3.6c-0.4,0.9-0.7,1.7-1.1,2.6c-1.9-0.8-3.6-1.5-5.4-2.2
		c-0.4,0.9-0.8,1.7-1.2,2.6c1.5,0.7,2.9,1.4,4.5,2.1C128.6,42.3,128.3,43,127.9,44z"/>
	<path class="st2" d="M111.2,45c-1.2-0.2-2.1-0.4-3.3-0.6c0.6-4,1.3-7.8,1.9-11.7c-1.3-0.3-2.6-0.6-3.9-1c0.1-0.9,0.2-1.6,0.4-2.7
		c3.8,0.6,7.5,1.2,11.4,1.9c-0.2,1-0.3,1.8-0.5,2.7c-1.3-0.2-2.5-0.3-4-0.4C112.6,37,111.9,40.8,111.2,45z"/>
	<path class="st2" d="M54.7,45.7c1-0.8,1.8-1.3,2.7-2c2.5,3.2,4.8,6.3,7.3,9.6c1.6-1.2,3-2.3,4.6-3.5c0.6,0.7,1.1,1.3,1.8,2.2
		c-2.5,1.9-4.8,3.7-7.4,5.6C60.7,53.6,57.8,49.8,54.7,45.7z"/>
	<path class="st2" d="M100.7,43.9c-1,0-1.9,0-3.1,0c0-4.9,0-9.7,0-14.7c0.9,0,1.8,0,3.1,0C100.7,34,100.7,38.8,100.7,43.9z"/>
	<path class="st2" d="M70.1,35.8c2.3,4.5,4.4,8.8,6.7,13.2c-1,0.5-1.9,1-3,1.6c-2.2-4.4-4.4-8.7-6.7-13.3
		C68.2,36.9,69.1,36.4,70.1,35.8z"/>
	<path class="st2" d="M151.9,57.4c0.6,2.8,2.3,3.7,5,3.6c-2.1,1.5-3.1,3.2-1.8,5.8c-2.2-1.5-4.1-2-6.2,0.1c0.6-2.5,0.8-4.6-2.1-5.8
		C149.5,61.1,151.3,60.2,151.9,57.4z"/>
	<path class="st2" d="M49,57.4c0.5,2.9,2.4,3.6,5,3.7c-2.5,1.4-2.8,3.4-2,5.8c-2.1-1.8-4-1.8-6.1,0c0.9-2.5,0.5-4.4-1.9-5.9
		C46.7,61.2,48.3,60.1,49,57.4z"/>
	<path class="st2" d="M54.3,146.2c2.8-1.9,5.7-3.8,8.7-5.8c0.7,0.7,1.3,1.4,2.2,2.4c-4.3,2.7-8.5,5.2-12.7,7.9c-1-1.1-1.8-2-2.8-3.1
		c1.8-2.4,3.5-4.8,5.2-7.2c-0.1-0.1-0.1-0.2-0.2-0.3c-2.5,1.5-5.1,2.9-7.8,4.5c-0.9-1-1.7-1.9-2.8-3.1c3-3.9,6-7.8,9.1-11.9
		c0.8,0.9,1.5,1.6,2.3,2.5c-2.2,2.7-4.5,5.4-6.7,8c0.1,0.1,0.1,0.2,0.2,0.2c2.4-1.4,4.9-2.6,7.2-4.1c1.8-1.2,2.9-0.8,3.8,1.2
		c-2,2.8-4,5.6-6,8.5C54.1,146.1,54.2,146.2,54.3,146.2z"/>
	<path class="st2" d="M133.6,161c-2,1.7-3.5,1.6-5.2,0c-1.9-1.8-4.1-3.4-6.4-5.3c1.4,3.1,2.7,5.9,4,8.9c-1,0.5-1.8,0.8-2.9,1.4
		c-1.9-4.5-3.8-8.8-5.8-13.3c1.6-1.3,3-2.1,4.9-0.2c1.9,1.9,4.1,3.4,6.6,5.4c-1.4-3.2-2.6-5.9-3.9-8.7c0.9-0.5,1.7-0.9,2.9-1.4
		C129.8,152.2,131.7,156.6,133.6,161z"/>
	<path class="st2" d="M77.9,150.1c1.8,0.6,3.4,1.1,4.9,1.7c2.2,0.8,4.2,1.7,4.3,4.4c0.1,2.3-1.1,3.8-4,5.2c0.3,1.9,0.7,3.9,1,6.1
		c-2.3-0.1-3.6-0.7-3.9-3.2c-0.2-1.4,0.4-3.5-2.2-4.1c-0.6,1.6-1.2,3.1-1.8,4.9c-1-0.3-1.9-0.6-3.1-1.1
		C74.8,159.4,76.3,154.8,77.9,150.1z M80.3,153.6c-0.5,1.5-0.9,2.7-1.2,3.8c2.8,1.3,4.2,1.2,4.6-0.4C84.4,154.4,82,154.6,80.3,153.6
		z"/>
	<path class="st2" d="M98.9,163.8c0.9,1.9,1.7,3.7,2.7,5.7c-2.4,0.3-4,0-4.8-2.5c-0.4-1.2-0.4-3.4-3-3.1c-0.2,1.6-0.3,3.2-0.5,5
		c-1.1-0.1-1.9-0.1-3.2-0.1c0.3-4.9,0.7-9.6,1-14.8c2.8,0.4,5.6,0.4,8.1,1.2c2.9,0.9,3.5,4.9,1.4,7.2
		C100.1,162.9,99.5,163.3,98.9,163.8z M93.9,161.6c1.8-0.6,3.1-0.8,4.1-1.4c0.3-0.2,0.4-1.8,0.1-2c-1.1-0.7-2.3-1-3.8-1.6
		C94.2,158.4,94.1,159.6,93.9,161.6z"/>
	<path class="st2" d="M68.8,161.9c-2.2-0.9-3.5-1.8-2.4-4.2c0.2-0.4-0.9-1.6-1.7-2.1c-0.7-0.4-1.8-0.6-2.5-0.3
		c-0.7,0.2-1.2,1.1-1.9,1.7c-0.9-0.6-1.8-1.1-2.9-1.8c3.8-3.3,7.4-6.6,11.1-9.6c0.3-0.3,1.5,0.1,2.1,0.5c0.7,0.4,1.7,1.4,1.5,1.8
		C71.3,152.5,70,157.1,68.8,161.9z M67.6,154.1c0.6-1.9,1.1-3.5,1.7-5.5c-1.5,1.5-2.8,2.7-4.1,4C65.9,153.1,66.6,153.5,67.6,154.1z"
		/>
	<path class="st2" d="M118.2,167.2c-2.1,0.9-3.6,1.2-4.5-1.4c-0.2-0.5-1.5-0.8-2.3-0.8c-1.1,0.1-2.7-0.2-2.6,1.7
		c0.1,2.4-1.3,2.7-3.5,2.4c0.7-4.8,1.3-9.5,2.1-14.1c0.1-0.5,1.4-1,2.2-1.1c0.7-0.1,1.9,0,2.2,0.5
		C113.9,158.6,116,162.9,118.2,167.2z M112.2,162.2c-0.9-1.9-1.6-3.4-2.2-4.9c-0.1,0.1-0.3,0.1-0.4,0.2c-0.1,1.6-0.2,3.3-0.3,5.1
		C110.3,162.4,111.1,162.3,112.2,162.2z"/>
	<path class="st2" d="M139.5,139.3c1-2.5,2.4-3.1,4.6-2c1.1,0.6,2.4,0.8,4.1,1.4c-0.8-1.5-1.3-2.7-2.1-3.7c-1.4-1.9-1.3-3.4,0.9-4.8
		c2.7,4.2,3.4,9.8,8.6,12.4c-0.9,1-1.5,1.8-1.9,2.3c-2.4-1.2-4.6-2.6-6.9-3.5C144.6,140.4,142.1,140,139.5,139.3z"/>
	<path class="st2" d="M134.7,146.4c-1.1,0.8-2.1,1.5-3.2,2.3c-0.5-0.7-1.1-1.3-1.8-2.2c3-2.3,5.9-4.6,9-6.9c0.6,0.7,1.1,1.3,1.8,2.1
		c-1,0.9-2,1.7-3.1,2.7c2.4,3.1,4.7,6.1,7.2,9.3c-0.9,0.7-1.6,1.3-2.6,2.1C139.5,152.6,137.1,149.6,134.7,146.4z"/>
	<path class="st2" d="M96.4,140.6c1.6-3.6,0.4-5.8-2.5-7.8c3.7,0.3,5.7-1.2,6.5-4.8c0.9,3.4,2.8,5.1,6.5,4.7c-2.7,2-4.3,4.1-2.3,7.6
		C101.7,138.5,99.1,137.6,96.4,140.6z"/>
	<path class="st2" d="M80.6,137.6c0.8-2.5,0.1-4.3-2.1-5.7c2.5-0.2,4.5-0.7,4.8-3.8c0.9,2.5,2.2,4.2,4.3,3.6
		c-0.6,1.9-1.2,3.7-1.8,5.6c-0.4-0.2-1.4-1-2.4-1C82.4,136.2,81.5,137.1,80.6,137.6z"/>
	<path class="st2" d="M122.4,131.8c-2,1.6-3.2,3.2-1.7,5.9c-2.2-1.7-4.2-1.9-5.6-0.4c-0.6-1.9-1.1-3.7-1.7-5.6
		c1.6,0.1,3.6-0.6,4-3.5C118.3,130.5,119.6,132.1,122.4,131.8z"/>
	<path class="st2" d="M96.4,69.8c1.2-3.3,0.7-5.8-2.5-7.7c3.7,0.3,5.7-1.2,6.5-4.8c1.1,3.2,2.6,5.4,6.6,4.7c-3.2,2-3.9,4.4-2.5,7.8
		C101.7,67.4,99.2,67.3,96.4,69.8z"/>
	<path class="st2" d="M86.4,69.7c-2.2-2-4-1.6-6.1,0c0.8-2.5,0.6-4.4-1.9-5.8c2.6,0,4.4-0.8,4.7-4.2c1.3,2.5,2.1,4.8,5.2,3.9
		C86.3,65.4,85.2,67.1,86.4,69.7z"/>
	<path class="st2" d="M122.3,63.8c-1.8,1.7-3.2,3.2-1.7,5.9c-2.2-1.4-4.1-2.1-6.1,0.1c0.6-2.4,0.5-4.5-2.1-5.9
		c2.7,0,4.3-0.9,4.9-3.6C118.3,62.6,119.5,64.3,122.3,63.8z"/>
	<path class="st2" d="M122.3,131.8c-1.8,1.7-3.2,3.2-1.7,5.9c-2.2-1.4-4.1-2.1-6.1,0.1c0.6-2.4,0.5-4.5-2.1-5.9
		c2.7,0.1,4.3-0.9,4.9-3.6C118.3,130.6,119.5,132.3,122.3,131.8z"/>
	<path class="st2" d="M88.3,131.8c-1.8,1.7-3.2,3.2-1.7,5.9c-2.2-1.4-4.1-2.1-6.1,0.1c0.6-2.4,0.5-4.5-2.1-5.9
		c2.7,0.1,4.3-0.9,4.9-3.6C84.3,130.6,85.5,132.3,88.3,131.8z"/>
	<path class="st1" d="M134,51.3c1.8-2.3,3.5-4.7,5.3-7.1c1.6,0.8,2.6,1.9,2.4,3.6c-0.3,2.2-1.6,4.1-3.7,4.8
		c-1.2,0.4-2.7-0.2-4.1-0.4C133.9,52,133.9,51.7,134,51.3z"/>
	<path class="st1" d="M80.3,153.6c1.7,1,4.1,0.8,3.4,3.4c-0.4,1.6-1.8,1.7-4.6,0.4C79.4,156.3,79.8,155.1,80.3,153.6z"/>
	<path class="st1" d="M93.9,161.6c0.2-2,0.3-3.2,0.5-5c1.5,0.6,2.8,0.9,3.8,1.6c0.3,0.2,0.2,1.8-0.1,2
		C96.9,160.8,95.6,161.1,93.9,161.6z"/>
	<path class="st1" d="M67.6,154.1c-1-0.6-1.7-1-2.4-1.5c1.3-1.3,2.5-2.5,4.1-4C68.7,150.6,68.2,152.2,67.6,154.1z"/>
	<path class="st1" d="M112.2,162.2c-1.2,0.2-2,0.3-3,0.4c0.1-1.9,0.2-3.5,0.3-5.1c0.1-0.1,0.3-0.1,0.4-0.2
		C110.7,158.8,111.4,160.3,112.2,162.2z"/>
</g>
<g>
	<g>
		<path class="st3" d="M192.2,160.6c-62.1,0-124.2,0-186.3,0c0-40.8,0-81.6,0-122.3c62.1,0,124.2,0,186.3,0
			C192.2,79.1,192.2,119.9,192.2,160.6z M120.7,155.1c0.6,1.2,1.2,2.4,1.7,3.7c0.2,0.6,0.5,0.9,1.2,0.9c1.3,0,2.6-0.1,3.9,0
			c1.2,0.1,1.8-0.3,1.9-1.5c0.1-0.6,0.3-1.4,0.7-1.6c1.8-0.9,2.4-2.3,2.2-4.3c0-0.4,0.2-1,0.4-1.1c1.1-0.4,2.2-0.9,3.3-0.9
			c3.5-0.1,7-0.1,10.5-0.1c2.6,0,5.1-0.4,7.2-1.8c3.9-2.3,7.7-4.8,11.5-7.2c0.1-0.1,0.2-0.2,0.3-0.2c1.4-1.1,2.8-0.6,3.3,1.1
			c0.2,0.6,0.3,1.2,0.4,1.8c0.5,2.3,0.9,4.7,1.4,7c0.3,1.5,1,2,2.6,2c1.3,0,2.7-0.1,4,0c1.6,0.1,3.1-0.1,4.5-1
			c1.1-0.7,2.1-1.4,2.5-2.9c3.2-11,4.9-22.3,5-33.8c0.1-10.3-1-20.4-3.2-30.4c-0.5-2.1-1.8-3.7-2.5-5.6c-0.1-0.3-0.7-0.4-1.1-0.5
			c-1.3-0.2-2.7-0.4-4-0.5c-2.4-0.3-3.7-1.9-3.4-4.3c0.1-0.8,0.3-1.5,0.3-2.3c0.1-1,0.5-1.6,1.4-2.1c2.6-1.5,3.8-4,3.4-6.6
			c-0.6-3.4-1.8-4.7-5.2-5.1c-1.9-0.3-4-1.1-5.5,0.7c-1.1,1.3-2.5,2.9-2.6,4.5c-0.2,1.6,0.6,3.6,1.7,4.9c1.2,1.4,1.4,2.7,1.1,4.4
			c-0.1,0.4-0.1,0.9-0.2,1.3c-0.3,1.8-1.9,3.1-3.8,2.9c-4.4-0.6-8.8-1.2-13.1-1.8c-0.3,0-0.7-0.2-0.8-0.4c-0.4-0.7-0.8-1.4-1.2-2.2
			c0.3-0.2,0.8-0.5,1-0.8c0.2-0.3,0.5-0.9,0.4-1.1c-0.4-0.6-0.6-1,0-1.7c0.2-0.2,0-0.8-0.2-1.1c-1.1-1.6-2.2-3.3-3.4-4.8
			c-0.9-1.2-2.7-1.2-3.9-0.3c-0.5,0.3-1,0.5-1.7,0.9c0.1-2.3,0.6-2.9,2.4-3.5c1.6-0.6,2.1-1.5,1.4-3.1c-1.2-2.4-2.7-4.6-4.8-6.4
			c-1.2-1-2.9-0.5-3.5,0.9c-0.1,0.3-0.3,0.6-0.5,0.7c-1,0.5-2.1,0.9-3.1,1.5c-0.7,0.4-1.1,0.2-1.5-0.4c-1.3-1.9-2.6-3.7-4-5.5
			c-1.1-1.5-2.6-2.3-4.4-2.4c-2,0-4.1,0-6.1-0.1c-0.4,0-0.8-0.2-1.2-0.3c0-0.1,0-0.2,0-0.3c0.2-0.1,0.5-0.3,0.7-0.3
			c1.4,0.1,1.8-0.6,1.6-1.9c0-0.3,0-0.6,0-0.9c0-0.7-0.3-1.1-1.1-1.1c-3.7,0-7.3,0.1-11,0.1c-0.7,0-0.9,0.4-0.9,1c0,0.4,0,0.8,0,1.2
			c-0.1,1,0.2,1.6,1.4,1.6c0.3,0,0.6,0.3,0.9,0.5c-0.3,0.1-0.6,0.3-0.9,0.3c-1.9,0.1-3.9,0.1-5.9,0.1c-1.7,0-3,0.6-4.3,1.7
			c-2.7,2.4-5.5,4.7-8.2,7.1c-0.6,0.5-1,0.6-1.7,0c-0.8-0.8-1.8-1.4-2.6-2.2c-0.2-0.2-0.4-0.5-0.5-0.7c-0.5-2-2-2.7-3.7-1.5
			c-1.8,1.3-3.6,2.7-5.3,4.3c-1.7,1.6-1.3,3.1,0.8,4.2c0.3,0.2,0.5,1,0.5,1.5c0,0.4-0.4,0.9-0.7,1.4c-0.6-0.7-1.2-1.7-2.3-0.8
			c0,0-0.2-0.1-0.3-0.1c-0.6,0-1.3-0.1-1.8,0.2c-1.4,0.9-2.6,2.1-3.9,3c-1.4,0.9-0.9,2.4-1.5,3.6c-0.2,0.3,0.5,1.1,0.8,1.6
			c-2.3,0.7-3.3,2.3-2.5,4.3c-2.7,0.9-5.4,2-8.2,2.6c-4.7,0.9-9.4,1.4-14.1,2.1c-0.3,0-0.7,0.1-0.9-0.1c-1.3-0.8-2.7-1.5-2.5-3.5
			c0.1-0.6-0.1-1.2-0.3-1.8c-0.3-1,0-1.8,0.7-2.6c2.3-2.4,2.6-5.8,0.8-8.4c-1.2-1.8-2.8-2.9-5.1-2.5c-1,0.2-2,0.3-3,0.5
			c-2.6,0.5-5.2,4.6-4.2,7c0.6,1.5,1.5,3.2,2.8,4c1.8,1.1,2.3,2.5,2.4,4.3c0,0.6,0.2,1.1,0.2,1.7c0,0.3,0,0.7-0.2,0.9
			c-0.8,1.1-1.6,2.2-3.2,2.3c-1.2,0.1-2.3,0.4-3.5,0.5c-2.8,0.2-5.6,0.4-8.3,0.6c-1.3,0.1-2.2,0.7-2.9,1.9
			c-7.3,13.1-9.8,27-7.9,41.8c1.3,10.3,5,19.8,10.9,28.5c1.6,2.3,3.2,2.9,5.9,2.4c2.2-0.4,4.4-0.7,6.6-0.9c1.7-0.1,3.3,0,5,0
			c1.5,0,2.2-0.6,2.6-2.1c0.2-1,0.5-2,0.6-3c0.3-1.9,0.6-3.7,1-5.6c0.4-1.9,1.9-2.4,3.5-1.3c1.4,1,2.9,1.8,4.3,2.7
			c1.4,0.9,2.9,1.8,4.3,2.7c2.6,1.8,5.2,3.3,8.4,3.5c2.5,0.1,5,0.1,7.4,0.1c0.9,0,1.2,0.3,1.2,1.2c0,1.2,0.1,2.4,0.1,3.5
			c0,1,0.6,1.4,1.6,1.4c1.8,0,3.6-0.1,5.4,0c1.1,0,1.8-0.1,1.8-1.5c0.8,1.4,1.3,2.7,2,4c0.1,0.2,0.6,0.4,0.9,0.4c1.5,0,3.1,0,4.6,0
			c0.8,0,1.1-0.3,1.3-1c0.2-0.7,0.4-1.6,1-1.9c1.8-1,2.3-2.4,2-4.3c-0.1-0.7-0.6-1.3-1-2.1c1.3,0.2,2.6,0.1,3.6,0.5
			c5.7,2.3,11.5,3.9,17.7,4.1c0.3,0,0.9,0.3,1,0.6c0.3,0.7,0.8,0.9,1.5,0.9c1.9,0,3.8,0,5.7,0C120,156.5,120.7,156.3,120.7,155.1z"
			/>
		<path d="M120.7,155.1c-0.1,1.2-0.7,1.5-1.7,1.4c-1.9,0-3.8,0-5.7,0c-0.7,0-1.2-0.2-1.5-0.9c-0.1-0.3-0.6-0.6-1-0.6
			c-6.1-0.3-12-1.8-17.7-4.1c-1.1-0.4-2.3-0.3-3.6-0.5c0.4,0.8,0.8,1.4,1,2.1c0.3,1.8-0.2,3.3-2,4.3c-0.5,0.3-0.8,1.2-1,1.9
			c-0.2,0.8-0.5,1.1-1.3,1c-1.5-0.1-3.1,0-4.6,0c-0.3,0-0.8-0.1-0.9-0.4c-0.7-1.3-1.2-2.7-2-4c0,1.4-0.7,1.5-1.8,1.5
			c-1.8-0.1-3.6,0-5.4,0c-1,0-1.5-0.4-1.6-1.4c0-1.2-0.1-2.4-0.1-3.5c0-0.9-0.3-1.2-1.2-1.2c-2.5,0-5,0-7.4-0.1
			c-3.2-0.2-5.9-1.7-8.4-3.5c-1.4-1-2.8-1.9-4.3-2.7c-1.4-0.9-2.9-1.7-4.3-2.7c-1.6-1.1-3.1-0.6-3.5,1.3c-0.4,1.9-0.7,3.7-1,5.6
			c-0.2,1-0.4,2-0.6,3c-0.4,1.5-1,2-2.6,2.1c-1.7,0-3.3-0.1-5,0c-2.2,0.2-4.4,0.5-6.6,0.9c-2.8,0.5-4.4-0.1-5.9-2.4
			c-5.9-8.6-9.6-18.1-10.9-28.5c-1.9-14.8,0.6-28.7,7.9-41.8c0.7-1.2,1.6-1.8,2.9-1.9c2.8-0.2,5.6-0.4,8.3-0.6
			c1.2-0.1,2.3-0.4,3.5-0.5c1.6-0.1,2.4-1.2,3.2-2.3c0.2-0.2,0.2-0.6,0.2-0.9c0-0.6-0.2-1.1-0.2-1.7c-0.1-1.9-0.6-3.2-2.4-4.3
			c-1.3-0.8-2.2-2.5-2.8-4c-1-2.4,1.6-6.5,4.2-7c1-0.2,2-0.3,3-0.5c2.3-0.4,3.9,0.7,5.1,2.5c1.8,2.6,1.5,6-0.8,8.4
			c-0.8,0.8-1,1.5-0.7,2.6c0.2,0.6,0.3,1.2,0.3,1.8c-0.2,1.9,1.1,2.7,2.5,3.5c0.2,0.1,0.6,0.1,0.9,0.1c4.7-0.7,9.4-1.2,14.1-2.1
			c2.8-0.5,5.5-1.7,8.2-2.6c-0.8-2,0.2-3.6,2.5-4.3c-0.3-0.6-1-1.3-0.8-1.6c0.6-1.2,0.1-2.7,1.5-3.6c1.4-0.9,2.6-2.1,3.9-3
			c0.4-0.3,1.2-0.1,1.8-0.2c0.1,0,0.3,0.2,0.3,0.1c1.1-0.9,1.7,0.1,2.3,0.8c0.3-0.5,0.6-0.9,0.7-1.4c0-0.5-0.1-1.3-0.5-1.5
			c-2.1-1.1-2.5-2.6-0.8-4.2c1.6-1.6,3.4-3,5.3-4.3c1.7-1.2,3.1-0.5,3.7,1.5c0.1,0.3,0.3,0.6,0.5,0.7c0.9,0.7,1.8,1.4,2.6,2.2
			c0.6,0.6,1.1,0.5,1.7,0c2.7-2.4,5.5-4.7,8.2-7.1c1.2-1.1,2.6-1.7,4.3-1.7c2,0,3.9,0,5.9-0.1c0.3,0,0.6-0.2,0.9-0.3
			c-0.3-0.2-0.6-0.5-0.9-0.5c-1.2,0-1.5-0.6-1.4-1.6c0-0.4,0-0.8,0-1.2c0-0.6,0.2-1,0.9-1c3.7,0,7.3,0,11-0.1c0.8,0,1.1,0.4,1.1,1.1
			c0,0.3-0.1,0.6,0,0.9c0.2,1.3-0.2,2-1.6,1.9c-0.2,0-0.5,0.2-0.7,0.3c0,0.1,0,0.2,0,0.3c0.4,0.1,0.8,0.3,1.2,0.3c2,0,4.1,0,6.1,0.1
			c1.9,0,3.3,0.9,4.4,2.4c1.4,1.8,2.7,3.7,4,5.5c0.4,0.6,0.8,0.8,1.5,0.4c1-0.5,2.1-1,3.1-1.5c0.2-0.1,0.4-0.4,0.5-0.7
			c0.7-1.4,2.3-1.9,3.5-0.9c2.1,1.8,3.6,3.9,4.8,6.4c0.8,1.6,0.2,2.6-1.4,3.1c-1.8,0.6-2.3,1.3-2.4,3.5c0.7-0.3,1.2-0.5,1.7-0.9
			c1.2-0.9,3-0.8,3.9,0.3c1.2,1.5,2.3,3.2,3.4,4.8c0.2,0.3,0.3,0.9,0.2,1.1c-0.5,0.6-0.4,1.1,0,1.7c0.1,0.2-0.1,0.8-0.4,1.1
			c-0.3,0.4-0.7,0.6-1,0.8c0.4,0.8,0.8,1.5,1.2,2.2c0.1,0.2,0.5,0.4,0.8,0.4c4.4,0.6,8.8,1.2,13.1,1.8c1.8,0.2,3.5-1.1,3.8-2.9
			c0.1-0.4,0.1-0.9,0.2-1.3c0.4-1.6,0.2-2.9-1.1-4.4c-1.1-1.3-1.9-3.3-1.7-4.9c0.2-1.6,1.5-3.1,2.6-4.5c1.5-1.8,3.6-0.9,5.5-0.7
			c3.5,0.5,4.6,1.7,5.2,5.1c0.4,2.6-0.8,5.1-3.4,6.6c-0.9,0.5-1.3,1.1-1.4,2.1c-0.1,0.8-0.2,1.5-0.3,2.3c-0.3,2.4,1,4,3.4,4.3
			c1.3,0.2,2.7,0.3,4,0.5c0.4,0.1,0.9,0.2,1.1,0.5c0.8,1.9,2.1,3.5,2.5,5.6c2.3,10,3.4,20.1,3.2,30.4c-0.1,11.5-1.8,22.8-5,33.8
			c-0.4,1.5-1.4,2.2-2.5,2.9c-1.4,0.9-2.9,1.1-4.5,1c-1.3-0.1-2.7,0-4,0c-1.5,0-2.2-0.5-2.6-2c-0.5-2.3-1-4.7-1.4-7
			c-0.1-0.6-0.2-1.2-0.4-1.8c-0.5-1.7-1.9-2.2-3.3-1.1c-0.1,0.1-0.2,0.2-0.3,0.2c-3.8,2.4-7.6,4.9-11.5,7.2
			c-2.2,1.3-4.7,1.8-7.2,1.8c-3.5,0-7,0-10.5,0.1c-1.1,0-2.3,0.5-3.3,0.9c-0.2,0.1-0.4,0.7-0.4,1.1c0.2,1.9-0.4,3.4-2.2,4.3
			c-0.4,0.2-0.6,1-0.7,1.6c-0.2,1.2-0.7,1.6-1.9,1.5c-1.3-0.1-2.6-0.1-3.9,0c-0.7,0-0.9-0.3-1.2-0.9
			C122,157.5,121.3,156.3,120.7,155.1z M23.6,83.7c-1.4,0.4-2.7,1-3.8,0.9c-1.9-0.2-2.7,0.7-3.4,2.2c-5.9,12.1-8.1,24.8-5.9,38.2
			c1.2,7.4,3.5,14.3,7.2,20.8c2.7,4.7,2.1,4.3,7.3,3.6c0.2,0,0.3-0.1,0.5-0.2c-3.2-10.7-5-21.5-5.3-32.6
			C19.8,105.7,20.9,94.8,23.6,83.7z M47.8,139.1c-0.1-1.8-0.4-3.4-0.4-5c-0.1-9.6,0-19.2-0.1-28.7c-0.1-5.9,1.1-11.3,4.1-16.4
			c0.9-1.5,1.9-2.9,2.8-4.4c-3.8,2.8-7.1,5.9-8.6,10.5c-0.8,2.5-1.3,5.2-1.9,7.8c-0.6,2.7-0.8,5.5-2.7,7.7c-0.3,0.3-0.3,0.9-0.3,1.4
			c0.2,2.3,0.3,4.5,0.6,6.8c0.4,3.9,1,7.8,1.4,11.7c0.2,1.3-0.1,2.8,0.5,3.9C44.1,136.3,45.9,137.7,47.8,139.1z M78.5,133
			c-2-4-3.8-7.6-5.6-11.4c-0.2,0.2-0.5,0.4-0.7,0.6c0.3,0.5,0.7,0.9,0.9,1.4c1,1.8,0.1,3.3-1.9,3.2c-1,0-1.9,0-2.9,0
			c-1.7,0-2.5-0.9-2.5-2.7c1.1-0.1,2.2-0.1,3.6-0.2c-1.3-1.2-1.5-2.2,0.2-3.3c-1.3,0-2,0-2.8,0c0.6-3,2.9-2.7,5.1-2.6
			c-0.3-1.5-0.7-2.9-0.8-4.2c-0.1-1-0.4-1.2-1.3-1.2c-2.1,0.1-4.1,0-6.2,0c-1.4,0-2.4,1-2.4,2.4c0,5.8,0,11.6,0,17.4
			c0,0.8,0.1,1.5,0.2,2.2c0.9-0.1,1.7-0.3,2.5-0.4c0.9-0.1,0.9-0.7,1-1.2c-0.4,0-0.7,0.2-1,0.2c-0.5,0-0.9-0.1-1.4-0.2
			c0.3-0.3,0.5-0.7,0.9-0.9c1-0.5,1.9-0.9,2-2.3c0-0.6,1-1.1,1.6-1.5c0.2-0.1,1.1,0.3,1.1,0.4c-0.1,0.7-0.1,1.6-0.6,1.9
			c-1.5,1.1-1,2.9-1.8,4.2c1.2,0.3,2,0.1,2.7-0.8c1-1.1,1.7-1.1,3-0.2c0.2,0.1,0.5,0.2,0.7,0.1C74.1,133.6,76.1,133.3,78.5,133z
			 M60.7,100.7c0.8-4.1,2.4-7.8,5-10.9c2.6-3.2,5.9-5.4,9.7-6.9c-0.8-2.1-1.5-4.1-2.2-6.1c-10.8,3.5-19.2,15-19.4,25.9
			c1.2-0.6,2.3-1.2,3.4-1.7c0.4-0.2,0.9-0.2,1.3-0.2C59.3,100.7,59.9,100.7,60.7,100.7z M113.6,149.4c23.3-0.3,42.1-19,42.2-42.1
			c0.1-23.5-19-42.7-42.8-42.4c-23,0.3-41.6,19.1-41.6,42.4C71.2,130.1,90.6,149.4,113.6,149.4z M188,107.1
			c-0.4-8.1-1.7-16.3-3.8-24.4c-0.1-0.2-0.1-0.5-0.3-0.5c-1-0.4-1.6-1.3-2.9-1.1c-1.2,0.2-2.5-0.1-3.8-0.1c-0.8,0-1.7,0-2.7,0
			c0.5,1.7,1,3.3,1.5,4.9c0.1,0.3,0.4,0.5,0.7,0.6c2.2,1,3.2,2.7,3.5,5c0.6,5.1,1.3,10.3,2,15.4C184,106.9,186,107,188,107.1z
			 M34.7,81.4c-1.8,0.1-3.3,0.2-4.9,0.4c-1.4,0.2-3-0.6-4,1.2c-0.3,0.5-0.8,0.9-1,1.6c-1.8,7.1-2.8,14.3-3.3,21.6c0,0.7,0,1.3,0,1.7
			c2.1-0.1,4-0.2,6-0.3c0-0.7-0.1-1.4,0-2.1c0.5-4.5,1.1-9,1.6-13.5c0.3-2.2,1.3-3.9,3.4-4.8c0.3-0.1,0.6-0.3,0.7-0.6
			C33.7,84.8,34.2,83.2,34.7,81.4z M113.4,48.8C113.4,48.8,113.4,48.8,113.4,48.8c-2.5,0-5,0-7.5,0c-1.3,0-1.8,0.5-1.8,1.9
			c0,1.7,0,3.3,0,5c0,1.3,0.5,1.8,1.9,1.8c0.8,0,1.7-0.2,2.5-0.2c4.1,0,8.2,0.1,12.2,0.1c1.2,0,1.8-0.5,1.8-1.8c0-1.6,0-3.2,0-4.9
			c0-1.5-0.5-2-2.1-2C118.2,48.8,115.8,48.8,113.4,48.8z M77.5,83.3c-0.1,0-0.2-0.1-0.3-0.1c-0.2,0-0.4,0.1-0.6,0.2
			c-7.8,2.9-12.9,8.3-14.9,16.4c-0.3,1.4,0.3,2.2,1.7,2.2c2.2,0,4.4,0,6.6,0c0.8,0,1.1-0.3,1.2-1c0.5-4.2,1.7-8.2,3.5-12
			C75.4,87.1,76.5,85.2,77.5,83.3z M53.8,112c0,7,0,13.7,0,20.4c0,0.3,0.5,0.8,0.8,0.8c1.7,0.1,3.4,0,5.1,0c0.7,0,0.9-0.3,0.9-1
			c0-5.8-0.1-11.6-0.1-17.4c0-0.7-0.3-0.9-1-0.9c-0.7,0-1.4,0-2-0.2C56.3,113.3,55.1,112.7,53.8,112z M30.1,127.2c0,0,0-0.1,0-0.1
			c-1.7,0-3.4,0-5.1,0c-1,0-1.6,0.5-1.9,1.5c-0.6,2,0.3,3.7,1.2,5.4c0.5,1,1.2,1.6,2.4,1.6c3.6,0,7.1,0,10.7,0
			c0.8,0,1.1-0.5,1.3-1.2c0.6-2.1,0.2-4-0.5-5.9c-0.3-0.9-0.9-1.3-1.8-1.3C34.2,127.2,32.1,127.2,30.1,127.2z M177.2,135.1
			C177.2,135.1,177.2,135.1,177.2,135.1c1.4,0,2.8,0.1,4.1,0c1.1-0.1,2.4-0.2,3.3-0.8c1.6-1.1,2.5-5.1,1.6-6.9
			c-0.2-0.4-0.8-0.9-1.2-0.9c-4,0-8,0-12,0.2c-0.5,0-1.2,0.6-1.5,1.2c-0.9,1.8-1.1,3.7-0.7,5.7c0.2,1.1,0.9,1.6,1.9,1.6
			C174.3,135.1,175.8,135.1,177.2,135.1z M30.1,114.3C30.1,114.3,30.1,114.3,30.1,114.3c-2,0-4,0.1-6,0.2c-0.9,0-1.4,0.5-1.8,1.4
			c-0.8,2-0.6,4,0.4,5.8c0.3,0.5,0.9,1,1.4,1.1c3.9,0.1,7.9,0.1,11.8,0.1c1,0,1.4-0.6,1.3-1.5c-0.3-1.9-0.7-3.9-1.1-5.8
			c-0.2-0.9-0.9-1.3-1.8-1.3C33,114.3,31.6,114.3,30.1,114.3z M178.8,122.4c0,0,0,0.1,0,0.1c2.1-0.1,4.2-0.2,6.3-0.4
			c0.6-0.1,1.3-0.5,1.5-0.9c1.1-1.9,1.4-3.9,0.5-6.1c-0.3-0.8-0.8-1.3-1.7-1.3c-3.6,0-7.1-0.1-10.7,0c-0.4,0-1.1,0.4-1.2,0.7
			c-0.5,2-1,4.1-1.3,6.1c-0.2,1.1,0.6,1.8,1.8,1.8C175.6,122.4,177.2,122.4,178.8,122.4z M162.3,138.5c1.2-1.2,2.3-2.3,3.3-3.3
			c0.8-0.8,1.1-1.7,1.1-2.8c0.1-2.3,0.3-4.7,0.6-7c0.4-3.3,0.9-6.6,1.2-9.9c0.2-2.4,0.3-2.1-1.9-2.1c-1.1,0-1.8-0.3-1.8-1.6
			c0.1-1.1-0.8-0.8-1.4-0.9c-0.7-0.1-1.1,0.2-1.1,1C162.4,120.7,163,129.4,162.3,138.5z M36,87.6c-2.5-0.3-4.9,0.8-5.5,2.9
			c-0.6,2.2-0.8,4.5-1.2,6.9c2-0.6,3.1-0.4,3.7,0.5c0.5,1,0.6,2-0.2,2.8c-0.3,0.3-0.7,0.6-1.1,0.6c-0.9,0-1.7-0.2-2.7-0.4
			c-0.2,1.4-0.4,3-0.6,4.6c-0.2,1.8,0.8,2.9,2.6,2.9c1,0,2,0,3,0c2.2-0.1,3.4-1.3,3.7-3.4c0.3-2.4,0.6-4.8,0.9-7.2
			c0.3-2.1,0.5-4.3,0.8-6.5c-1.7,0.9-2.9,0.9-3.7,0C34.8,90.3,34.9,89.1,36,87.6z M53.9,134.1c-0.2,1.9,0.5,4.4,1.9,6.8
			c2.5,4.3,6.3,6.6,11.2,7.4c0.9,0.1,1.4,0,1.3-1.1c-0.1-1.6-0.1-3.2-0.1-4.7c0-0.7-0.2-1-1-1.1c-2.2-0.2-4-1.2-5.2-3.1
			c-0.8-1.2-1.2-2.7-1.9-4.2C58.4,134.1,56.2,134.1,53.9,134.1z M170.1,90.8c0,0.2,0,0.4,0,0.6c0.6,4.5,1.2,9.1,1.9,13.6
			c0.2,1.5,1.3,2.6,2.8,2.8c1.4,0.1,2.9,0.1,4.4,0c1.2-0.1,2.1-1.1,2.1-2.2c-0.2-1.9-0.5-3.7-0.7-5.7c-1.4,1-2.7,1.2-3.6,0.5
			c-0.8-0.6-1-2-0.5-3c0.6-1.1,1.5-1.3,3.7-0.7c-0.3-2.1-0.5-4.2-1-6.3c-0.6-2.6-3.9-4.1-5.6-3.3c0.9,1.3,1,2.6,0.3,3.5
			C173,91.5,172,91.6,170.1,90.8z M30.7,139.4C30.7,139.4,30.7,139.4,30.7,139.4c-0.6,0.1-1.1,0.1-1.7,0.1c-0.6,0-1.2,0-1.8,0
			c-1.8,0.1-2.4,0.6-1.9,2.3c0.4,1.7,1.4,3.2,2.2,4.8c0.6,1.1,1.7,1.5,2.9,1.4c1.7-0.1,3.5-0.1,5.2-0.3c0.7-0.1,1.7-0.4,2-1
			c0.6-0.9,1-2,1.3-3.1c0.6-2.1-0.2-3.4-2.4-3.7C34.5,139.6,32.6,139.5,30.7,139.4z M177.1,147.2
			C177.1,147.3,177.1,147.3,177.1,147.2c1,0.1,2,0.2,3,0c0.6-0.1,1.5-0.3,1.8-0.7c1-1.6,1.8-3.3,2.6-5c0.2-0.4,0.1-1,0.1-1.5
			c-0.1-0.8-0.6-1.2-1.4-1.2c-1.9,0-3.8,0-5.7,0.1c-1.6,0.1-3.2,0.2-4.7,0.5c-1.4,0.3-1.8,0.9-1.9,2.4c-0.1,1.8,0.7,3.4,1.7,4.7
			c0.5,0.6,1.9,0.5,2.9,0.7C176,147.2,176.6,147.2,177.1,147.2z M86.7,147.6c-2.5-2.1-4.8-3.9-7.1-5.8c-0.3-0.2-0.6-0.4-1-0.4
			c-3,0-5.9,0-8.9,0c-0.3,0-0.8,0.4-0.8,0.6c-0.1,2,0,4.1,0,6.3c0.7,0,1.2,0,1.7,0c4.3,0.3,8.6-0.4,12.9-0.7
			C84.4,147.5,85.5,147.6,86.7,147.6z M156.5,133.5c-2,0-4,0-6,0c-0.2,0-0.6,0.2-0.6,0.4c-0.2,1.3-0.5,2.5-0.6,3.8
			c-0.1,1.2-0.1,2.3-0.9,3.3c-0.3,0.3-0.4,0.8-0.6,1.2c-0.8,0.5-1.6,0.9-2.4,1.4c-0.7,0.5-1.3,1.2-2,1.6c-1.1,0.7-1.2,1.6-0.8,2.7
			C150.4,147.7,156.9,140.3,156.5,133.5z M78.2,140.7c0.1-2.3,0.2-4.4,0.3-6.5c-0.3,0-0.5-0.1-0.6,0c-1.6,0.5-3.3,0.2-4.8,1.4
			c-1,0.7-2.9,0.4-4.4,0.4c-2.2-0.1-4.5-0.3-6.7,0.7c1.3,2.4,3.2,3.9,5.9,4C71.4,140.8,74.9,140.7,78.2,140.7z M86.4,72.4
			c17.8-11.7,35.6-11.8,53.6-0.5C128.1,59.1,99.5,58.4,86.4,72.4z M50.6,133.8c2.5-0.3,2.5-0.3,2.5-2.4c0-8.1,0-16.2-0.1-24.4
			c0-2.3,0-2.3-2.4-2.4C50.6,114.4,50.6,124,50.6,133.8z M140.3,141.9c-8,5.7-16.9,8.7-26.7,8.7c-9.8,0-18.6-2.9-26.7-8.5
			C100.4,156.1,128.9,154.8,140.3,141.9z M156.6,112.5c-0.1,0-0.1,0-0.2,0c-0.1,0.4-0.4,0.8-0.4,1.2c-0.9,5.5-2.7,10.6-5.5,15.5
			c-0.5,0.8-0.5,1.8-0.7,2.8c-0.1,0.7,0.3,0.9,0.9,0.9c1.7,0,3.3,0,5,0c0.7,0,0.9-0.3,0.9-1C156.6,125.4,156.6,119,156.6,112.5z
			 M175.2,86.1c-0.5-1.7-0.9-3.3-1.4-4.8c-0.1-0.3-0.4-0.6-0.6-0.6c-2.8-0.4-5.7-0.8-8.6-1.1c0,0.3,0,0.5,0,0.6
			c0.8,3.3,1.1,6.7,2.9,9.7c1.1,1.9,1.5,4.1,2.3,6.4c-0.2-1.2-0.3-2.3-0.4-3.3c-0.1-1.1-0.3-2.2-0.4-3.3c-0.3-2.2,0.9-3.6,3.1-3.6
			C173.1,86.1,174.1,86.1,175.2,86.1z M44.8,80c-3,0.4-5.8,0.8-8.7,1.3c-0.2,0-0.6,0.2-0.6,0.4c-0.5,1.6-0.9,3.1-1.4,4.9
			c0.7,0,1.1,0,1.5,0c4.7-0.4,5.1,1.7,4.6,5.2c-0.3,1.7-0.4,3.3-0.6,5c0.8-3.2,1.8-6.2,3.5-9c0.1-0.2,0.2-0.4,0.2-0.6
			C43.7,85,44.2,82.7,44.8,80z M56.1,104.6c2.1,0.6,2.7,1.2,2.8,2.7c0,1.4-0.6,2.2-2.1,2.7c4.3,0,8.9,0,13.2,0
			c-0.4-0.9-1.1-1.8-1.1-2.7c0-0.9,0.7-1.8,1.1-2.7C65.6,104.6,61,104.6,56.1,104.6z M53,134.3c-2.6,0.4-2.6,0.4-2.1,2.7
			c0.5,2.6,1.7,5,3.2,7.1c1.1,1.5,1,1.6-0.7,2c2.4,2.9,9.4,4.5,12,2.7C58,146.9,53.9,142,53,134.3z M134.4,59.2
			c0.7-0.3,1.2-0.5,1.7-0.7c0.4-0.1,0.8,0,1.2,0c-0.1,0.4-0.1,0.9-0.3,1.3c-0.3,0.5-0.7,0.9-1.1,1.4c0.8,0.9,1.6,1.7,2.8,2.9
			c1.4-1.5,2.7-2.9,3.8-4.1c-1.9-2.6-3.6-5-5.5-7.6c-1.5,1-3.1,2-4.8,3.1C133,57,133.7,58.1,134.4,59.2z M49.9,134
			c0-0.6,0-1.1,0-1.6c0-5.8,0-11.7,0-17.5c0-3.1-0.1-6.2,0-9.4c0-1.1-0.5-1.3-1.3-1c-0.3,0.1-0.5,0.8-0.5,1.2c0,9,0,18,0,27
			C48,134.2,48.1,134.2,49.9,134z M104.7,58.7c-0.5-0.9-1.2-1.5-1.2-2.2c-0.1-2.7-0.1-5.4-0.1-8.1c-1.5,0.4-2.6,1.3-3,2.9
			c-0.8,3.2-1.7,6.4-2.5,9.6c-0.1,0.2,0,0.4-0.1,0.9C100.2,60.3,103.5,61.4,104.7,58.7z M122.9,48.2c0.1,0.6,0.3,1,0.3,1.4
			c0,2.1,0,4.1,0,6.2c0,1.2-0.2,2.1-1.6,2.3c0.5,0.7,0.9,1.6,1.5,1.8c1.8,0.6,3.8,1,6,1.5c-1.1-3.9-2.1-7.5-3.2-11.1
			C125.4,49.1,124.3,48.5,122.9,48.2z M157.4,133.9c-0.8,7.8-5,12.8-12.7,14.7c2.8,2,10-0.6,11.8-3c-0.4-0.1-0.7-0.2-1.3-0.4
			c0.4-0.6,0.7-1.2,1-1.7c1.6-2.2,2.6-4.6,3.1-7.3C159.6,134.3,159.4,134.1,157.4,133.9z M78.7,58.5c0.9,1.5,1.8,3.1,2.8,4.7
			c0.2-0.1,0.3-0.1,0.5-0.2c-0.1-0.5-0.1-0.9-0.2-1.4c-0.3-2.1,0.6-3,2.4-2.1c1.6,0.8,2.5,0.2,3.4-0.8c0.2-0.2,0.3-0.4,0.5-0.5
			c0.9-0.7,1.3-1.4,0.2-2.3c-0.2-0.2-0.6-0.5-0.5-0.8c0.1-1.6-1.4-1.8-2-2.6C83.4,54.6,81.2,56.5,78.7,58.5z M96.7,151
			c0.7-0.8,0.3-1.1-0.4-1.4c-5.4-2.4-10-5.8-13.4-10.7c-0.3-0.5-0.8-1.1-1.3-1.2c-0.6-0.2-1.4,0-2,0.3c-0.7,0.4-0.8,1.2-0.3,1.9
			c0.3,0.4,0.5,0.8,0.9,1.2C85,145.5,90.5,148.9,96.7,151z M159.3,133.3c0-7.5,0-14.9,0-22.3c0-0.3-0.5-0.7-0.8-0.8
			c-1-0.2-1.3,0.3-1.3,1.3c0,6.5,0,13.1,0,19.6C157.3,133,157.3,133,159.3,133.3z M57.3,85.4c-0.2,0.1-0.3,0.1-0.4,0.2
			c-4.1,5.1-6.2,11-6.4,17.5c0,0.3,0.3,0.7,0.5,0.8c0.6,0.2,1.2,0.2,1.8,0.3c0.1-0.4,0.1-0.7,0.2-1c0.2-5.4,1.8-10.4,4.7-15
			C58.4,87,57.7,86.3,57.3,85.4z M130.7,150.7c0.1,0,0.1,0,0.1,0c6.5-2.2,12-6,16.9-10.7c0.8-0.8,0.8-1.7,0.1-2.3
			c-0.8-0.8-1.8-0.8-2.6,0.1c-0.5,0.6-1,1.3-1.5,1.9c-3.3,4.4-7.6,7.5-12.5,9.8C130.6,149.7,130.1,149.9,130.7,150.7z M96.3,63.3
			c-1.7,0.8-3.5,1.6-5.2,2.4c-4.4,2.1-8.2,5-11.7,8.5c-0.7,0.7-0.9,1.5-0.1,2.3c0.8,0.8,1.7,0.8,2.6-0.1c0.5-0.6,1-1.3,1.5-1.9
			c3.3-4.4,7.6-7.5,12.6-9.7C96.5,64.5,97,64.3,96.3,63.3z M160.1,110.7c0,7.7,0,15.2,0,22.8c1.7,0.3,1.8,0.2,1.8-1.3
			c0-6.7-0.1-13.4-0.1-20.1c0-0.3,0-0.6-0.1-1C161.2,111,160.7,110.9,160.1,110.7z M73.4,73.4c0.1,0.1,0.2,0.2,0.3,0.3
			c1.8-1,3.7-1.7,5.3-2.9C83.7,67,88.3,63,93,59.1c1.2-1,1.7-2.3,2-3.8C87.8,61.3,80.6,67.3,73.4,73.4z M162.9,102.8
			c0.5-0.1,1.6,0,1.8-0.4c0.4-0.8,0.6-1.9,0.4-2.8c-0.3-1.8-0.8-3.6-1.4-5.4c-1.3-3.8-4-6.5-6.9-9c1.3,2.7,2.9,5.3,3.9,8.2
			C161.7,96.3,162.1,99.5,162.9,102.8z M29.6,63.9c3.8-0.6,7.5-1.1,11.3-1.6c-0.9-2.6-2.6-3.6-4.9-3.2c-0.8,0.1-1.5,0.3-2.3,0.3
			C31.2,59.7,29.9,61,29.6,63.9z M168.1,61.7c3.9,0.5,7.6,1,11.4,1.6c-0.1-1.8-0.7-3.4-1.9-3.8c-2.1-0.7-4.5-1-6.7-0.9
			C169.7,58.6,168.8,60,168.1,61.7z M41.3,65.2c-3.7,0.5-7.4,1-11,1.5c0.6,2,2.6,3.3,4.5,3c0.8-0.1,1.5-0.2,2.3-0.4
			C39.6,68.9,40.7,67.8,41.3,65.2z M167.8,64.6c0.5,2.1,1.7,3.7,3,3.9c1.4,0.2,2.8,0.4,4.2,0.5c1.5,0.1,3.5-1.6,3.7-3.1
			C175.1,65.5,171.5,65.1,167.8,64.6z M58.5,81.4c-3.2,2.8-6,6.4-7.9,10.7c-1.5,3.3-2.4,6.8-2.6,10.4c0,0.6-0.1,1.2,0.9,1.2
			c1,0,0.9-0.6,1-1.3c0.1-4.1,1-8.2,2.9-11.8C54.6,87.3,56.7,84.2,58.5,81.4z M161.6,102.5c0.8-5.2-5.4-19.2-9.1-19.8
			c4.8,5.8,7.3,12.4,7.5,19.8c0.4,0,0.7,0.1,1,0.1C161.2,102.5,161.4,102.5,161.6,102.5z M157.2,102.9c2.2-0.2,2.2-0.2,2-2.1
			c-0.1-0.9-0.2-1.8-0.3-2.6c-0.5-2.8-1.3-5.6-2.7-8.2c-0.6,0.4-1.1,0.7-1.6,1.1C156.2,94.8,157.1,98.7,157.2,102.9z M144,70.9
			c-4.1-3.4-8.7-5.9-13.7-7.7c-0.1,0.3-0.1,0.4-0.2,0.6c0,0.1,0,0.3-0.1,0.5c4.6,1.9,8.7,4.6,11.8,8C142.6,71.7,143.2,71.4,144,70.9
			z M161.8,110.3c0.7,0,1.3,0.1,2,0.1c0.9,0.1,1.2-0.3,1.2-1.2c-0.1-1.1,0-2.2,0-3.3c-0.1-2.7-0.2-2.8-2.9-2.3c0,0-0.1,0-0.2,0.1
			C161.8,105.8,161.8,108,161.8,110.3z M74,76.3c0.8,2.2,1.5,4.2,2.2,6.2c1.8-0.3,2.1-0.5,2.1-2.2c0-1.7-0.3-3.4-0.4-5.3
			C76.5,75.5,75.3,75.9,74,76.3z M93.6,60.2c-0.1-0.1-0.2-0.1-0.3-0.2c-4.1,3.4-8.2,6.8-12.2,10.2c0.1,0.1,0.1,0.2,0.2,0.3
			c0.5-0.3,1.1-0.5,1.6-0.8c2.9-1.8,5.9-3.7,8.8-5.5c0.4-0.2,0.9-0.5,1-0.8C93,62.3,93.3,61.2,93.6,60.2z M83.9,152.6
			c0.5,0,1,0,1.5,0c0.9,0.1,1.3-0.3,1.3-1.3c-0.1-3.1,0.3-2.7-2.7-2.7c-0.3,0-0.7,0-1,0c-1.1-0.1-1.6,0.3-1.5,1.5
			C81.6,152.8,80.9,152.5,83.9,152.6z M96.1,49.4c-2.2,1.9-4.2,3.5-6.2,5.2c0.7,0.8,1.2,1.5,1.9,2.2c1.3-1.1,2.7-2.2,4-3.3
			c0.2-0.2,0.4-0.6,0.5-0.9C96.2,51.6,96.1,50.7,96.1,49.4z M156.8,78.7c0.4,0.7,0.5,1.3,0.9,1.6c2.1,1.5,4.3,3,6.6,4.6
			c-0.4-1.8-0.7-3.5-1.1-5.2c0-0.2-0.4-0.4-0.7-0.4C160.7,79.1,159,79,156.8,78.7z M52.4,79.2c-2.2,0.3-4,0.5-5.8,0.7
			c-0.2,0-0.5,0.2-0.5,0.4c-0.4,1.7-0.7,3.5-1.1,5.2c2.2-1.6,4.4-3.1,6.5-4.6C51.8,80.5,52,79.9,52.4,79.2z M39.3,123
			c1.9-0.1,1.9-0.2,1.7-1.8c-0.3-2.6-0.6-5.3-0.8-8c-0.1-1.6-0.1-1.7-2-1.2C38.5,115.7,38.9,119.3,39.3,123z M35.2,75.6
			c1.3-0.2,2.6-0.4,4-0.7c-0.2-1.5-0.4-2.9-0.6-4.1c-4.6,0.3-4.8,0.6-3.6,4.5C34.9,75.4,35,75.4,35.2,75.6z M170.6,70.2
			c-0.2,1.3-0.4,2.4-0.5,3.5c0,0.3,0.3,0.7,0.5,0.8c1.2,0.2,2.4,0.4,3.7,0.6c0.2-1.5,0.4-2.9,0.6-4.3
			C173.4,70.5,172,70.4,170.6,70.2z M104.7,61.3c0,0.1-0.1,0.3-0.1,0.4c0.3,0.1,0.7,0.4,1,0.4c1.1-0.1,2.2-0.4,3.3-0.4
			c4,0.1,8,0.2,12,0.3c0.3,0,0.7-0.3,1.1-0.4c-0.3-0.2-0.6-0.5-0.9-0.5c-1.6-0.2-3.3-0.5-5-0.6C112.3,60.2,108.5,60.5,104.7,61.3z
			 M122.3,153c0.1-0.1,0.1-0.3,0.2-0.4c-0.3-0.1-0.7-0.4-1-0.4c-1.6,0.1-3.1,0.5-4.7,0.5c-3.6-0.1-7.1-0.3-10.7-0.4
			c-0.3,0-0.7,0.2-1,0.3c0.3,0.2,0.5,0.6,0.8,0.6C111.4,154.1,116.8,154.1,122.3,153z M171.2,113.5c-0.2-0.1-0.3-0.2-0.5-0.3
			c-0.5,0.3-1.3,0.5-1.4,0.9c-0.4,2.7-0.6,5.4-0.8,8.2c0.6,0.1,1.1,0.1,1.7,0.2C170.6,119.4,170.9,116.4,171.2,113.5z M44.1,97.3
			c-0.7-0.1-1.1-0.2-1.8-0.4c-0.6,2.9-1.2,5.6-1.8,8.5c0.7,0.1,1.2,0.2,1.8,0.3C42.9,102.9,43.5,100.2,44.1,97.3z M42.6,96
			c1.3,0.7,1.8,0.3,2.1-0.8c0.5-1.5,1.2-3,1.9-4.4c0.4-0.8,1-1.4,1.5-2.1c-0.4-0.4-0.8-0.7-1.2-1.1C44.8,90.1,43.3,92.9,42.6,96z
			 M162.3,87c-0.4,0.4-0.8,0.7-1.1,1c0.8,1.3,1.7,2.5,2.4,3.8c0.7,1.3,1.1,2.7,1.7,4.1c0.5-0.1,1-0.3,1.6-0.4
			C165.9,92.3,164.5,89.5,162.3,87z M69,122c0.5,0.7,0.8,1.2,1.1,1.7c0.6,0.8,0.3,1.1-0.6,1.1c-0.9,0-1.8,0-2.8,0
			c0.1,1.2,0.7,1.6,1.7,1.5c0.7-0.1,1.5,0.1,2.2-0.1c0.7-0.1,1.4-0.3,1.9-0.7c0.6-0.7-0.1-1.3-0.5-1.9c-0.5-0.7-1.2-1.4-0.2-2.4
			c-0.1-0.1-0.2-0.2-0.3-0.3C70.7,121.2,69.9,121.6,69,122z M111.8,46.1c0.9,0,1.6,0.1,2.3,0c0.3,0,0.7-0.4,0.7-0.6
			c0.1-1.3,0-2.7,0-4c-1.2,0-2.1,0-3.1,0C111.8,43.1,111.8,44.5,111.8,46.1z M87.1,155.3c-2.1,0-4.2,0-6.2,0
			c0.2,2.4,0.2,2.4,2.4,2.4c0.6,0,1.1,0,1.7,0C87,157.7,87.1,157.5,87.1,155.3z M122.8,155.1c0.1,2.3,0.2,2.5,2.2,2.4
			c0.6,0,1.1,0,1.7,0c2.1,0,2.2-0.2,2.3-2.4C126.9,155.1,124.9,155.1,122.8,155.1z M143.3,74.1c0.8,0.9,1.3,1.7,2,2.3
			c0.8,0.7,1.6,0.5,2.3-0.2c0.7-0.7,0.7-1.4,0.1-2.1c-0.8-0.9-1.7-1.6-2.8-2.6C145,73,144.8,73.9,143.3,74.1z M154.5,82.1
			c2.1,1.8,4.1,3.5,6.1,5.3c0.3-0.3,0.6-0.7,1.1-1.2c-2.1-1.8-4.2-3.6-6.3-5.5C155,81.4,154.7,81.7,154.5,82.1z M179.9,64.6
			c0-0.1-0.1-0.3-0.1-0.4c-4.1-0.5-8.2-1.1-12.3-1.6c0,0.1-0.1,0.3-0.1,0.4c0.4,0.2,0.8,0.6,1.3,0.6c3.3,0.5,6.7,0.9,10,1.3
			C179,65,179.5,64.7,179.9,64.6z M53.8,81.2c-2.2,1.9-4.2,3.7-6.3,5.6c0.5,0.5,0.9,0.8,1.2,1.1c2.1-1.8,4-3.6,6-5.3
			C54.5,82.1,54.2,81.8,53.8,81.2z M71.7,156.1c1.7,0,3.3,0,4.9,0c0.9,0,0.7-0.7,0.7-1.3c0.1-0.6,0-1.1-0.8-1.1
			c-1.2,0-2.4,0.1-3.6,0c-1.1-0.1-1.5,0.4-1.3,1.4C71.7,155.4,71.7,155.6,71.7,156.1z M41.8,63.1c-4.3,0.6-8.4,1.2-12.6,1.8
			C30.2,66.2,40.6,64.8,41.8,63.1z M95.7,62.2c0.2,0.1,0.3,0.2,0.5,0.3c0.3-0.5,0.8-1,1-1.5c0.7-2.6,1.4-5.2,2-7.9
			c0.2-0.6,0.3-1.2,0.4-1.8c-0.1-0.1-0.2-0.2-0.3-0.3c-0.3,0.3-0.7,0.5-0.9,0.8c-0.3,0.5-0.3,1.2-0.5,1.7
			C97.1,56.4,96.4,59.3,95.7,62.2z M130.6,62.2c0.2-0.1,0.3-0.2,0.5-0.3c-1-3.5-1.9-7-2.9-10.4c-0.1-0.2-0.5-0.3-0.7-0.4
			c-0.1,0.3-0.3,0.6-0.2,0.9c0.8,3,1.6,6.1,2.5,9.1C129.8,61.5,130.3,61.8,130.6,62.2z M104.4,47c1.4,0.9,17,0.8,17.9,0
			C116.3,47,110.4,47,104.4,47z M157.5,106.9C157.5,106.9,157.5,106.9,157.5,106.9c0,0.6,0,1.2,0,1.8c-0.1,0.8,0.4,1,1.1,0.9
			c0.6,0,1.3,0.1,1.3-0.9c0-1.3,0-2.5,0-3.8c0-0.3-0.5-0.7-0.7-0.8c-1.4-0.2-1.5,0-1.5,1.3C157.5,106,157.5,106.5,157.5,106.9z
			 M74.5,151.1C74.5,151.1,74.5,151.1,74.5,151.1c-0.6,0-1.3,0-1.9,0c-0.8-0.1-1,0.3-1,1c0,0.7,0.1,1.1,0.9,1.1c1.3,0,2.5,0,3.8,0
			c0.7,0,1.1-0.2,1.1-1c0-0.8-0.3-1.1-1.1-1C75.7,151.1,75.1,151.1,74.5,151.1z M169.4,139c-0.1-1.3-0.1-2.5-0.2-3.8
			c0-0.3-0.4-0.8-0.6-0.8c-0.5,0-1.2,0.2-1.3,0.5c-0.5,1.2-0.7,2.4-1,3.6C167.3,138.6,168.3,138.8,169.4,139z M40.4,139.6
			c1.1-0.2,2-0.4,3.1-0.6c-0.3-0.9-0.5-1.8-0.7-2.7c-0.4-1.5-0.6-1.6-2.4-1.1c0,1.3,0,2.6,0,3.9C40.4,139.3,40.4,139.5,40.4,139.6z
			 M77.4,66.2c-1.7-1.6-1.7-1.6-4.3,0.8c-1,1,0.2,1.5,0.3,2.5C74.9,68.4,76.1,67.3,77.4,66.2z M43.9,137.1c-0.1,3.1,2.4,4,4.6,5.2
			c0.8-0.7,0.6-1.3-0.1-1.9C46.9,139.4,45.4,138.2,43.9,137.1z M168.4,123.1c-0.2,1.3-0.3,2.5-0.5,3.6c-0.2,1.4-0.1,1.6,1.6,1.4
			c0.2-1.6,0.5-3.1,0.7-4.7c-0.3-0.1-0.5-0.2-0.7-0.2C169.1,123.1,168.8,123.1,168.4,123.1z M41.3,123.7c-1.8,0.1-1.8,0.1-1.6,1.6
			c0.1,0.8,0.3,1.5,0.4,2.3c0.2,1.4,0.4,1.5,1.9,0.9C41.7,126.9,41.5,125.3,41.3,123.7z M161.3,141.9c2.1-1.3,4.6-2.2,4.5-5.2
			c-1.4,1.1-2.8,2.1-4.1,3.2C161.2,140.3,160.4,140.9,161.3,141.9z M62,103.6c-0.9-1.9-1.4-2.2-3.3-2c-1.2,0.1-1.7,0.9-2,2
			C58.5,103.6,60.2,103.6,62,103.6z M62.1,110.9c-1.8,0.1-3.5,0.2-5.3,0.3c0.4,1.4,1.3,2,2.7,2C60.9,113.1,61.5,112.6,62.1,110.9z
			 M48.9,139.7c0.7-0.3,1.2-0.4,1.6-0.6c-0.2-1-0.3-2-0.4-3c-0.1-1.4-0.4-1.6-2-1.1C48.3,136.5,48.6,138,48.9,139.7z M67.3,149.5
			c2.2,0.6,10.6,0.3,11.4-0.5C74.7,149.1,71,148.7,67.3,149.5z M168.3,108.1C168.3,108.1,168.3,108.1,168.3,108.1
			c-0.6,0-1.1,0-1.7,0c-0.3,0-0.7,0.4-0.7,0.6c0,0.3,0.3,0.8,0.5,0.8c1.2,0.1,2.5,0.1,3.7,0c0.2,0,0.6-0.5,0.6-0.8
			c0-0.2-0.4-0.6-0.7-0.6C169.4,108,168.8,108.1,168.3,108.1z M162,134.2c-0.9,0.1-1.7-0.5-1.9,0.6c-0.2,1.1-0.3,2.3-0.5,3.6
			c0.5,0.1,1,0.3,1.7,0.5C161.5,137.3,161.7,135.9,162,134.2z M63,102.8c0.6,0.9,7,1.1,8,0C68.2,102.8,65.6,102.8,63,102.8z
			 M164.3,78.7c3.3,0.4,6.3,0.8,9.3,1.2c0.1-0.1,0.1-0.2,0.2-0.4c-0.2-0.2-0.4-0.4-0.7-0.5C171,78.5,165,78.1,164.3,78.7z
			 M83.9,154.5C83.9,154.5,83.9,154.5,83.9,154.5c0.7,0,1.4,0,2.1,0c0.2,0,0.5-0.4,0.6-0.7c0-0.2-0.3-0.6-0.5-0.6c-1.3,0-2.7,0-4,0
			c-0.2,0-0.5,0.4-0.5,0.7c0,0.2,0.3,0.5,0.6,0.6C82.6,154.6,83.3,154.5,83.9,154.5z M38.9,104.7c0.1,0.1,0.2,0.3,0.3,0.5
			c0.2-0.2,0.5-0.3,0.5-0.5c0.6-2.6,1.1-5.3,1.6-8c0-0.2-0.1-0.5-0.2-0.7c-0.2,0.2-0.5,0.4-0.5,0.6C40,99.2,39.5,101.9,38.9,104.7z
			 M40.2,129.7c0.1,1.4,0.2,2.6,0.3,3.8c0.6,0,1.1-0.1,1.8-0.1c-0.1-1.4-0.2-2.6-0.3-4C41.3,129.5,40.8,129.6,40.2,129.7z
			 M123.5,46.1c2.4,0.4,4,1.7,5,3.8c0.7-1.2,0.2-2.4-1.3-3.5C125.6,45.3,124.4,45.1,123.5,46.1z M167.9,100.1
			c-0.3-1.2-0.5-2.5-0.8-3.8c-0.7,0.2-1.2,0.3-1.7,0.4c0.2,0.8,0.3,1.5,0.5,2.2C166.1,100.5,166.2,100.5,167.9,100.1z M44.8,79.1
			c0-0.1,0-0.3-0.1-0.4c-0.4,0-0.8,0-1.2,0c-2.4,0.3-4.7,0.6-7.1,1c-0.3,0-0.6,0.4-0.9,0.5c0.3,0.1,0.7,0.3,1,0.2
			c2.4-0.3,4.8-0.7,7.2-1.1C44.1,79.4,44.4,79.2,44.8,79.1z M180.4,123.7c0.1,0.1,0.1,0.3,0.2,0.4c2.2-0.1,4.5,0.3,6.7-0.8
			c-0.3-0.3-0.7-0.6-1-0.6c-1.7,0.1-3.3,0.2-5,0.3C180.9,123.2,180.7,123.5,180.4,123.7z M22.3,123.9c0,0.1,0,0.3,0.1,0.4
			c0.4,0.1,0.8,0.3,1.2,0.3c1.5,0.1,3,0.2,4.5,0.2c0.3,0,0.7-0.3,1-0.5c-0.3-0.2-0.7-0.5-1-0.5c-1.5-0.1-3.1-0.2-4.6-0.3
			C23.1,123.5,22.7,123.8,22.3,123.9z M168.3,104.2c-0.6,0-1.1-0.1-1.7,0c-0.3,0.1-0.5,0.5-0.8,0.7c0.3,0.2,0.5,0.7,0.8,0.7
			c1.1,0.1,2.3,0.1,3.4,0c0.3,0,0.7-0.5,0.7-0.6c-0.1-0.3-0.4-0.7-0.7-0.8C169.4,104.2,168.8,104.2,168.3,104.2z M167.5,132.8
			c1.7,0.4,1.7,0.3,1.8-1.3c0-0.6,0-1.2,0.1-1.8c0.1-0.7-0.3-0.9-0.9-0.8c-0.4,0.1-0.9,0.5-0.9,0.7
			C167.5,130.7,167.5,131.8,167.5,132.8z M39.3,137.2c0-0.2,0-0.3,0.1-0.5c-0.2-0.2-0.4-0.5-0.6-0.5c-1.9,0-3.8,0.1-5.7,0.2
			c-0.1,0-0.4,0.3-0.3,0.5c0,0.2,0.3,0.4,0.5,0.4C35.3,137.3,37.3,137.3,39.3,137.2z M142,67.9c1.2,0.9,2.2,1.8,3.3,2.6
			c0.2,0.2,0.5,0.1,0.8,0.2c0-0.3,0.1-0.7-0.1-0.9c-0.3-0.5-0.6-0.9-1-1.4C143.9,66.8,143.9,66.8,142,67.9z M170.3,136
			c0,0.1,0,0.2,0,0.3c0.4,0.1,0.7,0.3,1.1,0.3c1.6,0.1,3.2,0.1,4.8,0.1c0.3,0,0.6-0.3,0.9-0.4c-0.3-0.2-0.6-0.5-0.9-0.6
			c-1.6-0.1-3.2-0.2-4.9-0.2C171,135.6,170.6,135.9,170.3,136z M22.1,110.3c0,0.2,0,0.4,0,0.6c1.9,0.1,3.8,0.2,5.6,0.3
			c0.3,0,0.6-0.3,0.9-0.5c-0.3-0.2-0.6-0.5-0.9-0.5c-1.5-0.1-3-0.2-4.5-0.2C22.9,110,22.5,110.2,22.1,110.3z M110.6,46.2
			c0.1-0.1,0.3-0.2,0.4-0.3c0-1.5,0-2.9,0-4.5c-0.7,0-1.3,0-2,0c0,0.5-0.1,1.2,0.1,1.3c1,0.5,0.6,1.4,0.8,2.2
			C110,45.4,110.3,45.8,110.6,46.2z M123.3,61.2c-0.2,0.1-0.4,0.3-0.6,0.4c0.2,0.2,0.3,0.6,0.5,0.6c1.7,0.5,3.5,1,5.2,1.4
			c0.2,0.1,0.5-0.1,0.8-0.2c-0.2-0.2-0.3-0.6-0.5-0.7C127,62.2,125.2,61.8,123.3,61.2z M187.3,110.2c0-0.1,0.1-0.3,0.1-0.4
			c-0.2-0.2-0.4-0.5-0.6-0.5c-1.9,0-3.7,0.1-5.5,0.3c-0.1,0-0.4,0.4-0.4,0.5c0.1,0.2,0.4,0.5,0.5,0.5
			C183.3,110.4,185.3,110.3,187.3,110.2z M24.2,136.5c0.1,0.2,0.1,0.5,0.2,0.7c1.6,0,3.2,0.1,4.9,0.1c0.2,0,0.5-0.3,0.7-0.4
			c-0.3-0.2-0.5-0.5-0.8-0.5c-1.3-0.2-2.6-0.3-4-0.3C24.9,136.1,24.5,136.4,24.2,136.5z M97.3,63c0,0.2,0,0.3,0,0.5
			c0.3,0.1,0.6,0.4,0.8,0.3c1.8-0.5,3.7-1,5.5-1.5c0.2-0.1,0.3-0.4,0.4-0.6c-0.2-0.1-0.4-0.3-0.6-0.3C101.3,62,99.3,62.5,97.3,63z
			 M123,152.5c0.1,0.1,0.2,0.3,0.3,0.4c1.9-0.5,3.7-1,5.6-1.6c0.3-0.1,0.5-0.4,0.7-0.7c-0.3-0.1-0.7-0.3-1-0.3
			c-1.6,0.4-3.3,0.9-4.9,1.4C123.5,151.9,123.3,152.3,123,152.5z M103.7,153c0.2-0.1,0.4-0.3,0.6-0.5c-0.2-0.2-0.3-0.6-0.6-0.6
			c-1.7-0.5-3.3-0.9-5-1.3c-0.3-0.1-0.6,0.2-0.9,0.3c0.2,0.2,0.4,0.5,0.6,0.6C100.1,152,101.8,152.4,103.7,153z M64.1,79.5
			c-1.9,1.8-3.9,3.7-5.9,5.6c1,0.8,1.5-0.3,1.9-0.7C63.6,81.5,64.5,80.3,64.1,79.5z M103,46.3c-0.6-1.6-1.6-0.7-2.3-0.5
			c-2,0.7-2.9,2.1-2.5,3.9C99.3,47.8,100.8,46.6,103,46.3z M182.1,136.7c0,0,0,0.1,0,0.1c1-0.1,1.9-0.2,2.9-0.4
			c0.2,0,0.5-0.4,0.4-0.6c-0.1-0.2-0.4-0.5-0.6-0.5c-1.5,0.1-3.1,0.3-4.6,0.4c-0.2,0-0.3,0.3-0.5,0.5c0.2,0.1,0.3,0.4,0.5,0.4
			C180.9,136.7,181.5,136.7,182.1,136.7z M115.6,46.3c0.5-0.3,0.9-0.5,0.9-0.7c0.1-1.2,0.2-2.3,0.9-3.4c0.5-0.7-0.3-1.1-1.9-0.6
			C115.6,43.1,115.6,44.5,115.6,46.3z M52.1,78.5c0-0.2,0.1-0.3,0.1-0.5c-0.4-0.2-0.9-0.5-1.2-0.5c-1.4,0.2-2.9,0.4-4.3,0.7
			c-0.2,0-0.4,0.4-0.6,0.6c0.2,0.1,0.5,0.3,0.7,0.3C48.5,78.9,50.3,78.7,52.1,78.5z M157,77.6c0,0.1,0.1,0.3,0.1,0.4
			c1.8,0.2,3.5,0.4,5.3,0.6c0.3,0,0.5-0.2,0.8-0.3c-0.2-0.2-0.5-0.5-0.7-0.6c-1.3-0.3-2.7-0.5-4.1-0.7C157.9,77,157.4,77.4,157,77.6
			z M63,111.6c0,0.1,0.1,0.2,0.1,0.4c2.4,0,4.8,0,7.2,0c0.2,0,0.3-0.3,0.5-0.4c-0.2-0.2-0.5-0.4-0.7-0.4c-2.1,0-4.1,0-6.2,0
			C63.6,111.2,63.3,111.4,63,111.6z M37.2,124.8c0-0.2,0.1-0.4,0.1-0.6c-0.3-0.2-0.6-0.5-0.9-0.5c-1.5,0-3,0.1-4.5,0.2
			c-0.2,0-0.3,0.4-0.5,0.6c0.2,0.1,0.4,0.4,0.6,0.4C33.8,124.8,35.5,124.8,37.2,124.8z M172.2,123.6c0,0.1,0.1,0.3,0.1,0.4
			c1.7,0,3.3,0.1,5,0.1c0.3,0,0.5-0.3,0.8-0.5c-0.3-0.2-0.5-0.5-0.8-0.5c-1.3-0.1-2.7-0.1-4-0.1C172.9,123,172.6,123.4,172.2,123.6z
			 M119.2,155.2c-0.1-0.1-0.2-0.1-0.3-0.2c-1.6,0-3.1,0-4.7,0c-0.3,0-0.5,0.3-0.7,0.4c0.3,0.2,0.5,0.5,0.8,0.5c1.4,0,2.8,0,4.1,0
			C118.7,155.8,119,155.4,119.2,155.2z M28.6,113.1c-2.2-0.2-4.3-0.2-6.6,0C22.6,114,26.9,114,28.6,113.1z M180.7,112.8
			c2.2,0.1,4.2,0.3,6.1,0.3c0.2,0,0.5-0.4,0.8-0.7C185.5,112,181.5,112.1,180.7,112.8z M58.8,78.6c-0.2-0.2-0.3-0.4-0.5-0.5
			c-1.2,0.9-2.4,1.8-3.7,2.8c0.3,0.4,0.6,0.8,1,1.4C56.8,80.9,57.8,79.8,58.8,78.6z M154.5,80.5c-1.7-1.7-3.3-2.7-4-2.3
			c1.1,1.2,2.1,2.3,3.3,3.5C154,81.2,154.3,80.8,154.5,80.5z M57.7,107.7c0-0.2,0-0.4,0-0.5c-0.5-0.3-1-0.9-1.4-0.9
			c-0.4,0-1,0.7-1,1.1c0,0.4,0.6,1.2,1,1.2C56.8,108.6,57.3,108,57.7,107.7z M68.7,73.3c-0.1-0.2-0.1-0.3-0.2-0.5
			c-2.6,0.9-5.2,1.8-7.7,2.7c0.1,0.2,0.2,0.4,0.2,0.6C63.6,75.2,66.2,74.2,68.7,73.3z M72.3,120c0.1-0.2,0.2-0.3,0.3-0.5
			c-0.4-0.3-0.8-0.8-1.2-0.9c-2.3-0.2-2.6-0.1-3.1,1.3C69.6,120,71,120,72.3,120z M32.5,138.6c2.4,0.4,4.6,0.7,6.7,1.1
			C39.3,138.5,35,137.6,32.5,138.6z M22.7,125.8c0.6,0.8,5.4,0.8,6.6,0C27,125.8,24.9,125.8,22.7,125.8z M57.2,77.4
			c0-1-0.7-1-1.3-0.9c-0.8,0.1-1.5,0.3-2.3,0.4c-1,0.1-1,0.6-0.5,1.3C54.5,78,55.8,77.7,57.2,77.4z M122.8,45.5
			c0-0.1-0.1-0.2-0.1-0.3c-1.6,0-3.2,0-4.8,0c-0.2,0-0.3,0.3-0.5,0.4c0.2,0.2,0.4,0.5,0.5,0.5c1.3,0,2.7,0.1,4,0
			C122.3,46.1,122.5,45.7,122.8,45.5z M152,77c1.2,0.2,2.3,0.4,3.4,0.7c0.9,0.2,1-0.2,1-0.8C154.2,75.8,152.5,75.9,152,77z
			 M43.8,88.5c-1.3,2.1-2.2,4.1-2.7,6.2c0,0.1,0.1,0.3,0.2,0.5c0.2-0.1,0.4-0.2,0.5-0.3c0.8-1.9,1.5-3.7,2.2-5.6
			C44,89.1,43.9,89,43.8,88.5z M64,76.3c0-0.1-0.1-0.2-0.1-0.2c-0.9,0.3-1.8,0.7-2.7,0.9c-1.4,0.2-1.8,1.1-1.8,2.5
			C61,78.3,62.5,77.3,64,76.3z M170.3,139.1c2.4-0.4,4.6-0.8,6.7-1.1c0-0.1,0-0.2-0.1-0.3c-2,0-4.1-0.2-6.1,0.7
			C170.7,138.4,170.5,138.8,170.3,139.1z M174.5,79.4c0,0.2,0,0.5-0.1,0.7c2.6,0.2,5.3,0.3,7.9,0.5c0-0.1,0-0.3,0-0.4
			C179.8,79.9,177.2,79.6,174.5,79.4z M34.8,80.7c-0.2-0.4-0.3-0.7-0.4-0.7c-2.6,0.2-5.1,0.5-7.7,0.8c0,0.1,0,0.3,0,0.4
			C29.4,81.1,32.1,80.9,34.8,80.7z M168.4,94.7c-0.6-2.5-1.4-4.6-2.9-6.4c0.6,2.1,1.4,4.1,2.1,6.1C167.7,94.6,168,94.6,168.4,94.7z
			 M143.4,149.4c-2.1-0.8-4.2-1-6.2,0C139.3,149.4,141.4,149.4,143.4,149.4z M180.5,125c0,0.2,0,0.3,0,0.5c1.9,0.1,3.8,0.2,5.8,0.2
			c0.2,0,0.4-0.4,0.8-0.7C184.7,125,182.6,125,180.5,125z M28.4,109c-0.7-0.9-3.5-1-4.5,0C25.5,109,26.9,109,28.4,109z M42.1,106.7
			c-1.8-0.5-1.8-0.5-2.5,1.5c0.4,0.3,0.8,0.6,1.3,0.9C41.4,108.3,41.7,107.5,42.1,106.7z M20.8,81.6c0.1,1.9,0.6,2.1,2.3,1.1
			c0-0.4-0.1-0.8-0.1-1.5C22.2,81.4,21.5,81.5,20.8,81.6z M23.8,152c0.1,0.1,0.2,0.2,0.3,0.4c0.7-0.1,1.4-0.2,2.1-0.5
			c0.1,0,0.1-1.1-0.1-1.2c-0.5-0.2-1.2-0.3-1.7-0.1C24,150.8,24,151.5,23.8,152z M169.7,100.3c-0.4-1.8-0.8-3.4-1.2-5.3
			C167.7,96.3,168.6,99.8,169.7,100.3z M172.9,110.1c0,0.1,0,0.3,0,0.4c1,0,2,0,3.1,0c0.2,0,0.4-0.3,0.4-0.4c0-0.1-0.1-0.4-0.2-0.5
			C175.6,109.2,173.4,109.6,172.9,110.1z M103.9,45.3c0,0.1-0.1,0.2-0.1,0.3c0.2,0.2,0.5,0.5,0.7,0.5c1.4,0,2.8,0,4.2,0
			c0.1,0,0.3-0.3,0.4-0.4c-0.2-0.1-0.4-0.4-0.6-0.4C107,45.3,105.4,45.3,103.9,45.3z M128.2,153c-1.6,0.4-3.1,0.8-4.6,1.1
			c1.3,0.3,2.5,0.2,3.8,0.3C128.4,154.4,128.5,153.9,128.2,153z M131,54.5c0.7-0.2,1.2-0.4,1.8-0.7c-0.7-0.9-1.3-1.7-1.9-2.6
			c-0.1,0-0.2,0.1-0.3,0.1C130.8,52.5,130.9,53.4,131,54.5z M127.4,50.3c-0.6-2-2.9-3.6-4.6-3C125.2,47.2,125.9,49.4,127.4,50.3z
			 M36.8,111c-0.6-0.8-3.1-1.2-3.6-0.7c-0.1,0.1-0.2,0.4-0.1,0.5c0.1,0.2,0.4,0.4,0.5,0.3C34.6,111.2,35.7,111.1,36.8,111z
			 M31.5,125.7c1.3,1,4.2,0.8,4.6,0C34.6,125.7,33.1,125.7,31.5,125.7z M178,125c-1.5,0-3,0-4.6,0C174.1,125.9,176.7,126,178,125z
			 M185.5,108.3c-0.1-0.4-0.1-0.5-0.2-0.5c-1.3,0-2.5-0.1-3.8-0.1c-0.1,0-0.3,0.4-0.3,0.4c0.1,0.2,0.4,0.4,0.5,0.4
			C183,108.5,184.2,108.4,185.5,108.3z M178.6,110.6C178.6,110.6,178.6,110.6,178.6,110.6c0.3,0,0.6,0,0.8,0
			c0.3-0.1,0.5-0.3,0.7-0.5c-0.2-0.2-0.4-0.5-0.6-0.5c-0.6-0.1-1.2-0.1-1.8,0c-0.2,0-0.4,0.4-0.4,0.6c0,0.1,0.3,0.3,0.5,0.4
			C178,110.6,178.3,110.6,178.6,110.6z M79.3,134c0,1.2,0,2,0,2.8c0.7-0.1,1.3-0.2,2.2-0.3C80.7,135.7,80.1,135,79.3,134z
			 M38.2,110.9c0.1,0.1,0.2,0.3,0.3,0.4c0.5-0.2,1.3-0.3,1.5-0.7c0.5-0.9-0.4-1.2-1.1-1.7C38.7,109.6,38.5,110.2,38.2,110.9z
			 M145.7,77.7c0.7,0.8,1.3,1.5,2,2.3c0.1-1.1,0.1-1.9,0.2-2.7C147.2,77.4,146.6,77.6,145.7,77.7z M145.9,136.2
			c0.9,0.1,1.5,0.2,2.3,0.3c-0.1-0.9-0.1-1.7-0.2-2.7C147.2,134.7,146.7,135.4,145.9,136.2z M69.1,77.4c-1.4,0.6-3.1,0.1-4.4,1.5
			C66.8,79.7,67.8,78,69.1,77.4z M103.6,47.3c-1.9-0.2-3.7,1.1-4.4,3.1C100.7,49.4,101.5,47.4,103.6,47.3z M147.2,65.4
			c-0.3,0.3-0.6,0.5-0.9,0.7c0.6,0.8,1.1,1.5,1.7,2.2c0.3-0.2,0.6-0.4,0.9-0.6C148.3,66.9,147.8,66.2,147.2,65.4z M73,62.6
			c-2.3,1.7-2.3,1.7-1.4,2.6c0.7-0.6,1.3-1.1,2.1-1.7C73.4,63.2,73.2,62.9,73,62.6z M79,80.1c0.1,0,0.2,0.1,0.3,0.1
			c0.6-0.7,1.2-1.4,1.8-2.2c-0.9-0.1-1.5-0.2-2.1-0.4C79,78.5,79,79.3,79,80.1z M115,58.2c-1.1,0-2.2,0-3.2,0
			C112.6,59.6,114.1,59.6,115,58.2z M95.1,59c-0.1,0-0.3-0.1-0.4-0.1c-0.4,1.4-0.8,2.7-1.2,4.3C94.6,62.6,95.4,60.2,95.1,59z
			 M30.9,111.3c0.2,0,0.3,0,0.5,0c0.3-0.1,0.6-0.3,0.9-0.5c-0.3-0.2-0.5-0.5-0.9-0.6c-0.4-0.1-0.8-0.1-1.2,0
			c-0.3,0.1-0.5,0.3-0.8,0.5c0.3,0.2,0.6,0.4,0.9,0.5C30.4,111.3,30.7,111.3,30.9,111.3z M179.9,137.6c0,0.1,0,0.2,0,0.3
			c1.6,0,3.3,0,4.9,0c0-0.1,0-0.2,0-0.3C183.1,137.6,181.5,137.6,179.9,137.6z M165.8,102.1c1.7,0,3.2,0,4.9,0
			C169.5,101.3,166.9,101.3,165.8,102.1z M32.7,113.1c1.3,0.8,3.3,0.7,4,0C35.4,113.1,34.1,113.1,32.7,113.1z M176.6,112.4
			c-1.2,0-2.4,0-3.7,0C173.5,113.3,175.4,113.4,176.6,112.4z M154.8,93.4c-0.1,0-0.2,0.1-0.4,0.1c0.6,2.4,1.1,4.8,1.7,7.2
			c0.1,0,0.2-0.1,0.3-0.1C155.9,98.2,155.4,95.8,154.8,93.4z M29.9,138.7c0-0.1,0-0.2,0-0.3c-1.6,0-3.2,0-4.9,0c0,0.1,0,0.2,0,0.3
			C26.6,138.7,28.3,138.7,29.9,138.7z M174.7,150c0-0.2,0-0.4,0-0.6c-0.8,0-1.6-0.1-2.4-0.1c-0.1,0-0.4,0.3-0.4,0.5
			c0,0.2,0.3,0.5,0.4,0.5C173.1,150.1,173.9,150.1,174.7,150z M28.3,112.2c-2.4-0.6-6.1-0.5-6.5,0C24,112.2,26.2,112.2,28.3,112.2z
			 M178.9,148.6c1.3,0,2.4,0,3.6,0C181.7,147.7,179.9,147.7,178.9,148.6z M27.5,149.1c1,0.6,2.5,0.5,3.3-0.1
			C29.9,148.4,28.1,148.4,27.5,149.1z M135.5,63.9c-0.8-1-1.6-2.1-2.5-3.3C133.5,63,133.8,63.5,135.5,63.9z M174,148.7
			c0.1-0.1,0.3-0.3,0.6-0.5c-0.2-0.2-0.4-0.4-0.6-0.4c-0.5-0.1-1.1-0.2-1.7-0.3c-0.2,0-0.4,0.1-0.6,0.2c0.1,0.2,0.2,0.5,0.3,0.5
			C172.7,148.5,173.3,148.6,174,148.7z M181.5,111.1c2.3,0.6,5.6,0.5,6.3,0C185.6,111.1,183.5,111.1,181.5,111.1z M178.9,149.6
			c1.8,0.9,2.9,0.8,3.1,0C181,149.6,179.9,149.6,178.9,149.6z M31.4,148.6c0.8,1,2.6,0.9,3.1-0.1C33.4,148.5,32.5,148.6,31.4,148.6z
			 M168.3,107.6c0.5-0.2,1-0.4,1.5-0.6c-0.5-0.2-1-0.5-1.5-0.5c-0.6,0-1.1,0.3-1.7,0.4C167.2,107.1,167.7,107.3,168.3,107.6z
			 M38,149.9c-2.4,0-2.4,0-2.8,0.7C36.9,151,37.7,150.9,38,149.9z M81.9,65.1c-0.6-0.8-1.2-1.5-1.8-2.3c-0.1,0-0.2,0.1-0.3,0.1
			c0.3,1,0.7,1.9,1,3C81.3,65.6,81.6,65.3,81.9,65.1z M35.2,148.9c0,0.1,0,0.2,0.1,0.4c1-0.1,1.9-0.3,3.1-0.5
			C37.5,148,35.8,148.2,35.2,148.9z M8.7,111c0,0-0.1-0.1-0.1-0.1c0,2.7,0,5.4,0,8c0,0,0.1,0,0.1,0C8.7,116.3,8.7,113.7,8.7,111z
			 M166,111.7c0,0.1,0,0.2,0,0.3c1.5,0,3,0,4.5,0c0-0.1,0-0.2,0-0.3C169,111.7,167.5,111.7,166,111.7z M175.3,147.9
			c0.5,0.8,2.6,1.1,2.9,0.6c0.1-0.1-0.2-0.6-0.3-0.6C177,147.9,176.2,147.9,175.3,147.9z M31,150.3c-1,0-2.1,0-3.1,0
			C28.1,151.1,28.8,151.2,31,150.3z M169.7,103.4c0-0.1,0-0.2,0-0.3c-1,0-2,0-3,0c0,0.1,0,0.2,0,0.3
			C167.7,103.4,168.7,103.4,169.7,103.4z M23.2,150.9c-0.1-0.1-0.2-0.2-0.4-0.3c-0.5,0.3-0.9,0.7-1.4,1c0.5,0.2,1.1,0.4,1.8,0.7
			C23.2,151.5,23.2,151.2,23.2,150.9z M138.6,65.9c-0.1,0-0.2-0.1-0.4-0.1c0.4,0,1,0.1,1.2-0.2c0.4-0.5,0.6-1.1,0.9-1.7
			c-0.1,0-0.1,0-0.2,0C139.6,64.6,139.1,65.3,138.6,65.9z M82.5,61.7c0.1,0.1,0.3,0.1,0.4,0.2c0.5-0.4,1-0.8,1.5-1.2
			c0-0.1-0.1-0.2-0.1-0.3c-0.5,0-1.1-0.2-1.5,0.1C82.5,60.5,82.6,61.2,82.5,61.7z M32.1,113.4c0-0.1,0-0.2,0-0.3
			c-0.9-0.4-1.8-0.4-2.7-0.1c0,0.1,0,0.3,0,0.4C30.3,113.4,31.2,113.4,32.1,113.4z M23.9,82.5c0.1,0.1,0.3,0.2,0.4,0.2
			c0.4-0.4,0.8-0.8,1.2-1.2c-0.5-0.1-1-0.3-1.8-0.5C23.8,81.8,23.8,82.1,23.9,82.5z M19.8,83.4c0.1-0.1,0.2-0.2,0.3-0.4
			c0-0.3-0.1-0.7-0.2-1.4c-0.7,0.4-1.2,0.7-1.6,1.1C18.8,82.9,19.3,83.1,19.8,83.4z M175.5,149.3c0.6,1,1.7,1,2.6,0.1
			C177.2,149.4,176.4,149.4,175.5,149.3z M177.4,112.4c0,0.1,0,0.2,0,0.4c0.9,0,1.8,0,2.6,0c0-0.1,0-0.2,0-0.4
			C179.2,112.4,178.3,112.4,177.4,112.4z M141.6,147.9c-0.1-0.5-0.1-0.8-0.1-1.4c-0.7,0.5-1.3,0.8-2.1,1.4
			C140.3,147.9,140.9,147.9,141.6,147.9z M31.9,150.1c1,0.9,1.9,0.8,2.4-0.2C33.5,150,32.7,150,31.9,150.1z M95.1,58.1
			c0.2,0.1,0.4,0.1,0.6,0.2c0.3-1.1,0.6-2.1,0.9-3.2c-0.1,0-0.1,0-0.2-0.1C95.9,56,95.5,57,95.1,58.1z M17.3,82.5
			c-0.4,0.8-0.8,1.5-1.2,2.3C17.8,83.7,17.8,83.7,17.3,82.5z M79.8,153.8c0.1,0,0.1,0,0.2,0c0-0.9,0-1.9,0-2.8c-0.1,0-0.1,0-0.2,0
			C79.8,151.9,79.8,152.9,79.8,153.8z M107.8,42.9c0.2-0.1,0.4-0.1,0.7-0.2c-0.2-0.5-0.3-0.9-0.5-1.4c-0.2,0.1-0.5,0.2-0.4,0.3
			C107.5,42.1,107.7,42.5,107.8,42.9z"/>
		<path class="st3" d="M23.6,83.7c-2.7,11-3.8,22-3.5,33c0.3,11.1,2.1,21.9,5.3,32.6c-0.2,0.1-0.4,0.1-0.5,0.2
			c-5.2,0.6-4.6,1.1-7.3-3.6c-3.7-6.5-6-13.5-7.2-20.8c-2.2-13.4,0-26.1,5.9-38.2c0.7-1.5,1.6-2.4,3.4-2.2
			C21,84.7,22.2,84.1,23.6,83.7z"/>
		<path class="st3" d="M47.8,139.1c-2-1.4-3.7-2.7-4.6-4.7c-0.5-1.1-0.3-2.6-0.5-3.9c-0.5-3.9-1-7.8-1.4-11.7
			c-0.3-2.3-0.4-4.5-0.6-6.8c0-0.5,0-1.1,0.3-1.4c1.8-2.3,2.1-5.1,2.7-7.7c0.6-2.6,1.1-5.2,1.9-7.8c1.5-4.6,4.8-7.7,8.6-10.5
			c-0.9,1.4-1.9,2.9-2.8,4.4c-2.9,5.1-4.1,10.6-4.1,16.4c0.1,9.6,0.1,19.2,0.1,28.7C47.5,135.7,47.7,137.3,47.8,139.1z"/>
		<path class="st3" d="M78.5,133c-2.4,0.3-4.4,0.6-6.4,0.9c-0.2,0-0.5,0-0.7-0.1c-1.3-0.8-2-0.9-3,0.2c-0.8,0.9-1.6,1-2.7,0.8
			c0.8-1.3,0.3-3.1,1.8-4.2c0.4-0.3,0.5-1.3,0.6-1.9c0-0.1-0.9-0.5-1.1-0.4c-0.6,0.4-1.6,1-1.6,1.5c-0.1,1.4-1,1.8-2,2.3
			c-0.3,0.2-0.6,0.6-0.9,0.9c0.5,0.1,0.9,0.2,1.4,0.2c0.3,0,0.6-0.2,1-0.2c-0.2,0.6-0.2,1.2-1,1.2c-0.8,0.1-1.5,0.2-2.5,0.4
			c0-0.7-0.2-1.4-0.2-2.2c0-5.8,0-11.6,0-17.4c0-1.4,1-2.4,2.4-2.4c2.1,0,4.1,0,6.2,0c0.9,0,1.3,0.3,1.3,1.2
			c0.1,1.4,0.5,2.7,0.8,4.2c-2.2,0-4.5-0.4-5.1,2.6c0.8,0,1.6,0,2.8,0c-1.8,1.1-1.6,2.1-0.2,3.3c-1.4,0.1-2.5,0.1-3.6,0.2
			c0,1.8,0.8,2.7,2.5,2.7c1,0,1.9,0,2.9,0c2,0.1,2.9-1.5,1.9-3.2c-0.2-0.5-0.6-0.9-0.9-1.4c0.2-0.2,0.5-0.4,0.7-0.6
			C74.7,125.4,76.5,129,78.5,133z"/>
		<path class="st3" d="M60.7,100.7c-0.8,0-1.4,0-2.1,0c-0.4,0-0.9,0.1-1.3,0.2c-1.1,0.5-2.2,1.1-3.4,1.7c0.2-11,8.6-22.4,19.4-25.9
			c0.7,2,1.4,4,2.2,6.1c-3.8,1.5-7.1,3.7-9.7,6.9C63.1,92.9,61.5,96.6,60.7,100.7z"/>
		<path class="st3" d="M113.6,149.4c-23,0-42.3-19.3-42.3-42.1c0.1-23.3,18.6-42.1,41.6-42.4c23.8-0.3,42.9,18.9,42.8,42.4
			C155.7,130.4,136.9,149.1,113.6,149.4z M113.6,65.8c-22.9-0.2-41.4,18.1-41.5,41.3c0,23.6,19.1,41.8,42.1,41.4
			c22.4-0.4,41.2-18.7,40.6-42.5C154.4,83.5,136.1,65.6,113.6,65.8z"/>
		<path class="st3" d="M188,107.1c-2-0.1-4-0.2-5.8-0.3c-0.7-5.1-1.3-10.2-2-15.4c-0.3-2.3-1.3-4.1-3.5-5c-0.3-0.1-0.6-0.4-0.7-0.6
			c-0.5-1.6-1-3.2-1.5-4.9c1,0,1.9,0,2.7,0c1.3,0,2.5,0.3,3.8,0.1c1.3-0.2,2,0.8,2.9,1.1c0.1,0.1,0.2,0.3,0.3,0.5
			C186.3,90.8,187.6,99,188,107.1z"/>
		<path class="st3" d="M34.7,81.4c-0.5,1.8-1,3.4-1.5,5c-0.1,0.3-0.4,0.5-0.7,0.6c-2.1,1-3.1,2.6-3.4,4.8c-0.6,4.5-1.1,9-1.6,13.5
			c-0.1,0.7,0,1.4,0,2.1c-2,0.1-3.9,0.2-6,0.3c0-0.3,0-1,0-1.7c0.5-7.3,1.5-14.5,3.3-21.6c0.2-0.7,0.7-1.1,1-1.6c1-1.8,2.6-1,4-1.2
			C31.4,81.6,32.9,81.5,34.7,81.4z"/>
		<path class="st3" d="M113.4,48.8c2.4,0,4.7,0,7.1,0c1.6,0,2,0.5,2.1,2c0,1.6,0,3.2,0,4.9c0,1.2-0.6,1.8-1.8,1.8
			c-4.1,0-8.2-0.1-12.2-0.1c-0.8,0-1.7,0.2-2.5,0.2c-1.4,0-1.8-0.4-1.9-1.8c0-1.7,0-3.3,0-5c0-1.3,0.5-1.8,1.8-1.9
			C108.4,48.8,110.9,48.8,113.4,48.8C113.4,48.8,113.4,48.8,113.4,48.8z"/>
		<path class="st3" d="M77.5,83.3c-1,1.9-2,3.8-2.9,5.7c-1.8,3.8-2.9,7.8-3.5,12c-0.1,0.7-0.4,1-1.2,1c-2.2,0-4.4,0-6.6,0
			c-1.4,0-2-0.8-1.7-2.2c2-8.1,7.1-13.6,14.9-16.4c0.2-0.1,0.4-0.1,0.6-0.2C77.3,83.2,77.3,83.3,77.5,83.3z"/>
		<path class="st3" d="M53.8,112c1.3,0.6,2.5,1.3,3.7,1.7c0.6,0.2,1.4,0.2,2,0.2c0.6,0,1,0.2,1,0.9c0,5.8,0,11.6,0.1,17.4
			c0,0.7-0.2,1-0.9,1c-1.7,0-3.4,0-5.1,0c-0.3,0-0.8-0.5-0.8-0.8C53.8,125.7,53.8,119,53.8,112z"/>
		<path class="st3" d="M30.1,127.2c2.1,0,4.1,0,6.2,0c0.9,0,1.5,0.4,1.8,1.3c0.8,1.9,1.1,3.9,0.5,5.9c-0.2,0.7-0.5,1.2-1.3,1.2
			c-3.6,0-7.1,0-10.7,0c-1.1,0-1.9-0.6-2.4-1.6c-0.8-1.7-1.7-3.4-1.2-5.4c0.3-1,0.8-1.5,1.9-1.5c1.7,0,3.4,0,5.1,0
			C30.1,127.1,30.1,127.1,30.1,127.2z"/>
		<path class="st3" d="M177.2,135.1c-1.5,0-2.9,0-4.4,0c-1.1,0-1.7-0.5-1.9-1.6c-0.4-2-0.2-3.9,0.7-5.7c0.3-0.5,1-1.1,1.5-1.2
			c4-0.2,8-0.2,12-0.2c0.4,0,1,0.5,1.2,0.9c0.8,1.8,0,5.8-1.6,6.9c-0.9,0.6-2.2,0.7-3.3,0.8C180,135.2,178.6,135.1,177.2,135.1
			C177.2,135.1,177.2,135.1,177.2,135.1z"/>
		<path class="st3" d="M30.1,114.3c1.5,0,2.9,0,4.4,0c0.9,0,1.6,0.4,1.8,1.3c0.4,1.9,0.8,3.9,1.1,5.8c0.1,0.9-0.3,1.5-1.3,1.5
			c-3.9,0-7.9,0-11.8-0.1c-0.5,0-1.2-0.6-1.4-1.1c-1.1-1.8-1.3-3.8-0.4-5.8c0.3-0.9,0.8-1.3,1.8-1.4
			C26.1,114.4,28.1,114.3,30.1,114.3C30.1,114.3,30.1,114.3,30.1,114.3z"/>
		<path class="st3" d="M178.8,122.4c-1.6,0-3.2,0-4.9,0c-1.2,0-1.9-0.6-1.8-1.8c0.3-2.1,0.8-4.1,1.3-6.1c0.1-0.3,0.8-0.7,1.2-0.7
			c3.6,0,7.1,0,10.7,0c0.9,0,1.4,0.5,1.7,1.3c0.9,2.1,0.6,4.1-0.5,6.1c-0.3,0.5-1,0.9-1.5,0.9c-2.1,0.2-4.2,0.3-6.3,0.4
			C178.8,122.5,178.8,122.4,178.8,122.4z"/>
		<path class="st3" d="M162.3,138.5c0.7-9.1,0.1-17.8,0.1-26.5c0-0.8,0.4-1.1,1.1-1c0.6,0,1.4-0.2,1.4,0.9c-0.1,1.3,0.7,1.6,1.8,1.6
			c2.1,0,2.1-0.3,1.9,2.1c-0.3,3.3-0.8,6.6-1.2,9.9c-0.3,2.3-0.5,4.7-0.6,7c-0.1,1.1-0.3,2-1.1,2.8
			C164.6,136.2,163.5,137.3,162.3,138.5z"/>
		<path class="st3" d="M36,87.6c-1.1,1.5-1.2,2.7-0.4,3.6c0.8,0.9,2.1,0.9,3.7,0c-0.3,2.2-0.5,4.4-0.8,6.5c-0.3,2.4-0.6,4.8-0.9,7.2
			c-0.2,2.1-1.5,3.4-3.7,3.4c-1,0-2,0-3,0c-1.8-0.1-2.8-1.1-2.6-2.9c0.2-1.6,0.4-3.2,0.6-4.6c1,0.2,1.9,0.4,2.7,0.4
			c0.4,0,0.9-0.3,1.1-0.6c0.7-0.9,0.7-1.9,0.2-2.8c-0.5-1-1.6-1.1-3.7-0.5c0.4-2.4,0.6-4.7,1.2-6.9C31.1,88.4,33.5,87.3,36,87.6z
			 M33,96.3c0,1.4,1,2.3,2.4,2.3c1.4,0,2.4-1,2.4-2.4c0-1.4-1-2.4-2.5-2.4C33.9,93.9,33,94.9,33,96.3z M32,105.2
			c0,1.4,0.9,2.4,2.3,2.4c1.4,0,2.5-1,2.5-2.4c0-1.4-1-2.4-2.4-2.4C33,102.9,32,103.9,32,105.2z"/>
		<path class="st3" d="M53.9,134.1c2.3,0,4.4,0,6.3,0c0.7,1.5,1.1,3,1.9,4.2c1.2,1.8,3,2.9,5.2,3.1c0.8,0.1,1,0.4,1,1.1
			c0,1.6,0,3.2,0.1,4.7c0.1,1.1-0.5,1.3-1.3,1.1c-4.8-0.8-8.6-3.1-11.2-7.4C54.4,138.5,53.8,135.9,53.9,134.1z"/>
		<path class="st3" d="M170.1,90.8c1.9,0.8,2.9,0.7,3.7-0.2c0.7-0.9,0.6-2.1-0.3-3.5c1.7-0.8,5,0.7,5.6,3.3c0.5,2,0.7,4.1,1,6.3
			c-2.2-0.5-3.1-0.3-3.7,0.7c-0.5,1-0.3,2.4,0.5,3c0.9,0.7,2.1,0.5,3.6-0.5c0.3,1.9,0.6,3.8,0.7,5.7c0.1,1.1-0.8,2.1-2.1,2.2
			c-1.5,0.1-2.9,0.1-4.4,0c-1.6-0.1-2.6-1.3-2.8-2.8c-0.6-4.5-1.2-9.1-1.9-13.6C170.1,91.2,170.1,91,170.1,90.8z M176.3,95.6
			c0-1.5-0.9-2.4-2.3-2.3c-1.4,0-2.3,0.9-2.3,2.4c0,1.5,0.9,2.3,2.4,2.3C175.5,98,176.3,97.1,176.3,95.6z M175,107
			c1.4,0,2.4-0.9,2.4-2.3c0-1.4-1-2.4-2.4-2.4c-1.4,0-2.3,0.9-2.3,2.4C172.7,106.1,173.6,107,175,107z"/>
		<path class="st3" d="M30.7,139.4c1.9,0.2,3.8,0.2,5.7,0.5c2.2,0.3,3,1.6,2.4,3.7c-0.3,1.1-0.6,2.2-1.3,3.1c-0.4,0.6-1.3,0.9-2,1
			c-1.7,0.2-3.5,0.2-5.2,0.3c-1.2,0.1-2.3-0.2-2.9-1.4c-0.8-1.6-1.7-3.1-2.2-4.8c-0.5-1.7,0.2-2.3,1.9-2.3c0.6,0,1.2,0,1.8,0
			C29.5,139.5,30.1,139.5,30.7,139.4C30.7,139.4,30.7,139.4,30.7,139.4z"/>
		<path class="st3" d="M177.1,147.2c-0.5,0-1.1,0-1.6-0.1c-1-0.2-2.5-0.1-2.9-0.7c-1-1.3-1.8-2.9-1.7-4.7c0.1-1.5,0.5-2.1,1.9-2.4
			c1.5-0.3,3.1-0.4,4.7-0.5c1.9-0.1,3.8,0,5.7-0.1c0.9,0,1.3,0.4,1.4,1.2c0.1,0.5,0.1,1.1-0.1,1.5c-0.8,1.7-1.6,3.4-2.6,5
			c-0.3,0.5-1.2,0.7-1.8,0.7C179.1,147.4,178.1,147.3,177.1,147.2C177.1,147.3,177.1,147.3,177.1,147.2z"/>
		<path class="st3" d="M86.7,147.6c-1.2,0-2.2-0.1-3.3,0c-4.3,0.3-8.6,1-12.9,0.7c-0.5,0-1,0-1.7,0c0-2.2,0-4.2,0-6.3
			c0-0.2,0.5-0.6,0.8-0.6c3-0.1,5.9-0.1,8.9,0c0.3,0,0.7,0.2,1,0.4C81.9,143.6,84.1,145.5,86.7,147.6z"/>
		<path class="st3" d="M156.5,133.5c0.4,6.8-6.1,14.2-14,14.4c-0.3-1.1-0.3-2,0.8-2.7c0.7-0.4,1.3-1.1,2-1.6c0.8-0.5,1.6-1,2.4-1.4
			c0.2-0.3,0.3-0.8,0.6-1.2c0.9-1,0.9-2.1,0.9-3.3c0.1-1.3,0.3-2.5,0.6-3.8c0-0.2,0.4-0.4,0.6-0.4
			C152.4,133.5,154.5,133.5,156.5,133.5z"/>
		<path class="st3" d="M78.2,140.7c-3.3,0-6.8,0.1-10.3,0c-2.6-0.1-4.6-1.7-5.9-4c2.2-0.9,4.4-0.7,6.7-0.7c1.5,0,3.3,0.3,4.4-0.4
			c1.6-1.1,3.2-0.9,4.8-1.4c0.1,0,0.3,0,0.6,0C78.4,136.3,78.3,138.4,78.2,140.7z"/>
		<path class="st3" d="M86.4,72.4c13.1-14.1,41.7-13.3,53.6-0.5C122,60.6,104.2,60.7,86.4,72.4z"/>
		<path class="st3" d="M50.6,133.8c0-9.8,0-19.5,0-29.2c2.4,0.1,2.4,0.1,2.4,2.4c0,8.1,0,16.2,0.1,24.4
			C53.1,133.5,53.1,133.5,50.6,133.8z"/>
		<path class="st3" d="M140.3,141.9c-11.5,12.9-40,14.2-53.3,0.2c8,5.5,16.9,8.5,26.7,8.5C123.5,150.6,132.3,147.6,140.3,141.9z"/>
		<path class="st3" d="M156.6,112.5c0,6.5,0,12.9,0,19.4c0,0.7-0.2,1-0.9,1c-1.7,0-3.3,0-5,0c-0.7,0-1-0.3-0.9-0.9
			c0.2-0.9,0.2-2,0.7-2.8c2.8-4.8,4.6-10,5.5-15.5c0.1-0.4,0.3-0.8,0.4-1.2C156.5,112.5,156.6,112.5,156.6,112.5z"/>
		<path class="st3" d="M175.2,86.1c-1.2,0-2.2,0-3.2,0c-2.2,0-3.4,1.4-3.1,3.6c0.1,1.1,0.3,2.2,0.4,3.3c0.1,1,0.3,2.1,0.4,3.3
			c-0.8-2.3-1.3-4.5-2.3-6.4c-1.7-3.1-2-6.5-2.9-9.7c0-0.1,0-0.3,0-0.6c2.9,0.4,5.7,0.7,8.6,1.1c0.2,0,0.6,0.4,0.6,0.6
			C174.3,82.8,174.7,84.4,175.2,86.1z"/>
		<path class="st3" d="M44.8,80c-0.5,2.6-1,5-1.5,7.3c0,0.2-0.1,0.4-0.2,0.6c-1.7,2.8-2.7,5.9-3.5,9c0.2-1.7,0.4-3.4,0.6-5
			c0.5-3.5,0.2-5.6-4.6-5.2c-0.4,0-0.9,0-1.5,0c0.5-1.8,0.9-3.3,1.4-4.9c0.1-0.2,0.4-0.4,0.6-0.4C38.9,80.9,41.7,80.5,44.8,80z"/>
		<path class="st3" d="M56.1,104.6c4.8,0,9.5,0,13.9,0c-0.4,0.9-1.1,1.8-1.1,2.7c0,0.9,0.7,1.8,1.1,2.7c-4.3,0-8.9,0-13.2,0
			c1.5-0.5,2.2-1.3,2.1-2.7C58.9,105.9,58.2,105.2,56.1,104.6z"/>
		<path class="st3" d="M53,134.3c0.8,7.7,4.9,12.6,12.4,14.5c-2.6,1.8-9.6,0.3-12-2.7c1.7-0.4,1.7-0.5,0.7-2
			c-1.6-2.2-2.7-4.5-3.2-7.1C50.4,134.7,50.5,134.7,53,134.3z"/>
		<path class="st3" d="M134.4,59.2c-0.7-1.2-1.4-2.2-2.2-3.6c1.7-1.1,3.3-2.1,4.8-3.1c1.9,2.6,3.6,5,5.5,7.6
			c-1.1,1.2-2.4,2.6-3.8,4.1c-1.1-1.2-1.9-2-2.8-2.9c0.4-0.5,0.8-0.9,1.1-1.4c0.2-0.4,0.2-0.9,0.3-1.3c-0.4,0-0.9-0.1-1.2,0
			C135.6,58.7,135.1,58.9,134.4,59.2z"/>
		<path class="st3" d="M49.9,134c-1.8,0.2-1.9,0.2-1.9-1.3c0-9,0-18,0-27c0-0.4,0.2-1.1,0.5-1.2c0.8-0.3,1.4-0.1,1.3,1
			c-0.1,3.1,0,6.2,0,9.4c0,5.8,0,11.7,0,17.5C49.9,132.9,49.9,133.4,49.9,134z"/>
		<path class="st3" d="M104.7,58.7c-1.2,2.7-4.5,1.6-6.8,3.1c0-0.5,0-0.7,0.1-0.9c0.8-3.2,1.7-6.4,2.5-9.6c0.4-1.6,1.5-2.5,3-2.9
			c0,2.7-0.1,5.4,0.1,8.1C103.5,57.2,104.2,57.8,104.7,58.7z"/>
		<path class="st3" d="M122.9,48.2c1.4,0.2,2.5,0.9,2.9,2.1c1.1,3.6,2.1,7.3,3.2,11.1c-2.2-0.5-4.1-0.9-6-1.5
			c-0.6-0.2-0.9-1.1-1.5-1.8c1.5-0.2,1.6-1.1,1.6-2.3c0-2.1,0-4.1,0-6.2C123.2,49.2,123,48.8,122.9,48.2z"/>
		<path class="st3" d="M157.4,133.9c2,0.2,2.2,0.4,1.8,2.2c-0.5,2.7-1.5,5.1-3.1,7.3c-0.4,0.5-0.6,1.1-1,1.7
			c0.6,0.2,0.9,0.3,1.3,0.4c-1.7,2.4-9,5-11.8,3C152.4,146.6,156.6,141.7,157.4,133.9z"/>
		<path class="st3" d="M78.7,58.5c2.4-2,4.7-3.9,7.1-5.9c0.6,0.7,2.1,1,2,2.6c0,0.3,0.3,0.6,0.5,0.8c1.1,0.9,0.8,1.6-0.2,2.3
			c-0.2,0.1-0.4,0.3-0.5,0.5c-1,1-1.8,1.6-3.4,0.8c-1.9-0.9-2.7,0-2.4,2.1c0.1,0.5,0.1,0.9,0.2,1.4c-0.2,0.1-0.3,0.1-0.5,0.2
			C80.6,61.6,79.6,60,78.7,58.5z"/>
		<path class="st3" d="M96.7,151c-6.3-2.1-11.7-5.5-16.5-9.9c-0.4-0.3-0.6-0.8-0.9-1.2c-0.5-0.7-0.4-1.5,0.3-1.9
			c0.5-0.3,1.4-0.4,2-0.3c0.5,0.1,0.9,0.7,1.3,1.2c3.4,4.9,8,8.3,13.4,10.7C97,149.9,97.4,150.2,96.7,151z"/>
		<path class="st3" d="M159.3,133.3c-2-0.3-2-0.3-2-2.1c0-6.5,0-13.1,0-19.6c0-1,0.3-1.5,1.3-1.3c0.3,0.1,0.8,0.5,0.8,0.8
			C159.4,118.4,159.3,125.8,159.3,133.3z"/>
		<path class="st3" d="M57.3,85.4c0.3,0.9,1.1,1.6,0.4,2.7c-2.9,4.6-4.4,9.6-4.7,15c0,0.3-0.1,0.6-0.2,1c-0.7-0.1-1.3-0.1-1.8-0.3
			c-0.2-0.1-0.5-0.5-0.5-0.8c0.2-6.5,2.3-12.4,6.4-17.5C57,85.5,57.1,85.5,57.3,85.4z"/>
		<path class="st3" d="M130.7,150.7c-0.6-0.8,0-1,0.6-1.3c5-2.2,9.2-5.4,12.5-9.8c0.5-0.6,0.9-1.3,1.5-1.9c0.8-0.9,1.7-0.8,2.6-0.1
			c0.7,0.7,0.7,1.6-0.1,2.3c-4.9,4.7-10.4,8.5-16.9,10.7C130.8,150.7,130.7,150.7,130.7,150.7z"/>
		<path class="st3" d="M96.3,63.3c0.7,0.9,0.2,1.2-0.4,1.4c-5,2.2-9.2,5.4-12.6,9.7c-0.5,0.6-0.9,1.3-1.5,1.9
			c-0.8,0.9-1.8,0.9-2.6,0.1c-0.8-0.8-0.6-1.6,0.1-2.3c3.4-3.4,7.3-6.3,11.7-8.5C92.8,64.9,94.6,64.1,96.3,63.3z"/>
		<path class="st3" d="M160.1,110.7c0.6,0.2,1.1,0.3,1.6,0.5c0,0.3,0.1,0.7,0.1,1c0,6.7,0.1,13.4,0.1,20.1c0,1.5-0.1,1.5-1.8,1.3
			C160.1,126,160.1,118.4,160.1,110.7z"/>
		<path class="st3" d="M73.4,73.4c7.2-6,14.4-12.1,21.6-18.1c-0.3,1.5-0.7,2.8-2,3.8C88.3,63,83.7,67,78.9,70.8
			c-1.6,1.2-3.5,2-5.3,2.9C73.6,73.6,73.5,73.5,73.4,73.4z"/>
		<path class="st3" d="M162.9,102.8c-0.7-3.3-1.1-6.5-2.2-9.4c-1-2.9-2.6-5.5-3.9-8.2c2.9,2.5,5.6,5.2,6.9,9
			c0.6,1.7,1.1,3.6,1.4,5.4c0.2,0.9,0,2-0.4,2.8C164.5,102.8,163.4,102.7,162.9,102.8z"/>
		<path class="st3" d="M29.6,63.9c0.3-2.9,1.6-4.3,4-4.5c0.8-0.1,1.5-0.2,2.3-0.3c2.3-0.4,4.1,0.6,4.9,3.2
			C37.1,62.8,33.5,63.4,29.6,63.9z"/>
		<path class="st3" d="M168.1,61.7c0.7-1.7,1.5-3.1,2.8-3.1c2.2-0.1,4.6,0.2,6.7,0.9c1.2,0.4,1.8,2,1.9,3.8
			C175.7,62.7,172,62.2,168.1,61.7z"/>
		<path class="st3" d="M41.3,65.2c-0.6,2.6-1.7,3.7-4.2,4.2c-0.8,0.1-1.5,0.3-2.3,0.4c-2,0.3-3.9-1-4.5-3
			C33.9,66.2,37.5,65.7,41.3,65.2z"/>
		<path class="st3" d="M167.8,64.6c3.7,0.5,7.3,1,10.9,1.4c-0.2,1.4-2.2,3.2-3.7,3.1c-1.4-0.1-2.8-0.3-4.2-0.5
			C169.5,68.3,168.3,66.7,167.8,64.6z"/>
		<path class="st3" d="M58.5,81.4c-1.8,2.8-3.9,6-5.7,9.3c-2,3.6-2.8,7.7-2.9,11.8c0,0.7,0.1,1.3-1,1.3c-1,0-0.9-0.6-0.9-1.2
			c0.2-3.6,1.1-7.1,2.6-10.4C52.6,87.8,55.4,84.2,58.5,81.4z"/>
		<path class="st3" d="M161.6,102.5c-0.2,0-0.4,0.1-0.6,0c-0.3,0-0.6-0.1-1-0.1c-0.2-7.4-2.6-13.9-7.5-19.8
			C156.2,83.2,162.4,97.2,161.6,102.5z"/>
		<path class="st3" d="M157.2,102.9c-0.1-4.2-0.9-8.1-2.6-11.8c0.5-0.4,1-0.7,1.6-1.1c1.4,2.7,2.3,5.4,2.7,8.2
			c0.1,0.9,0.2,1.8,0.3,2.6C159.4,102.7,159.4,102.7,157.2,102.9z"/>
		<path class="st3" d="M144,70.9c-0.7,0.5-1.4,0.8-2.2,1.3c-3.1-3.4-7.2-6.1-11.8-8c0-0.2,0-0.3,0.1-0.5c0-0.2,0.1-0.3,0.2-0.6
			C135.3,65,139.9,67.5,144,70.9z"/>
		<path class="st3" d="M161.8,110.3c0-2.3,0-4.5,0-6.6c0.1-0.1,0.1-0.1,0.2-0.1c2.7-0.5,2.9-0.4,2.9,2.3c0,1.1-0.1,2.2,0,3.3
			c0.1,0.9-0.3,1.3-1.2,1.2C163.1,110.3,162.5,110.3,161.8,110.3z"/>
		<path class="st3" d="M74,76.3c1.3-0.5,2.5-0.9,3.8-1.3c0.2,1.9,0.4,3.6,0.4,5.3c0,1.7-0.2,1.8-2.1,2.2
			C75.5,80.5,74.8,78.5,74,76.3z"/>
		<path class="st3" d="M93.6,60.2c-0.3,1.1-0.5,2.2-0.9,3.2c-0.1,0.3-0.6,0.6-1,0.8c-2.9,1.9-5.9,3.7-8.8,5.5
			c-0.5,0.3-1.1,0.5-1.6,0.8c-0.1-0.1-0.1-0.2-0.2-0.3c4.1-3.4,8.2-6.8,12.2-10.2C93.4,60,93.5,60.1,93.6,60.2z"/>
		<path class="st3" d="M83.9,152.6c-2.9,0-2.3,0.2-2.4-2.4c-0.1-1.2,0.4-1.6,1.5-1.5c0.3,0,0.6,0,1,0c3,0,2.6-0.4,2.7,2.7
			c0,1-0.4,1.3-1.3,1.3C84.8,152.6,84.3,152.6,83.9,152.6z"/>
		<path class="st3" d="M96.1,49.4c0.1,1.2,0.1,2.2,0.1,3.2c0,0.3-0.2,0.7-0.5,0.9c-1.3,1.1-2.7,2.2-4,3.3c-0.6-0.7-1.2-1.4-1.9-2.2
			C91.8,53,93.9,51.3,96.1,49.4z"/>
		<path class="st3" d="M156.8,78.7c2.2,0.2,3.9,0.4,5.6,0.6c0.3,0,0.7,0.2,0.7,0.4c0.4,1.7,0.8,3.4,1.1,5.2
			c-2.3-1.6-4.5-3.1-6.6-4.6C157.3,80,157.2,79.5,156.8,78.7z"/>
		<path class="st3" d="M52.4,79.2c-0.4,0.7-0.5,1.4-0.9,1.6c-2.1,1.6-4.3,3.1-6.5,4.6c0.4-1.7,0.7-3.4,1.1-5.2
			c0-0.2,0.3-0.4,0.5-0.4C48.4,79.7,50.2,79.5,52.4,79.2z"/>
		<path class="st3" d="M39.3,123c-0.4-3.7-0.7-7.4-1.1-11c1.9-0.5,1.9-0.4,2,1.2c0.2,2.7,0.5,5.3,0.8,8
			C41.1,122.9,41.2,122.9,39.3,123z"/>
		<path class="st3" d="M35.2,75.6c-0.2-0.2-0.2-0.2-0.2-0.3c-1.1-3.9-0.9-4.2,3.6-4.5c0.2,1.3,0.4,2.6,0.6,4.1
			C37.8,75.2,36.5,75.4,35.2,75.6z"/>
		<path class="st3" d="M170.6,70.2c1.5,0.2,2.8,0.4,4.3,0.5c-0.2,1.5-0.4,2.8-0.6,4.3c-1.3-0.2-2.5-0.3-3.7-0.6
			c-0.2,0-0.5-0.5-0.5-0.8C170.2,72.5,170.4,71.4,170.6,70.2z"/>
		<path class="st3" d="M104.7,61.3c3.7-0.8,7.5-1.1,11.3-0.8c1.7,0.1,3.3,0.3,5,0.6c0.3,0,0.6,0.3,0.9,0.5c-0.4,0.1-0.7,0.4-1.1,0.4
			c-4-0.1-8-0.2-12-0.3c-1.1,0-2.2,0.3-3.3,0.4c-0.3,0-0.7-0.2-1-0.4C104.6,61.5,104.7,61.4,104.7,61.3z"/>
		<path class="st3" d="M122.3,153c-5.4,1.1-10.9,1.1-16.3,0.2c-0.3,0-0.5-0.4-0.8-0.6c0.3-0.1,0.7-0.3,1-0.3
			c3.6,0.1,7.1,0.4,10.7,0.4c1.6,0,3.1-0.3,4.7-0.5c0.3,0,0.6,0.2,1,0.4C122.4,152.7,122.3,152.9,122.3,153z"/>
		<path class="st3" d="M171.2,113.5c-0.3,3-0.6,5.9-1,9c-0.6-0.1-1.2-0.2-1.7-0.2c0.3-2.8,0.5-5.5,0.8-8.2c0-0.4,0.9-0.6,1.4-0.9
			C170.9,113.3,171.1,113.4,171.2,113.5z"/>
		<path class="st3" d="M44.1,97.3c-0.6,2.9-1.2,5.6-1.8,8.4c-0.6-0.1-1.1-0.2-1.8-0.3c0.6-2.9,1.2-5.6,1.8-8.5
			C42.9,97.1,43.4,97.2,44.1,97.3z"/>
		<path class="st3" d="M42.6,96c0.7-3.2,2.2-5.9,4.4-8.5c0.4,0.3,0.7,0.7,1.2,1.1c-0.5,0.7-1.1,1.4-1.5,2.1
			c-0.7,1.4-1.4,2.9-1.9,4.4C44.3,96.3,43.9,96.7,42.6,96z"/>
		<path class="st3" d="M162.3,87c2.2,2.5,3.6,5.2,4.5,8.5c-0.6,0.2-1.1,0.3-1.6,0.4c-0.6-1.4-1-2.8-1.7-4.1
			c-0.7-1.3-1.5-2.5-2.4-3.8C161.5,87.8,161.9,87.4,162.3,87z"/>
		<path class="st3" d="M69,122c0.9-0.4,1.7-0.8,2.5-1.1c0.1,0.1,0.2,0.2,0.3,0.3c-0.9,0.9-0.3,1.6,0.2,2.4c0.4,0.6,1.2,1.2,0.5,1.9
			c-0.4,0.4-1.2,0.6-1.9,0.7c-0.7,0.1-1.5,0-2.2,0.1c-1,0.1-1.5-0.3-1.7-1.5c1,0,1.9,0,2.8,0c0.8,0,1.2-0.2,0.6-1.1
			C69.8,123.2,69.5,122.7,69,122z"/>
		<path class="st3" d="M111.8,46.1c0-1.6,0-3,0-4.6c1,0,1.9,0,3.1,0c0,1.3,0,2.7,0,4c0,0.2-0.4,0.5-0.7,0.6
			C113.4,46.1,112.7,46.1,111.8,46.1z"/>
		<path class="st3" d="M87.1,155.3c0,2.2-0.2,2.4-2.1,2.4c-0.6,0-1.1,0-1.7,0c-2.2,0-2.2,0-2.4-2.4C82.9,155.3,85,155.3,87.1,155.3z
			"/>
		<path class="st3" d="M122.8,155.1c2.1,0,4.2,0,6.2,0c0,2.3-0.2,2.4-2.3,2.4c-0.6,0-1.1,0-1.7,0C123,157.5,122.9,157.4,122.8,155.1
			z"/>
		<path class="st3" d="M143.3,74.1c1.5-0.3,1.7-1.2,1.5-2.6c1.1,1,2,1.8,2.8,2.6c0.6,0.6,0.6,1.4-0.1,2.1c-0.7,0.7-1.5,0.9-2.3,0.2
			C144.6,75.8,144.1,75,143.3,74.1z"/>
		<path class="st3" d="M154.5,82.1c0.3-0.4,0.5-0.8,0.9-1.3c2.1,1.8,4.2,3.6,6.3,5.5c-0.4,0.5-0.8,0.8-1.1,1.2
			C158.5,85.6,156.6,83.9,154.5,82.1z"/>
		<path class="st3" d="M179.9,64.6c-0.4,0.1-0.9,0.4-1.3,0.4c-3.3-0.4-6.7-0.9-10-1.3c-0.4-0.1-0.8-0.4-1.3-0.6
			c0-0.1,0.1-0.3,0.1-0.4c4.1,0.5,8.2,1.1,12.3,1.6C179.8,64.3,179.8,64.4,179.9,64.6z"/>
		<path class="st3" d="M53.8,81.2c0.4,0.6,0.7,0.9,1,1.3c-2,1.8-4,3.5-6,5.3c-0.3-0.3-0.7-0.6-1.2-1.1
			C49.6,84.9,51.7,83.1,53.8,81.2z"/>
		<path class="st3" d="M71.7,156.1c0-0.5,0-0.7-0.1-0.9c-0.2-1,0.2-1.5,1.3-1.4c1.2,0.1,2.4,0,3.6,0c0.8,0,0.8,0.5,0.8,1.1
			c-0.1,0.5,0.2,1.2-0.7,1.3C75,156.1,73.4,156.1,71.7,156.1z"/>
		<path class="st3" d="M41.8,63.1c-1.2,1.7-11.6,3.1-12.6,1.8C33.4,64.3,37.5,63.7,41.8,63.1z"/>
		<path class="st3" d="M95.7,62.2c0.7-2.9,1.5-5.8,2.2-8.6c0.2-0.6,0.2-1.2,0.5-1.7c0.2-0.3,0.6-0.6,0.9-0.8
			c0.1,0.1,0.2,0.2,0.3,0.3c-0.1,0.6-0.3,1.2-0.4,1.8c-0.7,2.6-1.3,5.3-2,7.9c-0.2,0.6-0.7,1-1,1.5C96,62.4,95.8,62.3,95.7,62.2z"/>
		<path class="st3" d="M130.6,62.2c-0.3-0.4-0.8-0.7-0.9-1.2c-0.9-3-1.7-6.1-2.5-9.1c-0.1-0.3,0.1-0.6,0.2-0.9
			c0.3,0.1,0.7,0.2,0.7,0.4c1,3.5,2,7,2.9,10.4C130.9,62,130.7,62.1,130.6,62.2z"/>
		<path class="st3" d="M104.4,47c5.9,0,11.8,0,17.9,0C121.4,47.8,105.8,47.9,104.4,47z"/>
		<path class="st3" d="M157.5,106.9c0-0.4,0-0.9,0-1.3c0-1.4,0.2-1.6,1.5-1.3c0.3,0,0.7,0.5,0.7,0.8c0.1,1.2,0,2.5,0,3.8
			c0,1-0.7,0.8-1.3,0.9c-0.6,0-1.1-0.1-1.1-0.9C157.6,108.1,157.5,107.5,157.5,106.9C157.5,106.9,157.5,106.9,157.5,106.9z"/>
		<path class="st3" d="M74.5,151.1c0.6,0,1.2,0,1.8,0c0.8-0.1,1.1,0.2,1.1,1c0,0.8-0.4,1-1.1,1c-1.3,0-2.5,0-3.8,0
			c-0.8,0-0.9-0.4-0.9-1.1c0-0.7,0.2-1.1,1-1C73.2,151.1,73.8,151.1,74.5,151.1C74.5,151.1,74.5,151.1,74.5,151.1z"/>
		<path class="st3" d="M169.4,139c-1.1-0.2-2-0.4-3.1-0.6c0.3-1.2,0.6-2.4,1-3.6c0.1-0.3,0.9-0.4,1.3-0.5c0.2,0,0.5,0.5,0.6,0.8
			C169.3,136.5,169.3,137.8,169.4,139z"/>
		<path class="st3" d="M40.4,139.6c0-0.1,0-0.3,0-0.4c0-1.3,0-2.7,0-3.9c1.7-0.6,2-0.4,2.4,1.1c0.2,0.9,0.5,1.8,0.7,2.7
			C42.5,139.2,41.5,139.4,40.4,139.6z"/>
		<path class="st3" d="M77.4,66.2c-1.3,1.1-2.5,2.1-4,3.3c-0.1-1-1.4-1.6-0.3-2.5C75.7,64.7,75.7,64.7,77.4,66.2z"/>
		<path class="st3" d="M43.9,137.1c1.5,1.1,3,2.2,4.5,3.3c0.7,0.5,0.9,1.1,0.1,1.9C46.3,141.1,43.8,140.2,43.9,137.1z"/>
		<path class="st3" d="M168.4,123.1c0.5,0,0.8,0,1.1,0.1c0.2,0,0.4,0.1,0.7,0.2c-0.2,1.6-0.5,3.2-0.7,4.7c-1.7,0.1-1.8,0-1.6-1.4
			C168,125.5,168.2,124.4,168.4,123.1z"/>
		<path class="st3" d="M41.3,123.7c0.2,1.7,0.5,3.3,0.7,4.8c-1.5,0.6-1.7,0.5-1.9-0.9c-0.1-0.8-0.2-1.5-0.4-2.3
			C39.4,123.8,39.4,123.8,41.3,123.7z"/>
		<path class="st3" d="M161.3,141.9c-0.9-1-0.1-1.6,0.4-2c1.3-1.1,2.7-2.1,4.1-3.2C165.9,139.7,163.4,140.6,161.3,141.9z"/>
		<path class="st3" d="M62,103.6c-1.8,0-3.5,0-5.3,0c0.3-1.2,0.9-1.9,2-2C60.6,101.5,61.2,101.8,62,103.6z"/>
		<path class="st3" d="M62.1,110.9c-0.6,1.7-1.2,2.2-2.6,2.3c-1.3,0-2.2-0.5-2.7-2C58.5,111.1,60.2,111,62.1,110.9z"/>
		<path class="st3" d="M48.9,139.7c-0.3-1.7-0.6-3.1-0.8-4.6c1.6-0.5,1.9-0.4,2,1.1c0.1,1,0.3,1.9,0.4,3
			C50.1,139.2,49.6,139.4,48.9,139.7z"/>
		<path class="st3" d="M67.3,149.5c3.7-0.8,7.4-0.4,11.4-0.5C77.8,149.7,69.5,150,67.3,149.5z"/>
		<path class="st3" d="M168.3,108.1c0.6,0,1.1-0.1,1.7,0c0.3,0.1,0.7,0.4,0.7,0.6c0,0.3-0.3,0.8-0.6,0.8c-1.2,0.1-2.5,0.1-3.7,0
			c-0.2,0-0.5-0.5-0.5-0.8c0-0.2,0.4-0.5,0.7-0.6C167.1,108,167.7,108.1,168.3,108.1C168.3,108.1,168.3,108.1,168.3,108.1z"/>
		<path class="st3" d="M162,134.2c-0.2,1.6-0.5,3.1-0.7,4.6c-0.7-0.2-1.2-0.3-1.7-0.5c0.2-1.2,0.3-2.4,0.5-3.6
			C160.3,133.7,161.1,134.4,162,134.2z"/>
		<path class="st3" d="M63,102.8c2.6,0,5.2,0,8,0C70,103.9,63.6,103.8,63,102.8z"/>
		<path class="st3" d="M164.3,78.7c0.7-0.6,6.8-0.2,8.8,0.3c0.3,0.1,0.5,0.3,0.7,0.5c-0.1,0.1-0.1,0.2-0.2,0.4
			C170.6,79.6,167.5,79.2,164.3,78.7z"/>
		<path class="st3" d="M83.9,154.5c-0.6,0-1.2,0.1-1.8,0c-0.2,0-0.6-0.4-0.6-0.6c0-0.3,0.3-0.7,0.5-0.7c1.3-0.1,2.7-0.1,4,0
			c0.2,0,0.5,0.4,0.5,0.6c-0.1,0.3-0.4,0.6-0.6,0.7C85.3,154.6,84.6,154.5,83.9,154.5C83.9,154.5,83.9,154.5,83.9,154.5z"/>
		<path class="st3" d="M38.9,104.7c0.6-2.8,1.2-5.5,1.8-8.1c0.1-0.2,0.4-0.4,0.5-0.6c0.1,0.2,0.2,0.5,0.2,0.7
			c-0.5,2.7-1.1,5.3-1.6,8c0,0.2-0.3,0.3-0.5,0.5C39.1,105,38.9,104.8,38.9,104.7z"/>
		<path class="st3" d="M40.2,129.7c0.6-0.1,1.1-0.2,1.8-0.3c0.1,1.4,0.2,2.6,0.3,4c-0.7,0-1.2,0.1-1.8,0.1
			C40.4,132.2,40.3,131,40.2,129.7z"/>
		<path class="st3" d="M123.5,46.1c0.9-1,2.1-0.9,3.7,0.3c1.5,1.1,2,2.3,1.3,3.5C127.5,47.8,125.9,46.6,123.5,46.1z"/>
		<path class="st3" d="M167.9,100.1c-1.6,0.4-1.7,0.4-2.1-1.1c-0.2-0.7-0.3-1.4-0.5-2.2c0.6-0.1,1.1-0.3,1.7-0.4
			C167.3,97.7,167.6,98.9,167.9,100.1z"/>
		<path class="st3" d="M44.8,79.1c-0.3,0.1-0.7,0.3-1,0.3c-2.4,0.4-4.8,0.7-7.2,1.1c-0.3,0-0.6-0.1-1-0.2c0.3-0.2,0.5-0.5,0.9-0.5
			c2.4-0.4,4.7-0.7,7.1-1c0.4-0.1,0.8,0,1.2,0C44.7,78.8,44.8,79,44.8,79.1z"/>
		<path class="st3" d="M180.4,123.7c0.3-0.2,0.6-0.5,0.9-0.6c1.6-0.2,3.3-0.3,5-0.3c0.3,0,0.7,0.2,1,0.6c-2.2,1.1-4.5,0.7-6.7,0.8
			C180.5,124,180.4,123.8,180.4,123.7z"/>
		<path class="st3" d="M22.3,123.9c0.4-0.1,0.7-0.4,1.1-0.4c1.5,0,3.1,0.1,4.6,0.3c0.4,0,0.7,0.3,1,0.5c-0.3,0.2-0.7,0.5-1,0.5
			c-1.5,0-3-0.1-4.5-0.2c-0.4,0-0.8-0.2-1.2-0.3C22.4,124.2,22.3,124,22.3,123.9z"/>
		<path class="st3" d="M168.3,104.2c0.6,0,1.2-0.1,1.7,0c0.3,0.1,0.6,0.5,0.7,0.8c0,0.2-0.4,0.6-0.7,0.6c-1.1,0.1-2.3,0.1-3.4,0
			c-0.3,0-0.5-0.5-0.8-0.7c0.3-0.3,0.5-0.7,0.8-0.7C167.1,104.2,167.7,104.2,168.3,104.2z"/>
		<path class="st3" d="M167.5,132.8c0-1-0.1-2.1,0-3.1c0-0.3,0.6-0.7,0.9-0.7c0.5-0.1,0.9,0.1,0.9,0.8c-0.1,0.6,0,1.2-0.1,1.8
			C169.3,133.1,169.2,133.1,167.5,132.8z"/>
		<path class="st3" d="M39.3,137.2c-2,0.1-4.1,0.1-6.1,0.2c-0.2,0-0.4-0.2-0.5-0.4c0-0.2,0.2-0.5,0.3-0.5c1.9-0.1,3.8-0.2,5.7-0.2
			c0.2,0,0.4,0.3,0.6,0.5C39.4,136.9,39.3,137,39.3,137.2z"/>
		<path class="st3" d="M142,67.9c1.9-1.1,1.9-1.1,3.1,0.5c0.3,0.5,0.7,0.9,1,1.4c0.1,0.3,0.1,0.6,0.1,0.9c-0.3-0.1-0.6,0-0.8-0.2
			C144.2,69.7,143.1,68.8,142,67.9z"/>
		<path class="st3" d="M170.3,136c0.3-0.1,0.7-0.4,1-0.4c1.6,0,3.2,0.1,4.9,0.2c0.3,0,0.6,0.4,0.9,0.6c-0.3,0.1-0.6,0.4-0.9,0.4
			c-1.6,0-3.2,0-4.8-0.1c-0.4,0-0.7-0.2-1.1-0.3C170.3,136.2,170.3,136.1,170.3,136z"/>
		<path class="st3" d="M22.1,110.3c0.4-0.1,0.8-0.4,1.2-0.4c1.5,0,3,0.1,4.5,0.2c0.3,0,0.6,0.4,0.9,0.5c-0.3,0.2-0.6,0.5-0.9,0.5
			c-1.9-0.1-3.8-0.2-5.6-0.3C22.2,110.7,22.1,110.5,22.1,110.3z"/>
		<path class="st3" d="M110.6,46.2c-0.2-0.4-0.6-0.8-0.6-1.2c-0.1-0.8,0.3-1.7-0.8-2.2c-0.2-0.1-0.1-0.8-0.1-1.3c0.7,0,1.3,0,2,0
			c0,1.5,0,3,0,4.5C110.8,46,110.7,46.1,110.6,46.2z"/>
		<path class="st3" d="M123.3,61.2c1.9,0.5,3.7,1,5.5,1.5c0.2,0.1,0.3,0.4,0.5,0.7c-0.3,0.1-0.6,0.3-0.8,0.2
			c-1.8-0.4-3.5-0.9-5.2-1.4c-0.2-0.1-0.3-0.4-0.5-0.6C122.9,61.5,123.1,61.4,123.3,61.2z"/>
		<path class="st3" d="M187.3,110.2c-2,0.1-3.9,0.2-5.9,0.3c-0.2,0-0.4-0.3-0.5-0.5c0-0.1,0.2-0.5,0.4-0.5c1.8-0.1,3.7-0.2,5.5-0.3
			c0.2,0,0.4,0.3,0.6,0.5C187.3,109.9,187.3,110.1,187.3,110.2z"/>
		<path class="st3" d="M24.2,136.5c0.3-0.1,0.7-0.4,1-0.4c1.3,0.1,2.6,0.2,4,0.3c0.3,0,0.5,0.3,0.8,0.5c-0.2,0.1-0.5,0.4-0.7,0.4
			c-1.6,0-3.2-0.1-4.9-0.1C24.3,137,24.2,136.8,24.2,136.5z"/>
		<path class="st3" d="M97.3,63c2-0.5,4-1.1,6-1.6c0.2,0,0.4,0.2,0.6,0.3c-0.1,0.2-0.2,0.6-0.4,0.6c-1.8,0.5-3.6,1.1-5.5,1.5
			c-0.2,0.1-0.5-0.2-0.8-0.3C97.3,63.4,97.3,63.2,97.3,63z"/>
		<path class="st3" d="M123,152.5c0.2-0.2,0.4-0.6,0.7-0.7c1.6-0.5,3.3-1,4.9-1.4c0.3-0.1,0.7,0.2,1,0.3c-0.2,0.2-0.4,0.6-0.7,0.7
			c-1.9,0.6-3.7,1.1-5.6,1.6C123.3,152.8,123.1,152.7,123,152.5z"/>
		<path class="st3" d="M103.7,153c-1.8-0.5-3.6-1-5.3-1.5c-0.2-0.1-0.4-0.4-0.6-0.6c0.3-0.1,0.6-0.3,0.9-0.3c1.7,0.4,3.4,0.8,5,1.3
			c0.2,0.1,0.4,0.4,0.6,0.6C104.1,152.7,103.9,152.8,103.7,153z"/>
		<path class="st3" d="M64.1,79.5c0.5,0.7-0.5,2-4,4.9c-0.4,0.4-0.9,1.5-1.9,0.7C60.2,83.2,62.1,81.4,64.1,79.5z"/>
		<path class="st3" d="M103,46.3c-2.2,0.3-3.7,1.5-4.8,3.4c-0.4-1.8,0.5-3.2,2.5-3.9C101.5,45.5,102.4,44.7,103,46.3z"/>
		<path class="st3" d="M182.1,136.7c-0.6,0-1.2,0-1.8,0c-0.2,0-0.4-0.2-0.5-0.4c0.2-0.2,0.3-0.5,0.5-0.5c1.5-0.2,3.1-0.3,4.6-0.4
			c0.2,0,0.5,0.3,0.6,0.5c0,0.1-0.2,0.5-0.4,0.6c-0.9,0.2-1.9,0.3-2.9,0.4C182.1,136.8,182.1,136.7,182.1,136.7z"/>
		<path class="st3" d="M115.6,46.3c0-1.8,0-3.3,0-4.7c1.5-0.5,2.3-0.1,1.9,0.6c-0.7,1.1-0.8,2.2-0.9,3.4
			C116.5,45.8,116.1,46,115.6,46.3z"/>
		<path class="st3" d="M52.1,78.5c-1.8,0.2-3.5,0.4-5.3,0.6c-0.2,0-0.5-0.2-0.7-0.3c0.2-0.2,0.3-0.5,0.6-0.6
			c1.4-0.3,2.9-0.6,4.3-0.7c0.4,0,0.8,0.3,1.2,0.5C52.1,78.2,52.1,78.3,52.1,78.5z"/>
		<path class="st3" d="M157,77.6c0.5-0.2,1-0.6,1.4-0.5c1.4,0.1,2.7,0.4,4.1,0.7c0.3,0.1,0.5,0.4,0.7,0.6c-0.3,0.1-0.5,0.3-0.8,0.3
			c-1.8-0.2-3.5-0.4-5.3-0.6C157.1,77.9,157,77.7,157,77.6z"/>
		<path class="st3" d="M63,111.6c0.3-0.2,0.6-0.5,0.9-0.5c2.1-0.1,4.1-0.1,6.2,0c0.2,0,0.5,0.3,0.7,0.4c-0.2,0.1-0.3,0.4-0.5,0.4
			c-2.4,0-4.8,0-7.2,0C63,111.8,63,111.7,63,111.6z"/>
		<path class="st3" d="M37.2,124.8c-1.7,0-3.4,0-5.1,0c-0.2,0-0.4-0.2-0.6-0.4c0.2-0.2,0.3-0.5,0.5-0.6c1.5-0.1,3-0.2,4.5-0.2
			c0.3,0,0.6,0.4,0.9,0.5C37.3,124.4,37.2,124.6,37.2,124.8z"/>
		<path class="st3" d="M172.2,123.6c0.4-0.2,0.7-0.5,1.1-0.5c1.3,0,2.7,0,4,0.1c0.3,0,0.5,0.3,0.8,0.5c-0.3,0.2-0.5,0.5-0.8,0.5
			c-1.7,0-3.3-0.1-5-0.1C172.3,123.9,172.2,123.7,172.2,123.6z"/>
		<path class="st3" d="M119.2,155.2c-0.3,0.2-0.5,0.6-0.8,0.7c-1.4,0.1-2.7,0.1-4.1,0c-0.3,0-0.5-0.3-0.8-0.5
			c0.2-0.1,0.5-0.4,0.7-0.4c1.6,0,3.1,0,4.7,0C119,155.1,119.1,155.1,119.2,155.2z"/>
		<path class="st3" d="M28.6,113.1c-1.7,0.9-6,0.9-6.6,0C24.3,112.9,26.4,112.9,28.6,113.1z"/>
		<path class="st3" d="M180.7,112.8c0.8-0.7,4.8-0.8,7-0.3c-0.3,0.3-0.6,0.7-0.8,0.7C184.8,113.1,182.9,113,180.7,112.8z"/>
		<path class="st3" d="M58.8,78.6c-1,1.2-2,2.3-3.1,3.6c-0.4-0.6-0.7-1-1-1.4c1.3-1,2.5-1.9,3.7-2.8C58.5,78.2,58.6,78.4,58.8,78.6z
			"/>
		<path class="st3" d="M154.5,80.5c-0.2,0.3-0.5,0.7-0.8,1.2c-1.1-1.2-2.2-2.3-3.3-3.5C151.2,77.8,152.8,78.8,154.5,80.5z"/>
		<path d="M57.7,107.7c-0.5,0.3-1,0.9-1.4,0.9c-0.4,0-1-0.8-1-1.2c0-0.4,0.7-1.1,1-1.1c0.5,0,0.9,0.6,1.4,0.9
			C57.7,107.3,57.7,107.5,57.7,107.7z"/>
		<path class="st3" d="M68.7,73.3c-2.6,0.9-5.1,1.9-7.7,2.8c-0.1-0.2-0.2-0.4-0.2-0.6c2.6-0.9,5.2-1.8,7.7-2.7
			C68.6,73,68.7,73.2,68.7,73.3z"/>
		<path class="st3" d="M72.3,120c-1.4,0-2.7,0-4.1,0c0.5-1.4,0.9-1.6,3.1-1.3c0.4,0,0.8,0.6,1.2,0.9C72.5,119.7,72.4,119.8,72.3,120
			z"/>
		<path class="st3" d="M32.5,138.6c2.5-1,6.8-0.1,6.7,1.1C37.1,139.3,34.9,139,32.5,138.6z"/>
		<path class="st3" d="M22.7,125.8c2.2,0,4.3,0,6.6,0C28.1,126.6,23.3,126.5,22.7,125.8z"/>
		<path class="st3" d="M57.2,77.4c-1.3,0.3-2.7,0.5-4,0.8c-0.5-0.7-0.5-1.2,0.5-1.3c0.8-0.1,1.5-0.3,2.3-0.4
			C56.5,76.4,57.2,76.4,57.2,77.4z"/>
		<path class="st3" d="M122.8,45.5c-0.3,0.2-0.6,0.6-0.9,0.6c-1.3,0.1-2.7,0.1-4,0c-0.2,0-0.4-0.3-0.5-0.5c0.2-0.1,0.3-0.4,0.5-0.4
			c1.6,0,3.2,0,4.8,0C122.7,45.3,122.8,45.4,122.8,45.5z"/>
		<path class="st3" d="M152,77c0.5-1.1,2.2-1.1,4.4-0.2c0,0.6-0.1,1.1-1,0.8C154.3,77.4,153.1,77.2,152,77z"/>
		<path class="st3" d="M43.8,88.5c0.2,0.5,0.3,0.6,0.2,0.7c-0.7,1.9-1.5,3.8-2.2,5.6c-0.1,0.2-0.3,0.2-0.5,0.3
			c-0.1-0.2-0.2-0.3-0.2-0.5C41.6,92.5,42.5,90.6,43.8,88.5z"/>
		<path class="st3" d="M64,76.3c-1.5,1-3,2-4.6,3.1c0.1-1.3,0.4-2.2,1.8-2.5c0.9-0.2,1.8-0.6,2.7-0.9C63.9,76.1,64,76.2,64,76.3z"/>
		<path class="st3" d="M170.3,139.1c0.2-0.3,0.3-0.7,0.6-0.8c2-0.9,4-0.7,6.1-0.7c0,0.1,0,0.2,0.1,0.3
			C174.9,138.3,172.7,138.7,170.3,139.1z"/>
		<path class="st3" d="M174.5,79.4c2.6,0.3,5.3,0.5,7.9,0.8c0,0.1,0,0.3,0,0.4c-2.6-0.2-5.3-0.3-7.9-0.5
			C174.5,79.8,174.5,79.6,174.5,79.4z"/>
		<path class="st3" d="M34.8,80.7c-2.8,0.2-5.4,0.3-8.1,0.5c0-0.1,0-0.3,0-0.4c2.6-0.3,5.1-0.6,7.7-0.8C34.5,80,34.7,80.4,34.8,80.7
			z"/>
		<path class="st3" d="M168.4,94.7c-0.4-0.1-0.7-0.1-0.8-0.3c-0.8-2-1.5-4.1-2.1-6.1C167,90.1,167.8,92.2,168.4,94.7z"/>
		<path class="st3" d="M143.4,149.4c-2.1,0-4.2,0-6.2,0C139.3,148.4,141.4,148.6,143.4,149.4z"/>
		<path class="st3" d="M180.5,125c2.1,0,4.2,0,6.6,0c-0.4,0.4-0.6,0.7-0.8,0.7c-1.9,0-3.8-0.1-5.8-0.2
			C180.5,125.4,180.5,125.2,180.5,125z"/>
		<path class="st3" d="M28.4,109c-1.5,0-2.9,0-4.5,0C24.8,108,27.7,108.1,28.4,109z"/>
		<path class="st3" d="M42.1,106.7c-0.4,0.8-0.8,1.6-1.2,2.4c-0.5-0.4-0.9-0.7-1.3-0.9C40.3,106.1,40.3,106.1,42.1,106.7z"/>
		<path class="st3" d="M20.8,81.6c0.7-0.1,1.4-0.2,2.2-0.3c0,0.6,0.1,1,0.1,1.5C21.3,83.6,20.8,83.4,20.8,81.6z"/>
		<path class="st3" d="M23.8,152c0.2-0.5,0.2-1.2,0.5-1.4c0.5-0.2,1.2-0.1,1.7,0.1c0.2,0.1,0.2,1.1,0.1,1.2
			c-0.7,0.2-1.4,0.3-2.1,0.5C24,152.2,23.9,152.1,23.8,152z"/>
		<path class="st3" d="M169.7,100.3c-1.1-0.5-2-4-1.2-5.3C168.9,97,169.3,98.5,169.7,100.3z"/>
		<path class="st3" d="M172.9,110.1c0.5-0.6,2.7-0.9,3.3-0.5c0.1,0.1,0.3,0.4,0.2,0.5c-0.1,0.2-0.3,0.4-0.4,0.4c-1,0-2,0-3.1,0
			C172.9,110.4,172.9,110.3,172.9,110.1z"/>
		<path class="st3" d="M103.9,45.3c1.5,0,3.1,0,4.6,0c0.2,0,0.4,0.3,0.6,0.4c-0.1,0.2-0.3,0.4-0.4,0.4c-1.4,0-2.8,0-4.2,0
			c-0.2,0-0.5-0.3-0.7-0.5C103.8,45.5,103.9,45.4,103.9,45.3z"/>
		<path class="st3" d="M128.2,153c0.3,1,0.2,1.4-0.8,1.4c-1.3,0-2.5,0-3.8-0.3C125.2,153.7,126.7,153.3,128.2,153z"/>
		<path class="st3" d="M131,54.5c-0.1-1.1-0.2-2.1-0.3-3.1c0.1,0,0.2-0.1,0.3-0.1c0.6,0.8,1.2,1.6,1.9,2.6
			C132.2,54.1,131.7,54.3,131,54.5z"/>
		<path class="st3" d="M127.4,50.3c-1.6-0.9-2.3-3.1-4.6-3C124.6,46.7,126.9,48.3,127.4,50.3z"/>
		<path class="st3" d="M36.8,111c-1.2,0.1-2.2,0.2-3.2,0.2c-0.2,0-0.4-0.2-0.5-0.3c-0.1-0.1,0-0.4,0.1-0.5
			C33.7,109.8,36.2,110.2,36.8,111z"/>
		<path class="st3" d="M31.5,125.7c1.6,0,3.1,0,4.6,0C35.7,126.4,32.8,126.7,31.5,125.7z"/>
		<path class="st3" d="M178,125c-1.4,1-4,0.9-4.6,0C175,125,176.5,125,178,125z"/>
		<path class="st3" d="M185.5,108.3c-1.3,0.1-2.5,0.1-3.7,0.2c-0.2,0-0.4-0.2-0.5-0.4c0,0,0.2-0.4,0.3-0.4c1.3,0,2.5,0,3.8,0.1
			C185.3,107.8,185.4,108,185.5,108.3z"/>
		<path class="st3" d="M178.6,110.6c-0.3,0-0.6,0-0.8-0.1c-0.2-0.1-0.5-0.3-0.5-0.4c0-0.2,0.2-0.6,0.4-0.6c0.6-0.1,1.2-0.1,1.8,0
			c0.2,0,0.4,0.4,0.6,0.5c-0.2,0.2-0.4,0.4-0.7,0.5C179.2,110.6,178.9,110.6,178.6,110.6C178.6,110.6,178.6,110.6,178.6,110.6z"/>
		<path class="st3" d="M79.3,134c0.8,1,1.4,1.7,2.2,2.5c-0.8,0.1-1.5,0.2-2.2,0.3C79.3,136,79.3,135.2,79.3,134z"/>
		<path class="st3" d="M38.2,110.9c0.2-0.6,0.5-1.3,0.7-2c0.7,0.5,1.6,0.8,1.1,1.7c-0.2,0.4-1,0.5-1.5,0.7
			C38.4,111.1,38.3,111,38.2,110.9z"/>
		<path class="st3" d="M145.7,77.7c0.9-0.2,1.5-0.3,2.2-0.4c-0.1,0.8-0.1,1.6-0.2,2.7C147,79.2,146.4,78.5,145.7,77.7z"/>
		<path class="st3" d="M145.9,136.2c0.7-0.9,1.3-1.5,2.1-2.4c0.1,1,0.1,1.8,0.2,2.7C147.5,136.5,146.8,136.4,145.9,136.2z"/>
		<path class="st3" d="M69.1,77.4c-1.3,0.6-2.3,2.3-4.4,1.5C66,77.5,67.7,77.9,69.1,77.4z"/>
		<path class="st3" d="M103.6,47.3c-2.1,0.1-2.9,2.1-4.4,3.1C99.8,48.4,101.7,47.1,103.6,47.3z"/>
		<path class="st3" d="M147.2,65.4c0.6,0.8,1.1,1.5,1.7,2.3c-0.3,0.2-0.6,0.4-0.9,0.6c-0.6-0.7-1.1-1.4-1.7-2.2
			C146.6,65.8,146.9,65.6,147.2,65.4z"/>
		<path class="st3" d="M73,62.6c0.2,0.3,0.4,0.5,0.7,0.8c-0.7,0.6-1.4,1.2-2.1,1.7C70.6,64.3,70.6,64.3,73,62.6z"/>
		<path class="st3" d="M79,80.1c0-0.8,0-1.6,0-2.5c0.6,0.1,1.2,0.2,2.1,0.4c-0.7,0.8-1.3,1.5-1.8,2.2C79.2,80.2,79.1,80.2,79,80.1z"
			/>
		<path class="st3" d="M115,58.2c-0.9,1.4-2.4,1.4-3.2,0C112.8,58.2,113.9,58.2,115,58.2z"/>
		<path class="st3" d="M95.1,59c0.3,1.2-0.5,3.6-1.6,4.1c0.4-1.5,0.8-2.9,1.2-4.3C94.9,59,95,59,95.1,59z"/>
		<path class="st3" d="M30.9,111.3c-0.2,0-0.4,0.1-0.6,0c-0.3-0.1-0.6-0.4-0.9-0.5c0.3-0.2,0.5-0.4,0.8-0.5c0.4-0.1,0.8-0.1,1.2,0
			c0.3,0.1,0.6,0.4,0.9,0.6c-0.3,0.2-0.6,0.4-0.9,0.5C31.2,111.3,31,111.3,30.9,111.3z"/>
		<path class="st3" d="M179.9,137.6c1.6,0,3.3,0,4.9,0c0,0.1,0,0.2,0,0.3c-1.6,0-3.3,0-4.9,0C179.9,137.9,179.9,137.8,179.9,137.6z"
			/>
		<path class="st3" d="M165.8,102.1c1-0.8,3.7-0.8,4.9,0C169,102.1,167.5,102.1,165.8,102.1z"/>
		<path class="st3" d="M32.7,113.1c1.5,0,2.7,0,4,0C36,113.8,33.9,113.9,32.7,113.1z"/>
		<path class="st3" d="M176.6,112.4c-1.1,1-3.1,0.9-3.7,0C174.1,112.4,175.4,112.4,176.6,112.4z"/>
		<path class="st3" d="M154.8,93.4c0.6,2.4,1.1,4.8,1.7,7.2c-0.1,0-0.2,0.1-0.3,0.1c-0.6-2.4-1.1-4.8-1.7-7.2
			C154.6,93.5,154.7,93.5,154.8,93.4z"/>
		<path class="st3" d="M29.9,138.7c-1.6,0-3.2,0-4.9,0c0-0.1,0-0.2,0-0.3c1.6,0,3.2,0,4.9,0C29.9,138.5,29.9,138.6,29.9,138.7z"/>
		<path class="st3" d="M174.7,150c-0.8,0.1-1.6,0.2-2.4,0.2c-0.1,0-0.4-0.3-0.4-0.5c0-0.2,0.2-0.5,0.4-0.5c0.8,0,1.6,0.1,2.4,0.1
			C174.7,149.6,174.7,149.8,174.7,150z"/>
		<path class="st3" d="M28.3,112.2c-2.1,0-4.3,0-6.5,0C22.2,111.6,25.9,111.6,28.3,112.2z"/>
		<path class="st3" d="M178.9,148.6c1.1-0.9,2.8-0.9,3.6,0C181.2,148.6,180.2,148.6,178.9,148.6z"/>
		<path class="st3" d="M27.5,149.1c0.6-0.6,2.4-0.7,3.3-0.1C30,149.6,28.5,149.6,27.5,149.1z"/>
		<path class="st3" d="M135.5,63.9c-1.7-0.3-2.1-0.9-2.5-3.3C133.9,61.8,134.7,62.8,135.5,63.9z"/>
		<path class="st3" d="M174,148.7c-0.8-0.2-1.4-0.3-2-0.4c-0.2,0-0.2-0.4-0.3-0.5c0.2-0.1,0.4-0.2,0.6-0.2c0.6,0.1,1.1,0.1,1.7,0.3
			c0.2,0.1,0.4,0.3,0.6,0.4C174.4,148.4,174.2,148.6,174,148.7z"/>
		<path class="st3" d="M181.5,111.1c2.1,0,4.1,0,6.3,0C187.1,111.6,183.7,111.7,181.5,111.1z"/>
		<path class="st3" d="M178.9,149.6c1,0,2.1,0,3.1,0C181.8,150.4,180.7,150.5,178.9,149.6z"/>
		<path class="st3" d="M31.4,148.6c1.1-0.1,2-0.1,3.1-0.1C33.9,149.5,32.2,149.6,31.4,148.6z"/>
		<path class="st3" d="M168.3,107.6c-0.6-0.2-1.1-0.4-1.7-0.6c0.6-0.2,1.1-0.4,1.7-0.4c0.5,0,1,0.3,1.5,0.5
			C169.3,107.2,168.8,107.3,168.3,107.6z"/>
		<path class="st3" d="M38,149.9c-0.3,1-1.1,1.2-2.8,0.7C35.5,149.9,35.5,149.9,38,149.9z"/>
		<path class="st3" d="M81.9,65.1c-0.3,0.3-0.6,0.5-1.1,0.9c-0.4-1.1-0.7-2-1-3c0.1,0,0.2-0.1,0.3-0.1
			C80.7,63.5,81.2,64.2,81.9,65.1z"/>
		<path class="st3" d="M35.2,148.9c0.6-0.7,2.3-0.9,3.2-0.1c-1.2,0.2-2.2,0.3-3.1,0.5C35.3,149.2,35.2,149,35.2,148.9z"/>
		<path class="st3" d="M8.7,111c0,2.7,0,5.3,0,8c0,0-0.1,0-0.1,0c0-2.7,0-5.4,0-8C8.7,110.9,8.7,111,8.7,111z"/>
		<path class="st3" d="M166,111.7c1.5,0,3,0,4.5,0c0,0.1,0,0.2,0,0.3c-1.5,0-3,0-4.5,0C166,111.8,166,111.7,166,111.7z"/>
		<path class="st3" d="M175.3,147.9c0.9,0,1.7,0,2.5,0c0.1,0,0.4,0.4,0.3,0.6C177.9,149,175.8,148.7,175.3,147.9z"/>
		<path class="st3" d="M31,150.3c-2.2,0.9-2.9,0.8-3.1,0C28.9,150.3,29.9,150.3,31,150.3z"/>
		<ellipse class="st3" cx="168.2" cy="103.2" rx="2.1" ry="0.2"/>
		<path class="st3" d="M23.2,150.9c0,0.3,0,0.7,0.1,1.4c-0.7-0.3-1.3-0.5-1.8-0.7c0.5-0.3,0.9-0.7,1.4-1
			C23,150.6,23.1,150.7,23.2,150.9z"/>
		<path class="st3" d="M138.6,65.9c0.5-0.6,1-1.3,1.5-1.9c0.1,0,0.1,0,0.2,0c-0.3,0.6-0.5,1.2-0.9,1.7c-0.2,0.2-0.8,0.1-1.2,0.2
			C138.4,65.8,138.5,65.9,138.6,65.9z"/>
		<path class="st3" d="M82.5,61.7c0.1-0.4,0.1-1.1,0.3-1.3c0.4-0.2,1-0.1,1.5-0.1c0,0.1,0.1,0.2,0.1,0.3c-0.5,0.4-1,0.8-1.5,1.2
			C82.7,61.8,82.6,61.7,82.5,61.7z"/>
		<path class="st3" d="M32.1,113.4c-0.9,0-1.8,0-2.7,0c0-0.1,0-0.3,0-0.4c0.9-0.3,1.8-0.3,2.7,0.1C32.1,113.2,32.1,113.3,32.1,113.4
			z"/>
		<path class="st3" d="M23.9,82.5c-0.1-0.4-0.1-0.8-0.2-1.4c0.7,0.2,1.3,0.3,1.8,0.5c-0.4,0.4-0.8,0.8-1.2,1.2
			C24.2,82.7,24,82.6,23.9,82.5z"/>
		<path class="st3" d="M19.8,83.4c-0.5-0.2-1-0.5-1.5-0.7c0.5-0.3,0.9-0.6,1.6-1.1c0.1,0.7,0.1,1.1,0.2,1.4
			C20,83.1,19.9,83.3,19.8,83.4z"/>
		<path class="st3" d="M175.5,149.3c1,0,1.7,0.1,2.6,0.1C177.2,150.3,176.1,150.3,175.5,149.3z"/>
		<path class="st3" d="M177.4,112.4c0.9,0,1.8,0,2.6,0c0,0.1,0,0.2,0,0.4c-0.9,0-1.8,0-2.6,0C177.4,112.6,177.4,112.5,177.4,112.4z"
			/>
		<path class="st3" d="M141.6,147.9c-0.8,0-1.3,0-2.2,0c0.8-0.5,1.4-0.9,2.1-1.4C141.6,147.1,141.6,147.5,141.6,147.9z"/>
		<path class="st3" d="M31.9,150.1c0.8-0.1,1.5-0.1,2.4-0.2C33.9,150.8,32.9,151,31.9,150.1z"/>
		<path class="st3" d="M95.1,58.1c0.4-1,0.8-2.1,1.2-3.1c0.1,0,0.1,0,0.2,0.1c-0.3,1.1-0.6,2.1-0.9,3.2
			C95.5,58.2,95.3,58.1,95.1,58.1z"/>
		<path class="st3" d="M17.3,82.5c0.5,1.2,0.5,1.2-1.2,2.3C16.5,83.9,16.9,83.2,17.3,82.5z"/>
		<path class="st3" d="M79.8,153.8c0-1,0-1.9,0-2.9c0.1,0,0.1,0,0.2,0c0,0.9,0,1.9,0,2.8C79.9,153.8,79.8,153.8,79.8,153.8z"/>
		<path class="st3" d="M107.8,42.9c-0.1-0.4-0.2-0.9-0.3-1.3c0-0.1,0.3-0.2,0.4-0.3c0.2,0.5,0.3,0.9,0.5,1.4
			C108.2,42.8,108,42.9,107.8,42.9z"/>
		<path d="M113.6,65.8c22.5-0.1,40.7,17.7,41.3,40.2c0.6,23.8-18.2,42.1-40.6,42.5c-23,0.4-42.1-17.8-42.1-41.4
			C72.2,83.9,90.7,65.6,113.6,65.8z M153.6,107.1c-0.4-23.7-19.7-40.1-40.2-40c-21.1,0.1-39.7,17.4-39.8,39.7
			c-0.2,21.3,17,39.9,39.5,40.2C134.6,147.4,153.2,130.3,153.6,107.1z"/>
		<path d="M33,96.3c0-1.4,0.9-2.4,2.3-2.4c1.5,0,2.5,1,2.5,2.4c0,1.4-1,2.4-2.4,2.4C34,98.7,33,97.7,33,96.3z"/>
		<path d="M32,105.2c0-1.4,1-2.3,2.4-2.3c1.4,0,2.4,1,2.4,2.4c0,1.4-1.1,2.4-2.5,2.4C32.9,107.6,32,106.6,32,105.2z"/>
		<path d="M176.3,95.6c0,1.5-0.8,2.4-2.3,2.4c-1.5,0-2.3-0.9-2.4-2.3c0-1.5,0.9-2.4,2.3-2.4C175.4,93.3,176.3,94.2,176.3,95.6z"/>
		<path d="M175,107c-1.4,0-2.3-0.9-2.3-2.3c0-1.4,0.9-2.3,2.3-2.4c1.5,0,2.4,1,2.4,2.4C177.4,106.1,176.4,107,175,107z"/>
		<path class="st3" d="M153.6,107.1c-0.4,23.1-19,40.2-40.5,39.9c-22.6-0.3-39.7-18.9-39.5-40.2c0.2-22.3,18.7-39.6,39.8-39.7
			C133.9,67,153.3,83.5,153.6,107.1z"/>
	</g>
</g>
</svg>
