<?xml version="1.0" standalone="no"?>
<!DOCTYPE svg PUBLIC "-//W3C//DTD SVG 20010904//EN"
 "http://www.w3.org/TR/2001/REC-SVG-20010904/DTD/svg10.dtd">
<svg version="1.0" xmlns="http://www.w3.org/2000/svg"
 width="100.000000pt" height="100.000000pt" viewBox="0 0 100.000000 100.000000"
 preserveAspectRatio="xMidYMid meet">

<g transform="translate(0.000000,100.000000) scale(0.100000,-0.100000)"
fill="#000000" stroke="none">
<path d="M199 857 l-44 -114 -28 23 c-36 30 -51 31 -43 2 3 -13 -2 -53 -11
-89 -16 -63 -16 -68 1 -93 30 -47 56 -52 140 -29 64 18 78 19 100 8 l26 -14
-24 47 c-45 90 -42 148 11 220 14 18 23 34 22 35 -36 19 -47 29 -61 57 -37 72
-41 70 -89 -53z"/>
<path d="M425 862 c-51 -24 -91 -71 -105 -123 -13 -48 -6 -88 26 -149 13 -25
24 -51 24 -57 0 -15 -56 -18 -65 -3 -9 14 -61 12 -124 -5 -45 -12 -59 -12 -85
-1 -60 25 -63 36 -41 176 5 33 4 32 -14 -11 -44 -103 -34 -155 33 -177 29 -9
53 -10 94 -2 31 5 76 10 100 10 35 0 45 -4 49 -20 3 -11 9 -20 14 -20 5 0 9
-8 9 -18 0 -11 -16 -26 -44 -39 -67 -33 -99 -82 -104 -158 -3 -47 1 -73 16
-107 41 -93 165 -144 257 -104 28 12 27 13 -27 8 -87 -7 -123 4 -172 51 -49
46 -75 114 -57 145 9 14 10 11 11 -16 0 -37 22 -96 40 -107 7 -4 6 5 -4 23
-56 109 -1 229 122 261 55 15 110 1 159 -42 30 -26 34 -28 24 -9 -7 12 -34 35
-61 50 -30 16 -50 34 -50 45 0 9 5 17 10 17 6 0 10 7 10 15 0 8 -4 15 -10 15
-18 0 -11 26 15 54 28 31 78 35 145 11 23 -8 54 -14 69 -14 21 1 22 2 6 6 -11
3 -47 16 -79 30 -70 29 -107 26 -148 -14 -32 -31 -36 -21 -9 23 26 43 59 49
123 23 110 -44 124 -48 158 -49 42 0 94 30 135 77 21 24 45 39 79 47 l49 13
-34 25 c-55 41 -78 42 -155 3 -83 -42 -119 -44 -208 -10 -145 55 -207 18 -192
-113 3 -31 9 -68 12 -82 5 -20 4 -23 -6 -13 -19 18 -39 129 -30 170 5 20 20
48 35 62 21 22 34 26 78 24 32 0 75 -11 110 -27 89 -40 116 -36 237 30 l45 25
-85 -5 c-82 -5 -87 -4 -160 31 -92 45 -165 53 -225 25z"/>
</g>
</svg>
