<?xml version="1.0" encoding="UTF-8"?>
<svg id="Livello_2" data-name="Livello 2" xmlns="http://www.w3.org/2000/svg" viewBox="0 0 16 16">
  <defs>
    <style>
      .cls-1 {
        fill: #fff;
        stroke-width: 0px;
      }
    </style>
  </defs>
      <path class="cls-1" d="M15.2,1.6H7.05c-.33-.93-1.21-1.6-2.25-1.6s-1.92.67-2.25,1.6H.8c-.44,0-.8.36-.8.8s.36.8.8.8h1.75c.33.93,1.21,1.6,2.25,1.6s1.92-.67,2.25-1.6h8.15c.44,0,.8-.36.8-.8s-.36-.8-.8-.8ZM4,2.4c0-.44.36-.8.8-.8s.8.36.8.8-.36.8-.8.8-.8-.36-.8-.8Z"/>
      <path class="cls-1" d="M15.2,7.2h-1.75c-.33-.93-1.21-1.6-2.25-1.6s-1.92.67-2.25,1.6H.8c-.44,0-.8.36-.8.8s.36.8.8.8h8.15c.33.93,1.21,1.6,2.25,1.6s1.92-.67,2.25-1.6h1.75c.44,0,.8-.36.8-.8s-.36-.8-.8-.8ZM10.4,8c0-.44.36-.8.8-.8s.8.36.8.8-.36.8-.8.8-.8-.36-.8-.8Z"/>
      <path class="cls-1" d="M15.2,12.8H7.05c-.33-.93-1.21-1.6-2.25-1.6s-1.92.67-2.25,1.6H.8c-.44,0-.8.36-.8.8s.36.8.8.8h1.75c.33.93,1.21,1.6,2.25,1.6s1.92-.67,2.25-1.6h8.15c.44,0,.8-.36.8-.8s-.36-.8-.8-.8ZM4,13.6c0-.44.36-.8.8-.8s.8.36.8.8-.36.8-.8.8-.8-.36-.8-.8Z"/>
</svg>