<?xml version="1.0" encoding="UTF-8"?>
<svg id="Livello_2" data-name="Livello 2" xmlns="http://www.w3.org/2000/svg" viewBox="0 0 216.71 32">
  <defs>
    <style>
      .cls-1 {
        fill: #ed1c24;
      }

      .cls-1, .cls-2 {
        stroke-width: 0px;
      }

      .cls-2 {
        fill: #fff;
      }
    </style>
  </defs>
  <g id="Livello_1-2" data-name="Livello 1">
    <g>
      <path class="cls-1" d="M.09,21.64s0-.03,0-.04c.06-.83.23-1.76.5-2.76l2.59-10.48c.78-3,2-5.16,3.63-6.43,1.62-1.27,3.96-1.92,6.95-1.92h16.31c2.66,0,4.57.38,5.65,1.13,1,.7,1.42,1.95,1.29,3.84-.06.85-.24,1.85-.52,2.98l-1.66,6.3-2.19,9.19-.77,2.93h-1.8C23.51,8.28,8.3,6.39,8.3,6.39c0,0,3.59,8.54,3.59,12.39,0,6.86-7.1,7.6-8.92,7.6,0,0-3.59.05-2.88-4.74"/>
      <g>
        <path class="cls-2" d="M48.31,4.71l-5.46,21.14h18.13l.69-2.63h-10.31c-.14,0-.27-.06-.35-.17-.08-.11-.11-.25-.07-.39l1.51-5.75c.06-.22.27-.38.49-.38h9.66l.67-2.56h-9.47c-.14,0-.27-.06-.35-.17-.08-.11-.11-.25-.07-.39l1.4-5.67c.06-.22.27-.39.49-.39h81.05l.69-2.63H48.31Z"/>
        <path class="cls-2" d="M86.72,11.62c-.57-.57-1.36-.85-2.41-.85h-14.94l-.55,2.08h9.84c.62,0,1.09.09,1.42.26.26.14.66.5.43,1.39-.15.57-.43.96-.82,1.17-.34.18-.76.27-1.31.27h-8c-1.1,0-2.08.29-2.9.86-.81.56-1.35,1.36-1.64,2.44l-.71,2.74c-.15.55-.17.72-.18.77l-.04.51c-.07.97.16,1.61.7,1.98.6.4,1.56.61,2.87.61h15.91l2.93-11.18c.07-.29.11-.56.13-.8.07-.95-.17-1.69-.73-2.25M79.48,18.55l-.71,2.78c-.21.87-.52,1.48-.93,1.86-.44.4-1.08.59-1.95.59h-1.92c-.69,0-1.17-.14-1.48-.43-.33-.3-.47-.73-.43-1.29.02-.27.08-.57.17-.91l.18-.71c.21-.87.51-1.48.93-1.86.44-.4,1.08-.59,1.95-.59h3.77c.14,0,.27.06.35.17.08.11.11.25.07.39"/>
        <path class="cls-2" d="M90.83,17.5l.12-.45-.14.52s0-.03.01-.04c0,0,0-.02,0-.03"/>
        <path class="cls-2" d="M99.05,13.02c.27-.11.6-.17,1.01-.17h10.83l.55-2.08h-12.73c-1.89,0-3.39.24-4.44.71-1.3.58-2.17,1.56-2.64,2.99l-.68,2.59-.12.45s0,.02,0,.03c0,.01,0,.03-.01.04l-.14.55-.03.5c-.07,1.05.14,2.45,2.83,2.45h6.96c.42,0,.78.08,1.06.24.18.1.58.42.38,1.17-.17.7-.58.99-.89,1.11-.35.13-.76.19-1.26.19h-10.53l-.54,2.07h13.4c1.7,0,3.09-.32,4.14-.94,1.22-.73,2.02-1.87,2.43-3.46l.62-2.28s0-.03.01-.04l.15-.58.04-.61c.07-.96-.16-1.62-.68-2.03-.55-.43-1.47-.65-2.73-.65h-6.57c-.49,0-.84-.14-1.04-.41-.12-.16-.24-.46-.11-.93.16-.56.49-.8.73-.9"/>
        <path class="cls-2" d="M91.51,14.87l-.56,2.18.68-2.59c-.04.13-.08.27-.12.41"/>
        <path class="cls-2" d="M128.63,10.77l-2.69,10.24,2.69-10.24-2.7,10.26c-.35,1.21-.54,1.58-.66,1.76-.29.45-.84.98-1.87.98h-2.02c-.78,0-1.33-.13-1.66-.39-.36-.29-.53-.74-.48-1.35.02-.32.11-.75.26-1.32l2.6-9.94h-6.91l-2.47,9.41c-.2.85-.33,1.57-.37,2.15-.09,1.23.17,2.14.77,2.68.62.56,1.77.84,3.42.84h8.11l-.36,1.38c-.23.89-.5,1.5-.81,1.84-.43.48-1.11.72-2.01.72h-11.27l-.58,2.21h13.55c2.45,0,4.18-.22,5.14-.67,1.36-.62,2.33-2.01,2.89-4.11l4.29-16.45h-6.86Z"/>
        <path class="cls-2" d="M154.05,4.71l-.57,2.51c-.02.09-.04.19-.07.28-.11.43-.23.86-.35,1.28l-.52,1.99h-9.45c-1.17,0-2.17.36-3.06,1.11-.9.76-1.5,1.72-1.83,2.92l-1.85,6.95c-.11.47-.15.65-.16.72-.02.1-.03.23-.04.39-.07,1.06.18,1.8.77,2.25.63.48,1.61.72,2.94.72h15.6l5.46-21.14h-6.87ZM151.46,14.94s0,.01,0,.02l-.12.38-1.55,5.94c-.23.82-.52,1.42-.9,1.83-.42.44-1.05.67-1.88.67h-1.79c-.64,0-1.12-.12-1.47-.35-.28-.19-.6-.57-.55-1.29,0-.14.05-.34.12-.63,0,0,1.69-6.45,1.69-6.45.49-1.82,1.7-2.2,2.64-2.2h2.14c1.69,0,1.8,1.1,1.76,1.58-.01.2-.04.37-.08.51"/>
        <path class="cls-2" d="M163.48,10.81l-3.95,15.05h6.9l.48-1.82c.04-.16.08-.33.13-.51.06-.27.16-.66.31-1.18l3.02-11.53h-6.89Z"/>
        <path class="cls-2" d="M214.46,11.46c-.66-.46-1.8-.69-3.41-.69h-9.85c-1.81,0-3.22.39-4.2,1.16-.98.77-1.72,2.08-2.19,3.89l-1.37,5.17c-.17.62-.27,1.19-.3,1.7-.08,1.2.21,2.02.91,2.49.67.45,1.84.68,3.47.68h14.74l.54-2.07h-10.26c-.84,0-1.44-.1-1.82-.29-.33-.17-.71-.56-.65-1.42.02-.29.08-.62.17-.97l.36-1.34c.06-.22.26-.38.49-.38h12.84l1-3.8c.17-.68.28-1.29.31-1.8.08-1.14-.18-1.9-.78-2.32M208.25,15.17l-.44,1.72c-.06.23-.27.38-.5.38h-5.49c-.14,0-.27-.06-.35-.17-.08-.11-.11-.26-.07-.4l.52-1.92c.17-.63.39-1.08.67-1.4.33-.36.78-.54,1.36-.54h3.09c.54,0,.91.13,1.12.41.2.25.29.59.26,1.01-.02.27-.08.57-.17.91"/>
        <path class="cls-2" d="M188.12,16l-4.31,6.35c-.09.14-.26.23-.42.23-.02,0-.05,0-.07,0-.19-.03-.33-.17-.36-.36l-1.53-9.23s0,0,0,0l.09.57-.09-.57c-.03-.15-.06-.33-.08-.54l-.26-1.66h-7.74l.36,2.32,2.13,12.76h7.97l8.43-12.59.08-.11,1.62-2.38h-2.26l-3.56,5.23Z"/>
        <path class="cls-2" d="M214.91,8.1c-1,0-1.8-.81-1.8-1.8s.81-1.81,1.8-1.81,1.8.8,1.8,1.81-.8,1.8-1.8,1.8M214.91,4.75c-.85,0-1.54.68-1.54,1.55s.69,1.54,1.54,1.54,1.55-.7,1.55-1.54-.69-1.55-1.55-1.55M215.4,7.34l-.53-.82h-.37v.82h-.28v-2.07h.84c.35,0,.66.25.66.63,0,.46-.41.61-.53.61l.55.83h-.35ZM215.06,5.52h-.56v.75h.56c.18,0,.38-.15.38-.37,0-.23-.2-.38-.38-.38"/>
      </g>
    </g>
  </g>
</svg>