<?xml version="1.0" encoding="UTF-8"?>
<svg id="Livello_2" data-name="Livello 2" xmlns="http://www.w3.org/2000/svg" viewBox="0 0 32 32">
  <defs>
    <style>
      .cls-1 {
        fill: #202020;
        stroke-width: 0px;
      }
    </style>
  </defs>
  <g id="Livello_1-2" data-name="Livello 1">
    <g>
      <g>
        <path class="cls-1" d="M16,4.67c2.52,0,4.85.84,6.74,2.24l3.34-3.34c-2.75-2.23-6.25-3.57-10.07-3.57s-7.32,1.34-10.07,3.57l3.34,3.34c1.89-1.4,4.21-2.24,6.74-2.24Z"/>
        <g>
          <path class="cls-1" d="M27.33,16c0,2.52-.84,4.85-2.24,6.74l3.34,3.34c2.23-2.75,3.57-6.25,3.57-10.07s-1.34-7.32-3.57-10.07l-3.34,3.34c1.4,1.89,2.24,4.21,2.24,6.74Z"/>
          <path class="cls-1" d="M4.67,16c0-2.52.84-4.85,2.24-6.74l-3.34-3.34C1.34,8.68,0,12.18,0,16s1.34,7.32,3.57,10.07l3.34-3.34c-1.4-1.89-2.24-4.21-2.24-6.74Z"/>
          <path class="cls-1" d="M16,27.33c-2.52,0-4.85-.84-6.74-2.24l-3.34,3.34c2.75,2.23,6.25,3.57,10.07,3.57s7.32-1.34,10.07-3.57l-3.34-3.34c-1.89,1.4-4.21,2.24-6.74,2.24Z"/>
        </g>
      </g>
      <path class="cls-1" d="M9.48,18.99s0-.01,0-.02c.02-.29.08-.62.18-.98l.92-3.71c.28-1.06.71-1.83,1.28-2.28.57-.45,1.4-.68,2.46-.68h5.77c.94,0,1.62.13,2,.4.35.25.5.69.46,1.36-.02.3-.08.65-.18,1.06l-.59,2.23-.77,3.25-.27,1.04h-.64c-2.32-6.4-7.7-7.07-7.7-7.07,0,0,1.27,3.02,1.27,4.38,0,2.43-2.51,2.69-3.16,2.69,0,0-1.27.02-1.02-1.68"/>
    </g>
  </g>
</svg>